<svg xmlns="http://www.w3.org/2000/svg" width="31" height="32" fill="none" viewBox="0 0 31 32">
  <g clip-path="url(#a)">
    <path fill="#00294B" d="M14.855.556C14.575.5 14.295.5 14.015.5 10.201.5 6.726 2.126 3.7 5.377.897 8.292 0 10.703 0 13.562c0 1.513.28 3.195.673 5.157.728 3.7 2.97 7.287 6.054 9.866 2.354 1.962 4.99 2.915 7.792 2.971a12.53 12.53 0 0 0 4.429-.785c4.82-1.681 9.473-6.446 11.267-11.604.56-1.625.841-3.251.841-4.765 0-3.7-1.682-6.95-4.933-9.25C22.143 2.295 18.387.725 14.855.557Z"/>
    <path fill="#fff" d="M9.306 16.028H8.24v.056c0 .224-.113 2.018-1.738 2.018-1.458 0-2.187-1.29-2.187-3.868 0-2.579.73-3.868 2.187-3.868 1.625 0 1.738 1.906 1.738 2.018v.056h1.065a.428.428 0 0 0 .28-.112.425.425 0 0 0 .112-.224c0-.505-.28-3.027-3.195-3.027-2.355 0-3.588 1.794-3.588 5.157 0 3.364 1.233 5.158 3.588 5.158 2.803 0 3.139-2.299 3.195-2.972 0-.112-.056-.168-.112-.28a.428.428 0 0 0-.28-.112Zm16.537-2.41-.897-.393c-.897-.392-1.177-.785-1.177-1.457 0-.897.616-1.458 1.625-1.458.56 0 1.01.112 1.57.673l.056.056.448-.449c.28-.28.225-.504.056-.672-.448-.56-1.233-.897-2.186-.897-1.738 0-3.027 1.177-3.027 2.747 0 1.57.953 2.186 2.018 2.69l.953.393c.953.392 1.402.785 1.402 1.682 0 1.233-1.122 1.57-1.794 1.57-.56 0-1.177-.113-1.962-1.01l-.056-.056-.449.505c-.28.224-.28.448 0 .728.729.897 1.738 1.066 2.467 1.066 1.57 0 3.195-.953 3.195-2.86 0-1.57-.897-2.298-2.242-2.858Zm-9.026-1.57c0-1.57-1.289-2.915-2.915-2.915-.728 0-1.457.28-1.962.729v-.56h-.953c-.28 0-.392.167-.392.392v9.305c0 .28.168.393.392.393h.953v-7.288c0-.953.785-1.738 1.738-1.738s1.738.785 1.738 1.738v7.344h.953c.28 0 .392-.169.392-.393.056-.056.056-7.007.056-7.007Zm5.494-2.298c.056-.057.056-.113.056-.225a.378.378 0 0 0-.224-.336c-.28-.112-.56-.112-.897-.112a3.02 3.02 0 0 0-1.962.729v-.561h-.953c-.28 0-.392.168-.392.392V19c0 .28.168.393.392.393h.953v-7.344c0-.953.785-1.738 1.738-1.738.224 0 .504.056.729.168l.56-.728Z"/>
  </g>
  <defs>
    <clipPath id="a">
      <path fill="#fff" d="M0 .5h31v31H0z"/>
    </clipPath>
  </defs>
</svg>
