<svg width="500" height="500" viewBox="0 0 500 500" fill="none" xmlns="http://www.w3.org/2000/svg">
<path d="M250 500C388.071 500 500 388.071 500 250C500 111.929 388.071 0 250 0C111.929 0 0 111.929 0 250C0 388.071 111.929 500 250 500Z" fill="#6F4EFF"/>
<path fill-rule="evenodd" clip-rule="evenodd" d="M347.89 278.398C346.38 278.02 345.123 277.643 343.99 277.14C343.186 276.782 342.509 276.362 341.913 275.877C341.457 275.506 341.264 274.912 341.319 274.327C341.911 268.045 341.252 262.495 341.852 256.259C344.368 230.849 360.343 238.9 374.683 234.748C382.839 232.451 390.994 227.951 394.073 219.141C394.642 217.515 394.155 215.738 393.016 214.446C383.67 203.849 373.331 194.481 362.104 186.445C324.332 159.552 275.276 148.34 230.172 154.77C228.268 155.041 227.27 157.149 228.319 158.761C233.858 167.272 241.072 174.29 249.325 179.544C251.061 180.649 250.351 182.968 248.352 182.48C244.261 181.483 239.208 179.655 234.429 176.303C233.878 175.917 233.17 175.82 232.545 176.069C230.355 176.942 227.281 178.167 224.657 179.292C222.903 180.043 222.546 182.299 223.995 183.541C246.483 202.814 278.945 205.838 304.591 190.641C306.355 189.596 309.219 191.827 308.675 193.803C307.914 196.564 307.046 200.23 306.127 205.062C299.712 237.516 281.221 235 258.327 226.824C212.791 210.32 186.867 224.273 163.873 196.758C162.075 194.607 158.935 193.848 156.858 195.729C152.318 199.841 149.644 205.714 149.644 211.981C149.644 219.539 153.514 226.023 159.267 229.941C160.073 230.49 161.151 230.258 161.758 229.495C162.92 228.036 163.916 226.988 165.049 226.254C166.716 225.177 167.601 227.639 166.162 229.005C161.692 233.247 160.273 238.402 157.191 248.208C152.16 264.184 154.299 280.536 130.775 284.813C118.322 285.442 118.574 293.87 114.045 306.449C108.837 321.496 102.031 328.236 89.5111 341.27C87.5751 343.286 87.3991 346.523 89.5691 348.284C94.5394 352.318 99.6597 352.492 104.863 350.35C118.071 344.815 128.26 327.708 137.82 316.638C148.512 304.311 174.173 309.594 193.545 297.518C203.62 291.34 209.817 283.51 208.446 271.966C208.183 269.758 210.693 268.477 211.531 270.536C212.773 273.586 213.606 276.801 213.993 280.11C214.123 281.221 215.118 282.044 216.236 281.99C237.032 280.981 263.828 303.667 288.933 310.072C290.642 310.508 291.865 308.535 290.912 307.051C289.427 304.74 288.157 302.349 287.133 299.908C286.216 297.707 285.481 295.558 284.914 293.47C284.326 291.299 287.51 290.667 288.663 292.598C295.369 303.836 308.067 314.116 325.499 315.38C331.663 315.884 338.456 315.129 345.5 312.99C353.928 310.474 361.727 307.204 371.035 308.965C377.954 310.223 384.369 313.745 388.395 319.657C393.997 327.828 405.774 330.042 412.166 321.674C413.148 320.388 413.228 318.643 412.587 317.158C398.525 284.581 363.126 282.33 347.89 278.398Z" fill="white"/>
</svg>