<svg xmlns="http://www.w3.org/2000/svg" width="25" height="25" fill="none" viewBox="0 0 25 25">
  <path fill="#fff" d="M12.5 0C5.645 0 0 5.707 0 12.82c0 5.623 3.589 10.422 8.589 12.157.645.125.846-.29.846-.58 0-.289 0-1.114-.04-2.232-3.467.827-4.194-1.737-4.194-1.737-.563-1.448-1.411-1.86-1.411-1.86-1.129-.827.041-.827.041-.827 1.25.04 1.935 1.323 1.935 1.323 1.088 1.984 2.944 1.406 3.629 1.033.121-.827.444-1.405.806-1.736-2.741-.29-5.685-1.406-5.685-6.286 0-1.405.525-2.522 1.29-3.391-.121-.29-.564-1.613.122-3.39 0 0 1.087-.332 3.467 1.322a11.355 11.355 0 0 1 3.145-.455c1.089 0 2.178.124 3.145.455 2.38-1.613 3.428-1.323 3.428-1.323.686 1.737.282 3.102.12 3.39.807.87 1.29 2.026 1.29 3.392 0 4.88-2.943 5.997-5.684 6.286.444.413.846 1.24.846 2.397 0 1.738-.04 3.103-.04 3.515 0 .332.242.704.848.58C21.41 23.158 25 18.403 25 12.737 24.96 5.707 19.355 0 12.5 0Z"/>
</svg>
