<svg xmlns="http://www.w3.org/2000/svg" width="31" height="28" fill="none" viewBox="0 0 31 28">
  <path fill="#E24329" d="m15.5 27.656 5.575-16.802H9.925L15.5 27.656Z"/>
  <path fill="#FC6D26" d="M15.5 27.656 9.925 10.854H2.11L15.5 27.656Z"/>
  <path fill="#FCA326" d="M2.11 10.854.417 15.96c-.155.466.014.976.42 1.264L15.5 27.656 2.11 10.854Z"/>
  <path fill="#E24329" d="M2.11 10.854h7.815L6.566.734c-.172-.52-.925-.52-1.098 0l-3.357 10.12Z"/>
  <path fill="#FC6D26" d="m15.5 27.656 5.576-16.802h7.814L15.5 27.656Z"/>
  <path fill="#FCA326" d="m28.89 10.854 1.694 5.106c.155.466-.015.976-.42 1.264L15.5 27.656l13.39-16.802Z"/>
  <path fill="#E24329" d="M28.89 10.854h-7.814L24.433.734c.173-.52.926-.52 1.099 0l3.358 10.12Z"/>
</svg>
