<svg xmlns="http://www.w3.org/2000/svg" width="47" height="14" fill="none" viewBox="0 0 47 14">
  <g clip-path="url(#a)">
    <path fill="#335FCF" stroke="#335FCF" stroke-miterlimit="10" stroke-width="1.333" d="M1.731 12.957V1.044h2.165v9.838h5.031v2.075H1.731Z"/>
    <path fill="#DFE0ED" stroke="#DFE0ED" stroke-miterlimit="10" stroke-width="1.333" d="M10.688 1.044h2.165v11.913h-2.165V1.044Z"/>
    <path fill="#335FCF" stroke="#335FCF" stroke-miterlimit="10" stroke-width="1.333" d="M23.32 12.957V6.013l-2.118 4.518h-1.465l-2.133-4.518v6.944h-2.166V1.044h2.134l2.898 6.442 2.881-6.442h2.134v11.913H23.32Z"/>
    <mask id="b" width="47" height="27" x="0" y="-8" maskUnits="userSpaceOnUse" style="mask-type:luminance">
      <path fill="#fff" d="M.5-7.142h46v25.63H.5v-25.63Z"/>
    </mask>
    <g mask="url(#b)">
      <path fill="#DFE0ED" d="M33.726 7c0-.569-.01-1.04-.032-1.414a8.565 8.565 0 0 0-.093-.929 2.514 2.514 0 0 0-.163-.594 1.781 1.781 0 0 0-.841-.87 1.77 1.77 0 0 0-.803-.175c-.3 0-.568.058-.802.175a1.992 1.992 0 0 0-.6.46c-.104.123-.19.26-.256.41-.068.151-.123.35-.164.594-.042.246-.07.555-.085.929-.016.374-.024.845-.024 1.414s.008 1.04.024 1.414c.015.374.043.68.085.92.041.24.096.435.164.586.067.15.152.287.257.41.166.19.366.345.6.468.233.123.5.184.801.184a1.7 1.7 0 0 0 .803-.184 1.875 1.875 0 0 0 .841-.878c.067-.151.122-.346.163-.586.042-.24.073-.546.093-.92.021-.374.032-.845.032-1.414Zm2.165 0c0 .569-.008 1.082-.023 1.54-.016.457-.06.878-.133 1.262a4.42 4.42 0 0 1-.335 1.063c-.15.324-.365.636-.646.937-.374.402-.8.711-1.277.929-.478.217-1.039.326-1.683.326-.644 0-1.207-.109-1.69-.326a3.973 3.973 0 0 1-1.285-.929 3.635 3.635 0 0 1-.646-.937 4.243 4.243 0 0 1-.327-1.063 9.072 9.072 0 0 1-.125-1.263c-.016-.457-.023-.97-.023-1.54 0-.568.007-1.081.023-1.538.016-.458.057-.879.125-1.264.067-.385.176-.739.327-1.062.15-.324.366-.636.646-.937a3.97 3.97 0 0 1 1.285-.929c.483-.217 1.046-.326 1.69-.326.644 0 1.205.109 1.683.326.477.218.903.527 1.277.929.28.301.496.613.646.937.15.323.263.677.335 1.062.073.385.117.806.133 1.264.015.457.023.97.023 1.539Z"/>
    </g>
    <mask id="c" width="47" height="27" x="0" y="-8" maskUnits="userSpaceOnUse" style="mask-type:luminance">
      <path fill="#fff" stroke="#fff" stroke-width="1.333" d="M45.832 17.82V-6.474H1.167V17.82h44.665Z"/>
    </mask>
    <g mask="url(#c)">
      <path stroke="#DFE0ED" stroke-miterlimit="10" stroke-width="1.333" d="M33.726 7c0-.569-.01-1.04-.032-1.414a8.565 8.565 0 0 0-.093-.929 2.513 2.513 0 0 0-.163-.594 1.781 1.781 0 0 0-.841-.87 1.77 1.77 0 0 0-.803-.175c-.3 0-.568.058-.802.175a1.992 1.992 0 0 0-.6.46c-.104.123-.19.26-.256.41-.068.151-.123.35-.164.594-.042.246-.07.555-.085.929-.016.374-.024.845-.024 1.414s.008 1.04.024 1.414c.015.374.043.68.085.92.041.24.096.435.164.586.067.15.152.287.257.41.166.19.366.345.6.468.233.123.5.184.801.184a1.7 1.7 0 0 0 .803-.184 1.875 1.875 0 0 0 .841-.878c.067-.151.122-.346.163-.586.042-.24.073-.546.093-.92.021-.374.032-.845.032-1.414Zm2.165 0c0 .569-.008 1.082-.023 1.54-.016.457-.06.878-.133 1.262a4.42 4.42 0 0 1-.335 1.063c-.15.324-.365.636-.646.937-.374.402-.8.711-1.277.929-.478.217-1.039.326-1.683.326-.644 0-1.207-.109-1.69-.326a3.973 3.973 0 0 1-1.285-.929 3.635 3.635 0 0 1-.646-.937 4.243 4.243 0 0 1-.327-1.063 9.072 9.072 0 0 1-.125-1.263c-.016-.457-.023-.97-.023-1.54 0-.568.007-1.081.023-1.538.016-.458.057-.879.125-1.264.067-.385.176-.739.327-1.062.15-.324.366-.636.646-.937a3.97 3.97 0 0 1 1.285-.929c.483-.217 1.046-.326 1.69-.326.644 0 1.205.109 1.683.326.477.218.903.527 1.277.929.28.301.496.613.646.937.15.323.263.677.335 1.062.073.385.117.806.133 1.264.015.457.023.97.023 1.539Z"/>
    </g>
    <mask id="d" width="47" height="27" x="0" y="-8" maskUnits="userSpaceOnUse" style="mask-type:luminance">
      <path fill="#fff" d="M.501-7.141h45.998v25.63H.501v-25.63Z"/>
    </mask>
    <g mask="url(#d)">
      <path fill="#335FCF" stroke="#335FCF" stroke-miterlimit="10" stroke-width="1.333" d="M45.268 9.443c0 .58-.104 1.094-.312 1.54a3.212 3.212 0 0 1-.865 1.13 3.86 3.86 0 0 1-1.308.702 5.299 5.299 0 0 1-1.628.242c-.841 0-1.592-.114-2.25-.343-.66-.228-1.26-.638-1.8-1.23l1.402-1.505c.353.38.758.642 1.215.786.457.145.94.218 1.449.218.654 0 1.147-.128 1.48-.385.331-.257.498-.625.498-1.104 0-.413-.114-.742-.343-.988a1.186 1.186 0 0 0-.374-.25 2.974 2.974 0 0 0-.623-.151l-1.324-.218c-.498-.078-.919-.197-1.261-.36a3.011 3.011 0 0 1-.888-.627c-.53-.546-.795-1.327-.795-2.342 0-.536.088-1.024.266-1.464.176-.44.43-.82.763-1.138a3.502 3.502 0 0 1 1.215-.745 4.606 4.606 0 0 1 1.62-.267c.768 0 1.438.106 2.009.318.571.212 1.095.568 1.573 1.07l-1.37 1.456c-.344-.357-.717-.583-1.122-.677a5.074 5.074 0 0 0-1.153-.143c-.581 0-1.01.148-1.285.443-.275.296-.413.65-.413 1.063 0 .156.023.307.07.452.047.145.127.279.242.401.114.112.252.207.413.285.16.078.36.134.6.167l1.323.218c.509.078.93.19 1.262.334.332.145.618.346.856.603.302.29.52.647.655 1.07.135.425.203.904.203 1.44Z"/>
    </g>
  </g>
  <defs>
    <clipPath id="a">
      <path fill="#fff" d="M.5 0h46v14H.5z"/>
    </clipPath>
  </defs>
</svg>
