<svg id="svg2" width="113.26" height="39.103" version="1.1" viewBox="0 0 113.26 39.103" xmlns="http://www.w3.org/2000/svg">
 <path id="path1" d="m8.312 27.514c-0.671-0.107-2.39-0.537-3.813-0.926l-2.593-0.726 1.33-2.444 1.329-2.444-1.074-1.33c-1.518-1.88-3.478-6.002-3.491-7.33-0.014-3.103 4.014-7.601 8.956-10.018 3.397-1.665 6.096-1.705 9.48-0.12l2.551 1.194 0.739-1.06c0.402-0.578 0.738-1.343 0.738-1.679s0.336-0.631 0.739-0.631 0.738 0.107 0.738 0.228c0 0.296-2.967 7.788-3.155 7.976-0.081 0.08-0.887-0.295-1.8-0.832-2.578-1.518-5.814-2.525-8.325-2.592-5.841-0.148-7.869 5.56-3.746 10.554l1.45 1.76 3.961-3.21c4.445-3.585 4.955-3.666 8.42-1.275 3.893 2.685 3.96 6.767 0.2 11.037-3.33 3.8-6.753 4.848-12.635 3.867zm9.964-4.095c1.933-1.517 1.799-4.324-0.296-6.553-2.632-2.793-3.45-2.672-8.083 1.195-4.606 3.84-4.633 3.693 0.873 5.452 3.638 1.181 5.921 1.141 7.506-0.094zm37.41 14.797c-1.317-0.483-4.862-1.947-7.896-3.263-8.191-3.572-9.346-3.639-11.79-0.671-0.564 0.685-1.181 1.114-1.356 0.94-0.524-0.524 1.034-3.035 2.914-4.686 1.53-1.343 2.04-1.531 3.733-1.343 1.074 0.12 4.646 1.37 7.935 2.766 7.426 3.155 9.601 3.827 12.435 3.827 3.45 0 5.223-2.417 4.135-5.626-0.268-0.806-0.188-1.075 0.35-1.075 1.006 0 1.517 3.76 0.792 5.922-0.31 0.926-1.209 2.242-2.001 2.9-1.182 0.994-1.934 1.209-4.15 1.195-1.49-0.013-3.786-0.402-5.102-0.886zm-19.135-11.48c-3.048-1.424-5.801-4.136-7.386-7.305-2.537-5.076-1.759-8.325 3.049-12.716 4.041-3.693 7.345-5.13 11.79-5.13 3.208 0 3.893 0.175 5.974 1.45 4.928 3.049 6.15 8.863 3.183 15.2-3.478 7.44-10.823 11.186-16.61 8.5zm10.205-3.532c2.282-1.128 3.854-6.338 3.209-10.662-0.806-5.33-8.016-8.97-13.307-6.713-5.438 2.323-5.519 8.513-0.174 14.085 3.732 3.908 6.942 4.928 10.272 3.29zm10.353 4.512c0-0.229 0.845-0.631 1.893-0.887l1.893-0.47 0.403-6.82c0.443-7.547 0.12-14.973-0.698-15.966-0.296-0.35-1.195-0.78-2.014-0.967-3.33-0.739-1.115-1.249 5.344-1.249s8.513 0.47 5.438 1.249c-2.645 0.658-2.659 0.698-2.659 11.467 0 5.975 0.215 10.474 0.524 11.051 0.43 0.806 1.074 0.98 3.545 0.98 5.102 0 6.861-1.208 8.245-5.68 0.416-1.342 1.49-1.1 1.114 0.256-0.175 0.63-0.456 2.55-0.631 4.296l-0.322 3.156h-11.038c-6.07 0-11.037-0.188-11.037-0.416z" fill="#fff"/>
 <path id="path2" d="m82.178 27.393c0-0.402 0.39-0.805 1.034-1.114 0.86-0.403 1.423-1.249 3.464-5.237 3.236-6.31 8.339-17.147 8.822-18.772 0.376-1.235 0.457-1.302 1.853-1.463 0.806-0.094 1.477-0.148 1.49-0.121 0.014 0.027 1.129 2.47 2.485 5.438 1.343 2.967 4.042 8.607 6.002 12.528 3.277 6.593 3.64 7.184 4.74 7.72 0.672 0.323 1.195 0.82 1.195 1.115 0 0.47-0.577 0.524-5.545 0.524-4.982 0-5.546-0.054-5.546-0.537 0-0.322 0.43-0.671 1.114-0.9 0.632-0.201 1.115-0.577 1.115-0.859 0-0.269-0.658-2.041-1.464-3.934l-1.463-3.451h-11.092l-1.06 2.336c-1.988 4.378-2.028 5.412-0.175 5.908 0.927 0.255 1.182 0.457 1.074 0.873-0.12 0.484-0.604 0.55-4.095 0.55-3.747 0.028-3.948 0-3.948-0.604zm18.181-10.863c0.188-0.335-3.988-9.453-4.377-9.547-0.282-0.08-4.606 8.836-4.606 9.507 0 0.336 8.782 0.376 8.983 0.04z" fill="#ca2727"/>
</svg>
