<svg xmlns="http://www.w3.org/2000/svg" width="25" height="15" fill="none" viewBox="0 0 25 15">
  <path fill="url(#a)" d="M12.5 0C9.167 0 7.083 1.667 6.25 5c1.25-1.667 2.708-2.292 4.375-1.875.95.238 1.63.928 2.383 1.691C14.234 6.06 15.652 7.5 18.75 7.5c3.333 0 5.417-1.667 6.25-5-1.25 1.667-2.708 2.292-4.375 1.875-.95-.238-1.63-.928-2.383-1.691C17.016 1.44 15.598 0 12.5 0ZM6.25 7.5C2.917 7.5.833 9.167 0 12.5c1.25-1.667 2.708-2.292 4.375-1.875.95.238 1.63.928 2.383 1.691C7.984 13.56 9.402 15 12.5 15c3.333 0 5.417-1.667 6.25-5-1.25 1.667-2.708 2.292-4.375 1.875-.95-.238-1.63-.928-2.383-1.691C10.766 8.94 9.348 7.5 6.25 7.5Z"/>
  <defs>
    <linearGradient id="a" x1="-69.45" x2="2089.71" y1="480" y2="1724.93" gradientUnits="userSpaceOnUse">
      <stop stop-color="#2298BD"/>
      <stop offset="1" stop-color="#0ED7B5"/>
    </linearGradient>
  </defs>
</svg>
