<svg width="1144" height="522" fill="none" version="1.1" viewBox="0 0 1144 522" xmlns="http://www.w3.org/2000/svg">
 <g filter="url(#a)" style="mix-blend-mode:lighten">
  <path d="M39.5 75a.5.5 0 0 0 1 0h-1Zm0-70.507a.5.5 0 0 0 1 0h-1Zm1 4.93a.5.5 0 0 0-1 0h1Zm-1 .987a.5.5 0 1 0 1 0h-1Zm1 4.93a.5.5 0 1 0-1 0h1Zm-1 .986a.5.5 0 0 0 1 0h-1Zm1 4.93a.5.5 0 0 0-1 0h1Zm-1 .987a.5.5 0 0 0 1 0h-1Zm1 4.93a.5.5 0 0 0-1 0h1Zm-1 .987a.5.5 0 1 0 1 0h-1Zm1 4.93a.5.5 0 1 0-1 0h1Zm-1 .986a.5.5 0 0 0 1 0h-1Zm1 4.93a.5.5 0 0 0-1 0h1Zm-1 .987a.5.5 0 0 0 1 0h-1Zm1 4.93a.5.5 0 0 0-1 0h1Zm-1 .987a.5.5 0 1 0 1 0h-1Zm1 4.93a.5.5 0 1 0-1 0h1Zm-1 .986a.5.5 0 0 0 1 0h-1Zm1 4.93a.5.5 0 0 0-1 0h1Zm-1 .987a.5.5 0 1 0 1 0h-1Zm1 4.93a.5.5 0 0 0-1 0h1Zm-1 .987a.5.5 0 1 0 1 0h-1Zm1 4.93a.5.5 0 1 0-1 0h1Zm-1 .986a.5.5 0 0 0 1 0h-1Zm1 4.93a.5.5 0 0 0-1 0h1ZM39.5 4v.493h1V4h-1Zm0 5.424v.986h1v-.986h-1Zm0 5.916v.986h1v-.986h-1Zm0 5.917v.986h1v-.986h-1Zm0 5.917v.986h1v-.986h-1Zm0 5.916v.986h1v-.986h-1Zm0 5.917v.986h1v-.986h-1Zm0 5.917v.986h1v-.986h-1Zm0 5.916v.986h1v-.986h-1Zm0 5.917v.986h1v-.986h-1Zm0 5.917v.986h1v-.986h-1Zm0 5.916v.986h1v-.986h-1Zm0 5.917V75h1v-.493h-1Zm0 .493a.5.5 0 0 0 1 0h-1Zm0-70.507a.5.5 0 0 0 1 0h-1Zm1 4.93a.5.5 0 0 0-1 0h1Zm-1 .987a.5.5 0 1 0 1 0h-1Zm1 4.93a.5.5 0 1 0-1 0h1Zm-1 .986a.5.5 0 0 0 1 0h-1Zm1 4.93a.5.5 0 0 0-1 0h1Zm-1 .987a.5.5 0 0 0 1 0h-1Zm1 4.93a.5.5 0 0 0-1 0h1Zm-1 .987a.5.5 0 1 0 1 0h-1Zm1 4.93a.5.5 0 1 0-1 0h1Zm-1 .986a.5.5 0 0 0 1 0h-1Zm1 4.93a.5.5 0 0 0-1 0h1Zm-1 .987a.5.5 0 0 0 1 0h-1Zm1 4.93a.5.5 0 0 0-1 0h1Zm-1 .987a.5.5 0 1 0 1 0h-1Zm1 4.93a.5.5 0 1 0-1 0h1Zm-1 .986a.5.5 0 0 0 1 0h-1Zm1 4.93a.5.5 0 0 0-1 0h1Zm-1 .987a.5.5 0 1 0 1 0h-1Zm1 4.93a.5.5 0 0 0-1 0h1Zm-1 .987a.5.5 0 1 0 1 0h-1Zm1 4.93a.5.5 0 1 0-1 0h1Zm-1 .986a.5.5 0 0 0 1 0h-1Zm1 4.93a.5.5 0 0 0-1 0h1ZM39.5 4v.493h1V4h-1Zm0 5.424v.986h1v-.986h-1Zm0 5.916v.986h1v-.986h-1Zm0 5.917v.986h1v-.986h-1Zm0 5.917v.986h1v-.986h-1Zm0 5.916v.986h1v-.986h-1Zm0 5.917v.986h1v-.986h-1Zm0 5.917v.986h1v-.986h-1Zm0 5.916v.986h1v-.986h-1Zm0 5.917v.986h1v-.986h-1Zm0 5.917v.986h1v-.986h-1Zm0 5.916v.986h1v-.986h-1Zm0 5.917V75h1v-.493h-1Z" fill="#390C20" style="mix-blend-mode:lighten"/>
  <path d="m39.556 77.553a0.5 0.5 0 0 1 0.866 0l5.63 9.75a0.5 0.5 0 0 1-0.434 0.75h-11.258a0.5 0.5 0 0 1-0.433-0.75z" stroke="#390c20" stroke-linejoin="round" stroke-width=".1"/>
 </g>
 <g filter="url(#b)" opacity=".75" style="mix-blend-mode:lighten">
  <path d="M887.5 136a.5.5 0 0 0 1 0h-1Zm0-134.51a.5.5 0 0 0 1 0h-1Zm1 4.89a.5.5 0 0 0-1 0h1Zm-1 .979a.5.5 0 0 0 1 0h-1Zm1 4.891a.5.5 0 0 0-1 0h1Zm-1 .978a.5.5 0 0 0 1 0h-1Zm1 4.892a.5.5 0 0 0-1 0h1Zm-1 .978a.5.5 0 0 0 1 0h-1Zm1 4.891a.5.5 0 0 0-1 0h1Zm-1 .978a.5.5 0 0 0 1 0h-1Zm1 4.892a.5.5 0 0 0-1 0h1Zm-1 .978a.5.5 0 0 0 1 0h-1Zm1 4.891a.5.5 0 0 0-1 0h1Zm-1 .978a.5.5 0 0 0 1 0h-1Zm1 4.892a.5.5 0 0 0-1 0h1Zm-1 .978a.5.5 0 0 0 1 0h-1Zm1 4.891a.5.5 0 0 0-1 0h1Zm-1 .979a.5.5 0 0 0 1 0h-1Zm1 4.891a.5.5 0 0 0-1 0h1Zm-1 .978a.5.5 0 0 0 1 0h-1Zm1 4.892a.5.5 0 0 0-1 0h1Zm-1 .978a.5.5 0 0 0 1 0h-1Zm1 4.891a.5.5 0 0 0-1 0h1Zm-1 .978a.5.5 0 0 0 1 0h-1Zm1 4.892a.5.5 0 0 0-1 0h1Zm-1 .978a.5.5 0 0 0 1 0h-1Zm1 4.891a.5.5 0 0 0-1 0h1Zm-1 .978a.5.5 0 0 0 1 0h-1Zm1 4.892a.5.5 0 0 0-1 0h1Zm-1 .978a.5.5 0 0 0 1 0h-1Zm1 4.891a.5.5 0 0 0-1 0h1Zm-1 .979a.5.5 0 0 0 1 0h-1Zm1 4.89a.5.5 0 0 0-1 0h1Zm-1 .98a.5.5 0 0 0 1 0h-1Zm1 4.89a.5.5 0 0 0-1 0h1Zm-1 .979a.5.5 0 0 0 1 0h-1Zm1 4.891a.5.5 0 0 0-1 0h1Zm-1 .978a.5.5 0 0 0 1 0h-1Zm1 4.892a.5.5 0 1 0-1 0h1Zm-1 .978a.5.5 0 0 0 1 0h-1Zm1 4.891a.5.5 0 0 0-1 0h1Zm-1 .978a.5.5 0 1 0 1 0h-1Zm1 4.892a.5.5 0 0 0-1 0h1Zm-1 .978a.5.5 0 0 0 1 0h-1Zm1 4.891a.5.5 0 0 0-1 0h1Zm-1 .979a.5.5 0 0 0 1 0h-1Zm1 4.891a.5.5 0 0 0-1 0h1ZM887.5 1v.49h1V1h-1Zm0 5.38v.979h1V6.38h-1Zm0 5.87v.978h1v-.978h-1Zm0 5.87v.978h1v-.978h-1Zm0 5.87v.977h1v-.978h-1Zm0 5.869v.978h1v-.978h-1Zm0 5.87v.977h1v-.978h-1Zm0 5.869v.978h1v-.978h-1Zm0 5.87v.978h1v-.979h-1Zm0 5.869v.978h1v-.978h-1Zm0 5.87v.978h1v-.979h-1Zm0 5.87v.977h1v-.978h-1Zm0 5.869v.978h1v-.978h-1Zm0 5.87v.977h1v-.978h-1Zm0 5.869v.978h1v-.978h-1Zm0 5.87v.978h1v-.979h-1Zm0 5.869v.978h1v-.978h-1Zm0 5.869v.979h1v-.979h-1Zm0 5.87v.978h1v-.978h-1Zm0 5.87v.978h1v-.978h-1Zm0 5.869v.978h1v-.978h-1Zm0 5.87v.978h1v-.978h-1Zm0 5.869v.979h1v-.979h-1Zm0 5.87V136h1v-.489h-1Zm0 .489a.5.5 0 0 0 1 0h-1Zm0-134.51a.5.5 0 0 0 1 0h-1Zm1 4.89a.5.5 0 0 0-1 0h1Zm-1 .979a.5.5 0 0 0 1 0h-1Zm1 4.891a.5.5 0 0 0-1 0h1Zm-1 .978a.5.5 0 0 0 1 0h-1Zm1 4.892a.5.5 0 0 0-1 0h1Zm-1 .978a.5.5 0 0 0 1 0h-1Zm1 4.891a.5.5 0 0 0-1 0h1Zm-1 .978a.5.5 0 0 0 1 0h-1Zm1 4.892a.5.5 0 0 0-1 0h1Zm-1 .978a.5.5 0 0 0 1 0h-1Zm1 4.891a.5.5 0 0 0-1 0h1Zm-1 .978a.5.5 0 0 0 1 0h-1Zm1 4.892a.5.5 0 0 0-1 0h1Zm-1 .978a.5.5 0 0 0 1 0h-1Zm1 4.891a.5.5 0 0 0-1 0h1Zm-1 .979a.5.5 0 0 0 1 0h-1Zm1 4.891a.5.5 0 0 0-1 0h1Zm-1 .978a.5.5 0 0 0 1 0h-1Zm1 4.892a.5.5 0 0 0-1 0h1Zm-1 .978a.5.5 0 0 0 1 0h-1Zm1 4.891a.5.5 0 0 0-1 0h1Zm-1 .978a.5.5 0 0 0 1 0h-1Zm1 4.892a.5.5 0 0 0-1 0h1Zm-1 .978a.5.5 0 0 0 1 0h-1Zm1 4.891a.5.5 0 0 0-1 0h1Zm-1 .978a.5.5 0 0 0 1 0h-1Zm1 4.892a.5.5 0 0 0-1 0h1Zm-1 .978a.5.5 0 0 0 1 0h-1Zm1 4.891a.5.5 0 0 0-1 0h1Zm-1 .979a.5.5 0 0 0 1 0h-1Zm1 4.89a.5.5 0 0 0-1 0h1Zm-1 .98a.5.5 0 0 0 1 0h-1Zm1 4.89a.5.5 0 0 0-1 0h1Zm-1 .979a.5.5 0 0 0 1 0h-1Zm1 4.891a.5.5 0 0 0-1 0h1Zm-1 .978a.5.5 0 0 0 1 0h-1Zm1 4.892a.5.5 0 1 0-1 0h1Zm-1 .978a.5.5 0 0 0 1 0h-1Zm1 4.891a.5.5 0 0 0-1 0h1Zm-1 .978a.5.5 0 1 0 1 0h-1Zm1 4.892a.5.5 0 0 0-1 0h1Zm-1 .978a.5.5 0 0 0 1 0h-1Zm1 4.891a.5.5 0 0 0-1 0h1Zm-1 .979a.5.5 0 0 0 1 0h-1Zm1 4.891a.5.5 0 0 0-1 0h1ZM887.5 1v.49h1V1h-1Zm0 5.38v.979h1V6.38h-1Zm0 5.87v.978h1v-.978h-1Zm0 5.87v.978h1v-.978h-1Zm0 5.87v.977h1v-.978h-1Zm0 5.869v.978h1v-.978h-1Zm0 5.87v.977h1v-.978h-1Zm0 5.869v.978h1v-.978h-1Zm0 5.87v.978h1v-.979h-1Zm0 5.869v.978h1v-.978h-1Zm0 5.87v.978h1v-.979h-1Zm0 5.87v.977h1v-.978h-1Zm0 5.869v.978h1v-.978h-1Zm0 5.87v.977h1v-.978h-1Zm0 5.869v.978h1v-.978h-1Zm0 5.87v.978h1v-.979h-1Zm0 5.869v.978h1v-.978h-1Zm0 5.869v.979h1v-.979h-1Zm0 5.87v.978h1v-.978h-1Zm0 5.87v.978h1v-.978h-1Zm0 5.869v.978h1v-.978h-1Zm0 5.87v.978h1v-.978h-1Zm0 5.869v.979h1v-.979h-1Zm0 5.87V136h1v-.489h-1Z" fill="#1F1F1F" style="mix-blend-mode:lighten"/>
  <path d="m887.65 138.17a0.5 0.5 0 0 1 0.866 0l5.629 9.75a0.5 0.5 0 0 1-0.433 0.75h-11.258a0.5 0.5 0 0 1-0.433-0.75z" stroke="#1f1f1f" stroke-linejoin="round" stroke-width=".1"/>
 </g>
 <g filter="url(#c)" style="mix-blend-mode:lighten">
  <path d="M938.5 136a.5.5 0 0 0 1 0h-1Zm0-134.51a.5.5 0 0 0 1 0h-1Zm1 4.89a.5.5 0 0 0-1 0h1Zm-1 .979a.5.5 0 0 0 1 0h-1Zm1 4.891a.5.5 0 0 0-1 0h1Zm-1 .978a.5.5 0 0 0 1 0h-1Zm1 4.892a.5.5 0 0 0-1 0h1Zm-1 .978a.5.5 0 0 0 1 0h-1Zm1 4.891a.5.5 0 0 0-1 0h1Zm-1 .978a.5.5 0 0 0 1 0h-1Zm1 4.892a.5.5 0 0 0-1 0h1Zm-1 .978a.5.5 0 0 0 1 0h-1Zm1 4.891a.5.5 0 0 0-1 0h1Zm-1 .978a.5.5 0 0 0 1 0h-1Zm1 4.892a.5.5 0 0 0-1 0h1Zm-1 .978a.5.5 0 0 0 1 0h-1Zm1 4.891a.5.5 0 0 0-1 0h1Zm-1 .979a.5.5 0 0 0 1 0h-1Zm1 4.891a.5.5 0 0 0-1 0h1Zm-1 .978a.5.5 0 0 0 1 0h-1Zm1 4.892a.5.5 0 0 0-1 0h1Zm-1 .978a.5.5 0 0 0 1 0h-1Zm1 4.891a.5.5 0 0 0-1 0h1Zm-1 .978a.5.5 0 0 0 1 0h-1Zm1 4.892a.5.5 0 0 0-1 0h1Zm-1 .978a.5.5 0 0 0 1 0h-1Zm1 4.891a.5.5 0 0 0-1 0h1Zm-1 .978a.5.5 0 0 0 1 0h-1Zm1 4.892a.5.5 0 0 0-1 0h1Zm-1 .978a.5.5 0 0 0 1 0h-1Zm1 4.891a.5.5 0 0 0-1 0h1Zm-1 .979a.5.5 0 0 0 1 0h-1Zm1 4.89a.5.5 0 0 0-1 0h1Zm-1 .98a.5.5 0 0 0 1 0h-1Zm1 4.89a.5.5 0 0 0-1 0h1Zm-1 .979a.5.5 0 0 0 1 0h-1Zm1 4.891a.5.5 0 0 0-1 0h1Zm-1 .978a.5.5 0 0 0 1 0h-1Zm1 4.892a.5.5 0 1 0-1 0h1Zm-1 .978a.5.5 0 0 0 1 0h-1Zm1 4.891a.5.5 0 0 0-1 0h1Zm-1 .978a.5.5 0 1 0 1 0h-1Zm1 4.892a.5.5 0 0 0-1 0h1Zm-1 .978a.5.5 0 0 0 1 0h-1Zm1 4.891a.5.5 0 0 0-1 0h1Zm-1 .979a.5.5 0 0 0 1 0h-1Zm1 4.891a.5.5 0 0 0-1 0h1ZM938.5 1v.49h1V1h-1Zm0 5.38v.979h1V6.38h-1Zm0 5.87v.978h1v-.978h-1Zm0 5.87v.978h1v-.978h-1Zm0 5.87v.977h1v-.978h-1Zm0 5.869v.978h1v-.978h-1Zm0 5.87v.977h1v-.978h-1Zm0 5.869v.978h1v-.978h-1Zm0 5.87v.978h1v-.979h-1Zm0 5.869v.978h1v-.978h-1Zm0 5.87v.978h1v-.979h-1Zm0 5.87v.977h1v-.978h-1Zm0 5.869v.978h1v-.978h-1Zm0 5.87v.977h1v-.978h-1Zm0 5.869v.978h1v-.978h-1Zm0 5.87v.978h1v-.979h-1Zm0 5.869v.978h1v-.978h-1Zm0 5.869v.979h1v-.979h-1Zm0 5.87v.978h1v-.978h-1Zm0 5.87v.978h1v-.978h-1Zm0 5.869v.978h1v-.978h-1Zm0 5.87v.978h1v-.978h-1Zm0 5.869v.979h1v-.979h-1Zm0 5.87V136h1v-.489h-1Zm0 .489a.5.5 0 0 0 1 0h-1Zm0-134.51a.5.5 0 0 0 1 0h-1Zm1 4.89a.5.5 0 0 0-1 0h1Zm-1 .979a.5.5 0 0 0 1 0h-1Zm1 4.891a.5.5 0 0 0-1 0h1Zm-1 .978a.5.5 0 0 0 1 0h-1Zm1 4.892a.5.5 0 0 0-1 0h1Zm-1 .978a.5.5 0 0 0 1 0h-1Zm1 4.891a.5.5 0 0 0-1 0h1Zm-1 .978a.5.5 0 0 0 1 0h-1Zm1 4.892a.5.5 0 0 0-1 0h1Zm-1 .978a.5.5 0 0 0 1 0h-1Zm1 4.891a.5.5 0 0 0-1 0h1Zm-1 .978a.5.5 0 0 0 1 0h-1Zm1 4.892a.5.5 0 0 0-1 0h1Zm-1 .978a.5.5 0 0 0 1 0h-1Zm1 4.891a.5.5 0 0 0-1 0h1Zm-1 .979a.5.5 0 0 0 1 0h-1Zm1 4.891a.5.5 0 0 0-1 0h1Zm-1 .978a.5.5 0 0 0 1 0h-1Zm1 4.892a.5.5 0 0 0-1 0h1Zm-1 .978a.5.5 0 0 0 1 0h-1Zm1 4.891a.5.5 0 0 0-1 0h1Zm-1 .978a.5.5 0 0 0 1 0h-1Zm1 4.892a.5.5 0 0 0-1 0h1Zm-1 .978a.5.5 0 0 0 1 0h-1Zm1 4.891a.5.5 0 0 0-1 0h1Zm-1 .978a.5.5 0 0 0 1 0h-1Zm1 4.892a.5.5 0 0 0-1 0h1Zm-1 .978a.5.5 0 0 0 1 0h-1Zm1 4.891a.5.5 0 0 0-1 0h1Zm-1 .979a.5.5 0 0 0 1 0h-1Zm1 4.89a.5.5 0 0 0-1 0h1Zm-1 .98a.5.5 0 0 0 1 0h-1Zm1 4.89a.5.5 0 0 0-1 0h1Zm-1 .979a.5.5 0 0 0 1 0h-1Zm1 4.891a.5.5 0 0 0-1 0h1Zm-1 .978a.5.5 0 0 0 1 0h-1Zm1 4.892a.5.5 0 1 0-1 0h1Zm-1 .978a.5.5 0 0 0 1 0h-1Zm1 4.891a.5.5 0 0 0-1 0h1Zm-1 .978a.5.5 0 1 0 1 0h-1Zm1 4.892a.5.5 0 0 0-1 0h1Zm-1 .978a.5.5 0 0 0 1 0h-1Zm1 4.891a.5.5 0 0 0-1 0h1Zm-1 .979a.5.5 0 0 0 1 0h-1Zm1 4.891a.5.5 0 0 0-1 0h1ZM938.5 1v.49h1V1h-1Zm0 5.38v.979h1V6.38h-1Zm0 5.87v.978h1v-.978h-1Zm0 5.87v.978h1v-.978h-1Zm0 5.87v.977h1v-.978h-1Zm0 5.869v.978h1v-.978h-1Zm0 5.87v.977h1v-.978h-1Zm0 5.869v.978h1v-.978h-1Zm0 5.87v.978h1v-.979h-1Zm0 5.869v.978h1v-.978h-1Zm0 5.87v.978h1v-.979h-1Zm0 5.87v.977h1v-.978h-1Zm0 5.869v.978h1v-.978h-1Zm0 5.87v.977h1v-.978h-1Zm0 5.869v.978h1v-.978h-1Zm0 5.87v.978h1v-.979h-1Zm0 5.869v.978h1v-.978h-1Zm0 5.869v.979h1v-.979h-1Zm0 5.87v.978h1v-.978h-1Zm0 5.87v.978h1v-.978h-1Zm0 5.869v.978h1v-.978h-1Zm0 5.87v.978h1v-.978h-1Zm0 5.869v.979h1v-.979h-1Zm0 5.87V136h1v-.489h-1Z" fill="#2D0A36" style="mix-blend-mode:lighten"/>
  <path d="m938.59 138.43a0.5 0.5 0 0 1 0.866 0l5.629 9.75a0.5 0.5 0 0 1-0.433 0.75h-11.258a0.5 0.5 0 0 1-0.433-0.75z" stroke="#2d0a36" stroke-linejoin="round" stroke-width=".1"/>
 </g>
 <g filter="url(#d)" style="mix-blend-mode:lighten">
  <path d="M1141.5 259c0 .276.22.5.5.5s.5-.224.5-.5h-1Zm0-257.5c0 .276.22.5.5.5s.5-.224.5-.5h-1Zm1 5c0-.276-.22-.5-.5-.5s-.5.224-.5.5h1Zm-1 1c0 .276.22.5.5.5s.5-.224.5-.5h-1Zm1 5c0-.276-.22-.5-.5-.5s-.5.224-.5.5h1Zm-1 1c0 .276.22.5.5.5s.5-.224.5-.5h-1Zm1 5c0-.276-.22-.5-.5-.5s-.5.224-.5.5h1Zm-1 1c0 .276.22.5.5.5s.5-.224.5-.5h-1Zm1 5c0-.276-.22-.5-.5-.5s-.5.224-.5.5h1Zm-1 1c0 .276.22.5.5.5s.5-.224.5-.5h-1Zm1 5c0-.276-.22-.5-.5-.5s-.5.224-.5.5h1Zm-1 1c0 .276.22.5.5.5s.5-.224.5-.5h-1Zm1 5c0-.276-.22-.5-.5-.5s-.5.224-.5.5h1Zm-1 1c0 .276.22.5.5.5s.5-.224.5-.5h-1Zm1 5c0-.276-.22-.5-.5-.5s-.5.224-.5.5h1Zm-1 1c0 .276.22.5.5.5s.5-.224.5-.5h-1Zm1 5c0-.276-.22-.5-.5-.5s-.5.224-.5.5h1Zm-1 1c0 .276.22.5.5.5s.5-.224.5-.5h-1Zm1 5c0-.276-.22-.5-.5-.5s-.5.224-.5.5h1Zm-1 1c0 .276.22.5.5.5s.5-.224.5-.5h-1Zm1 5c0-.276-.22-.5-.5-.5s-.5.224-.5.5h1Zm-1 1c0 .276.22.5.5.5s.5-.224.5-.5h-1Zm1 5c0-.276-.22-.5-.5-.5s-.5.224-.5.5h1Zm-1 1c0 .276.22.5.5.5s.5-.224.5-.5h-1Zm1 5c0-.276-.22-.5-.5-.5s-.5.224-.5.5h1Zm-1 1c0 .276.22.5.5.5s.5-.224.5-.5h-1Zm1 5c0-.276-.22-.5-.5-.5s-.5.224-.5.5h1Zm-1 1c0 .276.22.5.5.5s.5-.224.5-.5h-1Zm1 5c0-.276-.22-.5-.5-.5s-.5.224-.5.5h1Zm-1 1c0 .276.22.5.5.5s.5-.224.5-.5h-1Zm1 5c0-.276-.22-.5-.5-.5s-.5.224-.5.5h1Zm-1 1c0 .276.22.5.5.5s.5-.224.5-.5h-1Zm1 5c0-.276-.22-.5-.5-.5s-.5.224-.5.5h1Zm-1 1c0 .276.22.5.5.5s.5-.224.5-.5h-1Zm1 5c0-.276-.22-.5-.5-.5s-.5.224-.5.5h1Zm-1 1c0 .276.22.5.5.5s.5-.224.5-.5h-1Zm1 5c0-.276-.22-.5-.5-.5s-.5.224-.5.5h1Zm-1 1c0 .276.22.5.5.5s.5-.224.5-.5h-1Zm1 5c0-.276-.22-.5-.5-.5s-.5.224-.5.5h1Zm-1 1c0 .276.22.5.5.5s.5-.224.5-.5h-1Zm1 5c0-.276-.22-.5-.5-.5s-.5.224-.5.5h1Zm-1 1c0 .276.22.5.5.5s.5-.224.5-.5h-1Zm1 5c0-.276-.22-.5-.5-.5s-.5.224-.5.5h1Zm-1 1c0 .276.22.5.5.5s.5-.224.5-.5h-1Zm1 5c0-.276-.22-.5-.5-.5s-.5.224-.5.5h1Zm-1 1c0 .276.22.5.5.5s.5-.224.5-.5h-1Zm1 5c0-.276-.22-.5-.5-.5s-.5.224-.5.5h1Zm-1 1c0 .276.22.5.5.5s.5-.224.5-.5h-1Zm1 5c0-.276-.22-.5-.5-.5s-.5.224-.5.5h1Zm-1 1c0 .276.22.5.5.5s.5-.224.5-.5h-1Zm1 5c0-.276-.22-.5-.5-.5s-.5.224-.5.5h1Zm-1 1c0 .276.22.5.5.5s.5-.224.5-.5h-1Zm1 5c0-.276-.22-.5-.5-.5s-.5.224-.5.5h1Zm-1 1c0 .276.22.5.5.5s.5-.224.5-.5h-1Zm1 5c0-.276-.22-.5-.5-.5s-.5.224-.5.5h1Zm-1 1c0 .276.22.5.5.5s.5-.224.5-.5h-1Zm1 5c0-.276-.22-.5-.5-.5s-.5.224-.5.5h1Zm-1 1c0 .276.22.5.5.5s.5-.224.5-.5h-1Zm1 5c0-.276-.22-.5-.5-.5s-.5.224-.5.5h1Zm-1 1c0 .276.22.5.5.5s.5-.224.5-.5h-1Zm1 5c0-.276-.22-.5-.5-.5s-.5.224-.5.5h1Zm-1 1c0 .276.22.5.5.5s.5-.224.5-.5h-1Zm1 5c0-.276-.22-.5-.5-.5s-.5.224-.5.5h1Zm-1 1c0 .276.22.5.5.5s.5-.224.5-.5h-1Zm1 5c0-.276-.22-.5-.5-.5s-.5.224-.5.5h1Zm-1 1c0 .276.22.5.5.5s.5-.224.5-.5h-1Zm1 5c0-.276-.22-.5-.5-.5s-.5.224-.5.5h1Zm-1 1c0 .276.22.5.5.5s.5-.224.5-.5h-1Zm1 5c0-.276-.22-.5-.5-.5s-.5.224-.5.5h1Zm-1 1c0 .276.22.5.5.5s.5-.224.5-.5h-1Zm1 5c0-.276-.22-.5-.5-.5s-.5.224-.5.5h1Zm-1 1c0 .276.22.5.5.5s.5-.224.5-.5h-1Zm1 5c0-.276-.22-.5-.5-.5s-.5.224-.5.5h1Zm-1 1c0 .276.22.5.5.5s.5-.224.5-.5h-1Zm1 5c0-.276-.22-.5-.5-.5s-.5.224-.5.5h1Zm-1 1c0 .276.22.5.5.5s.5-.224.5-.5h-1Zm1 5c0-.276-.22-.5-.5-.5s-.5.224-.5.5h1Zm-1 1c0 .276.22.5.5.5s.5-.224.5-.5h-1Zm1 5c0-.276-.22-.5-.5-.5s-.5.224-.5.5h1Zm-1 1c0 .276.22.5.5.5s.5-.224.5-.5h-1Zm1 5c0-.276-.22-.5-.5-.5s-.5.224-.5.5h1Zm-1 1c0 .276.22.5.5.5s.5-.224.5-.5h-1Zm1 5c0-.276-.22-.5-.5-.5s-.5.224-.5.5h1Zm-1 1c0 .276.22.5.5.5s.5-.224.5-.5h-1Zm1 5c0-.276-.22-.5-.5-.5s-.5.224-.5.5h1Zm-1 1c0 .276.22.5.5.5s.5-.224.5-.5h-1Zm1 5c0-.276-.22-.5-.5-.5s-.5.224-.5.5h1Zm-1-257.5v.5h1V1h-1Zm0 5.5v1h1v-1h-1Zm0 6v1h1v-1h-1Zm0 6v1h1v-1h-1Zm0 6v1h1v-1h-1Zm0 6v1h1v-1h-1Zm0 6v1h1v-1h-1Zm0 6v1h1v-1h-1Zm0 6v1h1v-1h-1Zm0 6v1h1v-1h-1Zm0 6v1h1v-1h-1Zm0 6v1h1v-1h-1Zm0 6v1h1v-1h-1Zm0 6v1h1v-1h-1Zm0 6v1h1v-1h-1Zm0 6v1h1v-1h-1Zm0 6v1h1v-1h-1Zm0 6v1h1v-1h-1Zm0 6v1h1v-1h-1Zm0 6v1h1v-1h-1Zm0 6v1h1v-1h-1Zm0 6v1h1v-1h-1Zm0 6v1h1v-1h-1Zm0 6v1h1v-1h-1Zm0 6v1h1v-1h-1Zm0 6v1h1v-1h-1Zm0 6v1h1v-1h-1Zm0 6v1h1v-1h-1Zm0 6v1h1v-1h-1Zm0 6v1h1v-1h-1Zm0 6v1h1v-1h-1Zm0 6v1h1v-1h-1Zm0 6v1h1v-1h-1Zm0 6v1h1v-1h-1Zm0 6v1h1v-1h-1Zm0 6v1h1v-1h-1Zm0 6v1h1v-1h-1Zm0 6v1h1v-1h-1Zm0 6v1h1v-1h-1Zm0 6v1h1v-1h-1Zm0 6v1h1v-1h-1Zm0 6v1h1v-1h-1Zm0 6v1h1v-1h-1Zm0 6v.5h1v-.5h-1Zm0 .5c0 .276.22.5.5.5s.5-.224.5-.5h-1Zm0-257.5c0 .276.22.5.5.5s.5-.224.5-.5h-1Zm1 5c0-.276-.22-.5-.5-.5s-.5.224-.5.5h1Zm-1 1c0 .276.22.5.5.5s.5-.224.5-.5h-1Zm1 5c0-.276-.22-.5-.5-.5s-.5.224-.5.5h1Zm-1 1c0 .276.22.5.5.5s.5-.224.5-.5h-1Zm1 5c0-.276-.22-.5-.5-.5s-.5.224-.5.5h1Zm-1 1c0 .276.22.5.5.5s.5-.224.5-.5h-1Zm1 5c0-.276-.22-.5-.5-.5s-.5.224-.5.5h1Zm-1 1c0 .276.22.5.5.5s.5-.224.5-.5h-1Zm1 5c0-.276-.22-.5-.5-.5s-.5.224-.5.5h1Zm-1 1c0 .276.22.5.5.5s.5-.224.5-.5h-1Zm1 5c0-.276-.22-.5-.5-.5s-.5.224-.5.5h1Zm-1 1c0 .276.22.5.5.5s.5-.224.5-.5h-1Zm1 5c0-.276-.22-.5-.5-.5s-.5.224-.5.5h1Zm-1 1c0 .276.22.5.5.5s.5-.224.5-.5h-1Zm1 5c0-.276-.22-.5-.5-.5s-.5.224-.5.5h1Zm-1 1c0 .276.22.5.5.5s.5-.224.5-.5h-1Zm1 5c0-.276-.22-.5-.5-.5s-.5.224-.5.5h1Zm-1 1c0 .276.22.5.5.5s.5-.224.5-.5h-1Zm1 5c0-.276-.22-.5-.5-.5s-.5.224-.5.5h1Zm-1 1c0 .276.22.5.5.5s.5-.224.5-.5h-1Zm1 5c0-.276-.22-.5-.5-.5s-.5.224-.5.5h1Zm-1 1c0 .276.22.5.5.5s.5-.224.5-.5h-1Zm1 5c0-.276-.22-.5-.5-.5s-.5.224-.5.5h1Zm-1 1c0 .276.22.5.5.5s.5-.224.5-.5h-1Zm1 5c0-.276-.22-.5-.5-.5s-.5.224-.5.5h1Zm-1 1c0 .276.22.5.5.5s.5-.224.5-.5h-1Zm1 5c0-.276-.22-.5-.5-.5s-.5.224-.5.5h1Zm-1 1c0 .276.22.5.5.5s.5-.224.5-.5h-1Zm1 5c0-.276-.22-.5-.5-.5s-.5.224-.5.5h1Zm-1 1c0 .276.22.5.5.5s.5-.224.5-.5h-1Zm1 5c0-.276-.22-.5-.5-.5s-.5.224-.5.5h1Zm-1 1c0 .276.22.5.5.5s.5-.224.5-.5h-1Zm1 5c0-.276-.22-.5-.5-.5s-.5.224-.5.5h1Zm-1 1c0 .276.22.5.5.5s.5-.224.5-.5h-1Zm1 5c0-.276-.22-.5-.5-.5s-.5.224-.5.5h1Zm-1 1c0 .276.22.5.5.5s.5-.224.5-.5h-1Zm1 5c0-.276-.22-.5-.5-.5s-.5.224-.5.5h1Zm-1 1c0 .276.22.5.5.5s.5-.224.5-.5h-1Zm1 5c0-.276-.22-.5-.5-.5s-.5.224-.5.5h1Zm-1 1c0 .276.22.5.5.5s.5-.224.5-.5h-1Zm1 5c0-.276-.22-.5-.5-.5s-.5.224-.5.5h1Zm-1 1c0 .276.22.5.5.5s.5-.224.5-.5h-1Zm1 5c0-.276-.22-.5-.5-.5s-.5.224-.5.5h1Zm-1 1c0 .276.22.5.5.5s.5-.224.5-.5h-1Zm1 5c0-.276-.22-.5-.5-.5s-.5.224-.5.5h1Zm-1 1c0 .276.22.5.5.5s.5-.224.5-.5h-1Zm1 5c0-.276-.22-.5-.5-.5s-.5.224-.5.5h1Zm-1 1c0 .276.22.5.5.5s.5-.224.5-.5h-1Zm1 5c0-.276-.22-.5-.5-.5s-.5.224-.5.5h1Zm-1 1c0 .276.22.5.5.5s.5-.224.5-.5h-1Zm1 5c0-.276-.22-.5-.5-.5s-.5.224-.5.5h1Zm-1 1c0 .276.22.5.5.5s.5-.224.5-.5h-1Zm1 5c0-.276-.22-.5-.5-.5s-.5.224-.5.5h1Zm-1 1c0 .276.22.5.5.5s.5-.224.5-.5h-1Zm1 5c0-.276-.22-.5-.5-.5s-.5.224-.5.5h1Zm-1 1c0 .276.22.5.5.5s.5-.224.5-.5h-1Zm1 5c0-.276-.22-.5-.5-.5s-.5.224-.5.5h1Zm-1 1c0 .276.22.5.5.5s.5-.224.5-.5h-1Zm1 5c0-.276-.22-.5-.5-.5s-.5.224-.5.5h1Zm-1 1c0 .276.22.5.5.5s.5-.224.5-.5h-1Zm1 5c0-.276-.22-.5-.5-.5s-.5.224-.5.5h1Zm-1 1c0 .276.22.5.5.5s.5-.224.5-.5h-1Zm1 5c0-.276-.22-.5-.5-.5s-.5.224-.5.5h1Zm-1 1c0 .276.22.5.5.5s.5-.224.5-.5h-1Zm1 5c0-.276-.22-.5-.5-.5s-.5.224-.5.5h1Zm-1 1c0 .276.22.5.5.5s.5-.224.5-.5h-1Zm1 5c0-.276-.22-.5-.5-.5s-.5.224-.5.5h1Zm-1 1c0 .276.22.5.5.5s.5-.224.5-.5h-1Zm1 5c0-.276-.22-.5-.5-.5s-.5.224-.5.5h1Zm-1 1c0 .276.22.5.5.5s.5-.224.5-.5h-1Zm1 5c0-.276-.22-.5-.5-.5s-.5.224-.5.5h1Zm-1 1c0 .276.22.5.5.5s.5-.224.5-.5h-1Zm1 5c0-.276-.22-.5-.5-.5s-.5.224-.5.5h1Zm-1 1c0 .276.22.5.5.5s.5-.224.5-.5h-1Zm1 5c0-.276-.22-.5-.5-.5s-.5.224-.5.5h1Zm-1 1c0 .276.22.5.5.5s.5-.224.5-.5h-1Zm1 5c0-.276-.22-.5-.5-.5s-.5.224-.5.5h1Zm-1 1c0 .276.22.5.5.5s.5-.224.5-.5h-1Zm1 5c0-.276-.22-.5-.5-.5s-.5.224-.5.5h1Zm-1 1c0 .276.22.5.5.5s.5-.224.5-.5h-1Zm1 5c0-.276-.22-.5-.5-.5s-.5.224-.5.5h1Zm-1 1c0 .276.22.5.5.5s.5-.224.5-.5h-1Zm1 5c0-.276-.22-.5-.5-.5s-.5.224-.5.5h1Zm-1 1c0 .276.22.5.5.5s.5-.224.5-.5h-1Zm1 5c0-.276-.22-.5-.5-.5s-.5.224-.5.5h1Zm-1-257.5v.5h1V1h-1Zm0 5.5v1h1v-1h-1Zm0 6v1h1v-1h-1Zm0 6v1h1v-1h-1Zm0 6v1h1v-1h-1Zm0 6v1h1v-1h-1Zm0 6v1h1v-1h-1Zm0 6v1h1v-1h-1Zm0 6v1h1v-1h-1Zm0 6v1h1v-1h-1Zm0 6v1h1v-1h-1Zm0 6v1h1v-1h-1Zm0 6v1h1v-1h-1Zm0 6v1h1v-1h-1Zm0 6v1h1v-1h-1Zm0 6v1h1v-1h-1Zm0 6v1h1v-1h-1Zm0 6v1h1v-1h-1Zm0 6v1h1v-1h-1Zm0 6v1h1v-1h-1Zm0 6v1h1v-1h-1Zm0 6v1h1v-1h-1Zm0 6v1h1v-1h-1Zm0 6v1h1v-1h-1Zm0 6v1h1v-1h-1Zm0 6v1h1v-1h-1Zm0 6v1h1v-1h-1Zm0 6v1h1v-1h-1Zm0 6v1h1v-1h-1Zm0 6v1h1v-1h-1Zm0 6v1h1v-1h-1Zm0 6v1h1v-1h-1Zm0 6v1h1v-1h-1Zm0 6v1h1v-1h-1Zm0 6v1h1v-1h-1Zm0 6v1h1v-1h-1Zm0 6v1h1v-1h-1Zm0 6v1h1v-1h-1Zm0 6v1h1v-1h-1Zm0 6v1h1v-1h-1Zm0 6v1h1v-1h-1Zm0 6v1h1v-1h-1Zm0 6v1h1v-1h-1Zm0 6v.5h1v-.5h-1Z" fill="#362D0A" style="mix-blend-mode:lighten"/>
 </g>
 <g filter="url(#e)" style="mix-blend-mode:lighten">
  <path d="M1.5 245a.5.5 0 0 0 1 0h-1Zm0-243.504a.5.5 0 1 0 1 0h-1Zm1 4.96a.5.5 0 0 0-1 0h1Zm-1 .991a.5.5 0 1 0 1 0h-1Zm1 4.96a.5.5 0 0 0-1 0h1Zm-1 .991a.5.5 0 0 0 1 0h-1Zm1 4.96a.5.5 0 0 0-1 0h1Zm-1 .992a.5.5 0 0 0 1 0h-1Zm1 4.959a.5.5 0 0 0-1 0h1Zm-1 .992a.5.5 0 1 0 1 0h-1Zm1 4.96a.5.5 0 1 0-1 0h1Zm-1 .991a.5.5 0 1 0 1 0h-1Zm1 4.96a.5.5 0 1 0-1 0h1Zm-1 .991a.5.5 0 0 0 1 0h-1Zm1 4.96a.5.5 0 0 0-1 0h1Zm-1 .992a.5.5 0 0 0 1 0h-1Zm1 4.959a.5.5 0 0 0-1 0h1Zm-1 .992a.5.5 0 0 0 1 0h-1Zm1 4.96a.5.5 0 1 0-1 0h1Zm-1 .99a.5.5 0 1 0 1 0h-1Zm1 4.96a.5.5 0 1 0-1 0h1Zm-1 .992a.5.5 0 1 0 1 0h-1Zm1 4.96a.5.5 0 1 0-1 0h1Zm-1 .991a.5.5 0 0 0 1 0h-1Zm1 4.96a.5.5 0 0 0-1 0h1Zm-1 .992a.5.5 0 0 0 1 0h-1Zm1 4.959a.5.5 0 0 0-1 0h1Zm-1 .992a.5.5 0 0 0 1 0h-1Zm1 4.96a.5.5 0 0 0-1 0h1Zm-1 .991a.5.5 0 0 0 1 0h-1Zm1 4.96a.5.5 0 1 0-1 0h1Zm-1 .991a.5.5 0 1 0 1 0h-1Zm1 4.96a.5.5 0 1 0-1 0h1Zm-1 .991a.5.5 0 1 0 1 0h-1Zm1 4.96a.5.5 0 0 0-1 0h1Zm-1 .992a.5.5 0 0 0 1 0h-1Zm1 4.959a.5.5 0 0 0-1 0h1Zm-1 .992a.5.5 0 0 0 1 0h-1Zm1 4.959a.5.5 0 0 0-1 0h1Zm-1 .992a.5.5 0 0 0 1 0h-1Zm1 4.959a.5.5 0 0 0-1 0h1Zm-1 .992a.5.5 0 0 0 1 0h-1Zm1 4.96a.5.5 0 0 0-1 0h1Zm-1 .992a.5.5 0 0 0 1 0h-1Zm1 4.959a.5.5 0 0 0-1 0h1Zm-1 .992a.5.5 0 0 0 1 0h-1Zm1 4.959a.5.5 0 0 0-1 0h1Zm-1 .992a.5.5 0 0 0 1 0h-1Zm1 4.959a.5.5 0 0 0-1 0h1Zm-1 .992a.5.5 0 0 0 1 0h-1Zm1 4.96a.5.5 0 1 0-1 0h1Zm-1 .991a.5.5 0 1 0 1 0h-1Zm1 4.96a.5.5 0 0 0-1 0h1Zm-1 .992a.5.5 0 0 0 1 0h-1Zm1 4.959a.5.5 0 0 0-1 0h1Zm-1 .992a.5.5 0 0 0 1 0h-1Zm1 4.959a.5.5 0 0 0-1 0h1Zm-1 .992a.5.5 0 0 0 1 0h-1Zm1 4.959a.5.5 0 0 0-1 0h1Zm-1 .992a.5.5 0 0 0 1 0h-1Zm1 4.96a.5.5 0 1 0-1 0h1Zm-1 .991a.5.5 0 1 0 1 0h-1Zm1 4.96a.5.5 0 0 0-1 0h1Zm-1 .992a.5.5 0 0 0 1 0h-1Zm1 4.959a.5.5 0 0 0-1 0h1Zm-1 .992a.5.5 0 0 0 1 0h-1Zm1 4.959a.5.5 0 0 0-1 0h1Zm-1 .992a.5.5 0 0 0 1 0h-1Zm1 4.959a.5.5 0 0 0-1 0h1Zm-1 .992a.5.5 0 0 0 1 0h-1Zm1 4.96a.5.5 0 0 0-1 0h1Zm-1 .992a.5.5 0 0 0 1 0h-1Zm1 4.959a.5.5 0 0 0-1 0h1Zm-1 .992a.5.5 0 0 0 1 0h-1Zm1 4.959a.5.5 0 0 0-1 0h1Zm-1 .992a.5.5 0 0 0 1 0h-1Zm1 4.959a.5.5 0 0 0-1 0h1Zm-1 .992a.5.5 0 0 0 1 0h-1Zm1 4.96a.5.5 0 1 0-1 0h1Zm-1 .991a.5.5 0 1 0 1 0h-1Zm1 4.96a.5.5 0 0 0-1 0h1Zm-1 .992a.5.5 0 0 0 1 0h-1Zm1 4.959a.5.5 0 0 0-1 0h1ZM1.5 1v.496h1V1h-1Zm0 5.455v.992h1v-.992h-1Zm0 5.951v.992h1v-.992h-1Zm0 5.952v.992h1v-.992h-1Zm0 5.95v.993h1v-.992h-1Zm0 5.952v.992h1v-.992h-1Zm0 5.951v.992h1v-.992h-1Zm0 5.952v.992h1v-.992h-1Zm0 5.95v.993h1v-.992h-1Zm0 5.952v.992h1v-.992h-1Zm0 5.951v.992h1v-.992h-1Zm0 5.952v.991h1v-.992h-1Zm0 5.95v.993h1v-.992h-1Zm0 5.952v.992h1v-.992h-1Zm0 5.951v.992h1v-.992h-1Zm0 5.951v.992h1v-.992h-1Zm0 5.952v.991h1v-.991h-1Zm0 5.951v.992h1v-.992h-1Zm0 5.951v.992h1v-.992h-1Zm0 5.951v.992h1v-.992h-1Zm0 5.951v.992h1v-.992h-1Zm0 5.952v.992h1v-.992h-1Zm0 5.951v.992h1v-.992h-1Zm0 5.951v.992h1v-.992h-1Zm0 5.951v.992h1v-.992h-1Zm0 5.952v.991h1v-.991h-1Zm0 5.951v.992h1v-.992h-1Zm0 5.951v.992h1v-.992h-1Zm0 5.951v.992h1v-.992h-1Zm0 5.951v.992h1v-.992h-1Zm0 5.952v.991h1v-.991h-1Zm0 5.951v.992h1v-.992h-1Zm0 5.951v.992h1v-.992h-1Zm0 5.951v.992h1v-.992h-1Zm0 5.951v.992h1v-.992h-1Zm0 5.952v.992h1v-.992h-1Zm0 5.951v.992h1v-.992h-1Zm0 5.951v.992h1v-.992h-1Zm0 5.951v.992h1v-.992h-1Zm0 5.952v.991h1v-.991h-1Zm0 5.951v.992h1v-.992h-1Zm0 5.951V245h1v-.496h-1Zm0 .496a.5.5 0 0 0 1 0h-1Zm0-243.504a.5.5 0 1 0 1 0h-1Zm1 4.96a.5.5 0 0 0-1 0h1Zm-1 .991a.5.5 0 1 0 1 0h-1Zm1 4.96a.5.5 0 0 0-1 0h1Zm-1 .991a.5.5 0 0 0 1 0h-1Zm1 4.96a.5.5 0 0 0-1 0h1Zm-1 .992a.5.5 0 0 0 1 0h-1Zm1 4.959a.5.5 0 0 0-1 0h1Zm-1 .992a.5.5 0 1 0 1 0h-1Zm1 4.96a.5.5 0 1 0-1 0h1Zm-1 .991a.5.5 0 1 0 1 0h-1Zm1 4.96a.5.5 0 1 0-1 0h1Zm-1 .991a.5.5 0 0 0 1 0h-1Zm1 4.96a.5.5 0 0 0-1 0h1Zm-1 .992a.5.5 0 0 0 1 0h-1Zm1 4.959a.5.5 0 0 0-1 0h1Zm-1 .992a.5.5 0 0 0 1 0h-1Zm1 4.96a.5.5 0 1 0-1 0h1Zm-1 .99a.5.5 0 1 0 1 0h-1Zm1 4.96a.5.5 0 1 0-1 0h1Zm-1 .992a.5.5 0 1 0 1 0h-1Zm1 4.96a.5.5 0 1 0-1 0h1Zm-1 .991a.5.5 0 0 0 1 0h-1Zm1 4.96a.5.5 0 0 0-1 0h1Zm-1 .992a.5.5 0 0 0 1 0h-1Zm1 4.959a.5.5 0 0 0-1 0h1Zm-1 .992a.5.5 0 0 0 1 0h-1Zm1 4.96a.5.5 0 0 0-1 0h1Zm-1 .991a.5.5 0 0 0 1 0h-1Zm1 4.96a.5.5 0 1 0-1 0h1Zm-1 .991a.5.5 0 1 0 1 0h-1Zm1 4.96a.5.5 0 1 0-1 0h1Zm-1 .991a.5.5 0 1 0 1 0h-1Zm1 4.96a.5.5 0 0 0-1 0h1Zm-1 .992a.5.5 0 0 0 1 0h-1Zm1 4.959a.5.5 0 0 0-1 0h1Zm-1 .992a.5.5 0 0 0 1 0h-1Zm1 4.959a.5.5 0 0 0-1 0h1Zm-1 .992a.5.5 0 0 0 1 0h-1Zm1 4.959a.5.5 0 0 0-1 0h1Zm-1 .992a.5.5 0 0 0 1 0h-1Zm1 4.96a.5.5 0 0 0-1 0h1Zm-1 .992a.5.5 0 0 0 1 0h-1Zm1 4.959a.5.5 0 0 0-1 0h1Zm-1 .992a.5.5 0 0 0 1 0h-1Zm1 4.959a.5.5 0 0 0-1 0h1Zm-1 .992a.5.5 0 0 0 1 0h-1Zm1 4.959a.5.5 0 0 0-1 0h1Zm-1 .992a.5.5 0 0 0 1 0h-1Zm1 4.96a.5.5 0 1 0-1 0h1Zm-1 .991a.5.5 0 1 0 1 0h-1Zm1 4.96a.5.5 0 0 0-1 0h1Zm-1 .992a.5.5 0 0 0 1 0h-1Zm1 4.959a.5.5 0 0 0-1 0h1Zm-1 .992a.5.5 0 0 0 1 0h-1Zm1 4.959a.5.5 0 0 0-1 0h1Zm-1 .992a.5.5 0 0 0 1 0h-1Zm1 4.959a.5.5 0 0 0-1 0h1Zm-1 .992a.5.5 0 0 0 1 0h-1Zm1 4.96a.5.5 0 1 0-1 0h1Zm-1 .991a.5.5 0 1 0 1 0h-1Zm1 4.96a.5.5 0 0 0-1 0h1Zm-1 .992a.5.5 0 0 0 1 0h-1Zm1 4.959a.5.5 0 0 0-1 0h1Zm-1 .992a.5.5 0 0 0 1 0h-1Zm1 4.959a.5.5 0 0 0-1 0h1Zm-1 .992a.5.5 0 0 0 1 0h-1Zm1 4.959a.5.5 0 0 0-1 0h1Zm-1 .992a.5.5 0 0 0 1 0h-1Zm1 4.96a.5.5 0 0 0-1 0h1Zm-1 .992a.5.5 0 0 0 1 0h-1Zm1 4.959a.5.5 0 0 0-1 0h1Zm-1 .992a.5.5 0 0 0 1 0h-1Zm1 4.959a.5.5 0 0 0-1 0h1Zm-1 .992a.5.5 0 0 0 1 0h-1Zm1 4.959a.5.5 0 0 0-1 0h1Zm-1 .992a.5.5 0 0 0 1 0h-1Zm1 4.96a.5.5 0 1 0-1 0h1Zm-1 .991a.5.5 0 1 0 1 0h-1Zm1 4.96a.5.5 0 0 0-1 0h1Zm-1 .992a.5.5 0 0 0 1 0h-1Zm1 4.959a.5.5 0 0 0-1 0h1ZM1.5 1v.496h1V1h-1Zm0 5.455v.992h1v-.992h-1Zm0 5.951v.992h1v-.992h-1Zm0 5.952v.992h1v-.992h-1Zm0 5.95v.993h1v-.992h-1Zm0 5.952v.992h1v-.992h-1Zm0 5.951v.992h1v-.992h-1Zm0 5.952v.992h1v-.992h-1Zm0 5.95v.993h1v-.992h-1Zm0 5.952v.992h1v-.992h-1Zm0 5.951v.992h1v-.992h-1Zm0 5.952v.991h1v-.992h-1Zm0 5.95v.993h1v-.992h-1Zm0 5.952v.992h1v-.992h-1Zm0 5.951v.992h1v-.992h-1Zm0 5.951v.992h1v-.992h-1Zm0 5.952v.991h1v-.991h-1Zm0 5.951v.992h1v-.992h-1Zm0 5.951v.992h1v-.992h-1Zm0 5.951v.992h1v-.992h-1Zm0 5.951v.992h1v-.992h-1Zm0 5.952v.992h1v-.992h-1Zm0 5.951v.992h1v-.992h-1Zm0 5.951v.992h1v-.992h-1Zm0 5.951v.992h1v-.992h-1Zm0 5.952v.991h1v-.991h-1Zm0 5.951v.992h1v-.992h-1Zm0 5.951v.992h1v-.992h-1Zm0 5.951v.992h1v-.992h-1Zm0 5.951v.992h1v-.992h-1Zm0 5.952v.991h1v-.991h-1Zm0 5.951v.992h1v-.992h-1Zm0 5.951v.992h1v-.992h-1Zm0 5.951v.992h1v-.992h-1Zm0 5.951v.992h1v-.992h-1Zm0 5.952v.992h1v-.992h-1Zm0 5.951v.992h1v-.992h-1Zm0 5.951v.992h1v-.992h-1Zm0 5.951v.992h1v-.992h-1Zm0 5.952v.991h1v-.991h-1Zm0 5.951v.992h1v-.992h-1Zm0 5.951V245h1v-.496h-1Z" fill="url(#f)" style="mix-blend-mode:lighten"/>
 </g>
 <g filter="url(#g)" style="mix-blend-mode:lighten">
  <path d="M282.5 520a.5.5 0 0 0 1 0h-1Zm0-516.499a.5.5 0 0 0 1 0h-1Zm1 5.01a.5.5 0 0 0-1 0h1Zm-1 1.002a.5.5 0 0 0 1 0h-1Zm1 5.01a.5.5 0 0 0-1 0h1Zm-1 1.001a.5.5 0 0 0 1 0h-1Zm1 5.01a.5.5 0 0 0-1 0h1Zm-1 1.002a.5.5 0 0 0 1 0h-1Zm1 5.01a.5.5 0 0 0-1 0h1Zm-1 1.002a.5.5 0 0 0 1 0h-1Zm1 5.01a.5.5 0 0 0-1 0h1Zm-1 1.001a.5.5 0 0 0 1 0h-1Zm1 5.01a.5.5 0 0 0-1 0h1Zm-1 1.002a.5.5 0 0 0 1 0h-1Zm1 5.01a.5.5 0 0 0-1 0h1Zm-1 1.001a.5.5 0 0 0 1 0h-1Zm1 5.01a.5.5 0 0 0-1 0h1Zm-1 1.002a.5.5 0 0 0 1 0h-1Zm1 5.01a.5.5 0 0 0-1 0h1Zm-1 1.002a.5.5 0 0 0 1 0h-1Zm1 5.01a.5.5 0 0 0-1 0h1Zm-1 1.001a.5.5 0 0 0 1 0h-1Zm1 5.01a.5.5 0 0 0-1 0h1Zm-1 1.002a.5.5 0 0 0 1 0h-1Zm1 5.01a.5.5 0 0 0-1 0h1Zm-1 1.002a.5.5 0 0 0 1 0h-1Zm1 5.01a.5.5 0 0 0-1 0h1Zm-1 1.001a.5.5 0 0 0 1 0h-1Zm1 5.01a.5.5 0 0 0-1 0h1Zm-1 1.002a.5.5 0 0 0 1 0h-1Zm1 5.01a.5.5 0 0 0-1 0h1Zm-1 1.001a.5.5 0 0 0 1 0h-1Zm1 5.01a.5.5 0 0 0-1 0h1Zm-1 1.002a.5.5 0 0 0 1 0h-1Zm1 5.01a.5.5 0 0 0-1 0h1Zm-1 1.002a.5.5 0 0 0 1 0h-1Zm1 5.009a.5.5 0 0 0-1 0h1Zm-1 1.002a.5.5 0 0 0 1 0h-1Zm1 5.01a.5.5 0 0 0-1 0h1Zm-1 1.002a.5.5 0 0 0 1 0h-1Zm1 5.01a.5.5 0 1 0-1 0h1Zm-1 1.002a.5.5 0 0 0 1 0h-1Zm1 5.009a.5.5 0 0 0-1 0h1Zm-1 1.002a.5.5 0 0 0 1 0h-1Zm1 5.01a.5.5 0 0 0-1 0h1Zm-1 1.002a.5.5 0 0 0 1 0h-1Zm1 5.009a.5.5 0 0 0-1 0h1Zm-1 1.002a.5.5 0 1 0 1 0h-1Zm1 5.01a.5.5 0 0 0-1 0h1Zm-1 1.002a.5.5 0 0 0 1 0h-1Zm1 5.01a.5.5 0 0 0-1 0h1Zm-1 1.002a.5.5 0 0 0 1 0h-1Zm1 5.009a.5.5 0 0 0-1 0h1Zm-1 1.002a.5.5 0 0 0 1 0h-1Zm1 5.01a.5.5 0 0 0-1 0h1Zm-1 1.002a.5.5 0 0 0 1 0h-1Zm1 5.01a.5.5 0 1 0-1 0h1Zm-1 1.002a.5.5 0 0 0 1 0h-1Zm1 5.009a.5.5 0 0 0-1 0h1Zm-1 1.002a.5.5 0 0 0 1 0h-1Zm1 5.01a.5.5 0 0 0-1 0h1Zm-1 1.002a.5.5 0 0 0 1 0h-1Zm1 5.009a.5.5 0 0 0-1 0h1Zm-1 1.002a.5.5 0 1 0 1 0h-1Zm1 5.01a.5.5 0 0 0-1 0h1Zm-1 1.002a.5.5 0 0 0 1 0h-1Zm1 5.01a.5.5 0 0 0-1 0h1Zm-1 1.002a.5.5 0 0 0 1 0h-1Zm1 5.009a.5.5 0 0 0-1 0h1Zm-1 1.002a.5.5 0 0 0 1 0h-1Zm1 5.01a.5.5 0 0 0-1 0h1Zm-1 1.002a.5.5 0 0 0 1 0h-1Zm1 5.01a.5.5 0 1 0-1 0h1Zm-1 1.002a.5.5 0 0 0 1 0h-1Zm1 5.009a.5.5 0 0 0-1 0h1Zm-1 1.002a.5.5 0 0 0 1 0h-1Zm1 5.01a.5.5 0 0 0-1 0h1Zm-1 1.002a.5.5 0 0 0 1 0h-1Zm1 5.009a.5.5 0 0 0-1 0h1Zm-1 1.002a.5.5 0 1 0 1 0h-1Zm1 5.01a.5.5 0 0 0-1 0h1Zm-1 1.002a.5.5 0 0 0 1 0h-1Zm1 5.01a.5.5 0 0 0-1 0h1Zm-1 1.002a.5.5 0 0 0 1 0h-1Zm1 5.009a.5.5 0 0 0-1 0h1Zm-1 1.002a.5.5 0 0 0 1 0h-1Zm1 5.01a.5.5 0 0 0-1 0h1Zm-1 1.002a.5.5 0 0 0 1 0h-1Zm1 5.01a.5.5 0 0 0-1 0h1Zm-1 1.002a.5.5 0 0 0 1 0h-1Zm1 5.009a.5.5 0 0 0-1 0h1Zm-1 1.002a.5.5 0 0 0 1 0h-1Zm1 5.01a.5.5 0 0 0-1 0h1Zm-1 1.002a.5.5 0 0 0 1 0h-1Zm1 5.01a.5.5 0 0 0-1 0h1Zm-1 1.002a.5.5 0 0 0 1 0h-1Zm1 5.009a.5.5 0 0 0-1 0h1Zm-1 1.002a.5.5 0 0 0 1 0h-1Zm1 5.01a.5.5 0 0 0-1 0h1Zm-1 1.002a.5.5 0 0 0 1 0h-1Zm1 5.01a.5.5 0 1 0-1 0h1Zm-1 1.002a.5.5 0 0 0 1 0h-1Zm1 5.009a.5.5 0 0 0-1 0h1Zm-1 1.002a.5.5 0 0 0 1 0h-1Zm1 5.01a.5.5 0 0 0-1 0h1Zm-1 1.002a.5.5 0 0 0 1 0h-1Zm1 5.01a.5.5 0 1 0-1 0h1Zm-1 1.002a.5.5 0 0 0 1 0h-1Zm1 5.009a.5.5 0 0 0-1 0h1Zm-1 1.002a.5.5 0 0 0 1 0h-1Zm1 5.01a.5.5 0 0 0-1 0h1Zm-1 1.002a.5.5 0 0 0 1 0h-1Zm1 5.01a.5.5 0 1 0-1 0h1Zm-1 1.002a.5.5 0 0 0 1 0h-1Zm1 5.009a.5.5 0 0 0-1 0h1Zm-1 1.002a.5.5 0 0 0 1 0h-1Zm1 5.01a.5.5 0 0 0-1 0h1Zm-1 1.002a.5.5 0 0 0 1 0h-1Zm1 5.01a.5.5 0 1 0-1 0h1Zm-1 1.001a.501.501 0 0 0 1 .001l-1-.001Zm1 5.01a.5.5 0 0 0-1 0h1Zm-1 1.002a.5.5 0 0 0 1 0h-1Zm1 5.01a.5.5 0 0 0-1 0h1Zm-1 1.002a.5.5 0 0 0 1 0h-1Zm1 5.01a.5.5 0 1 0-1 0h1Zm-1 1.001a.5.5 0 1 0 1 0h-1Zm1 5.01a.5.5 0 0 0-1 0h1Zm-1 1.002a.5.5 0 0 0 1 0h-1Zm1 5.01a.5.5 0 0 0-1 0h1Zm-1 1.002a.5.5 0 0 0 1 0h-1Zm1 5.009a.5.5 0 0 0-1 0h1Zm-1 1.002a.5.5 0 1 0 1 0h-1Zm1 5.01a.5.5 0 0 0-1 0h1Zm-1 1.002a.5.5 0 0 0 1 0h-1Zm1 5.01a.5.5 0 0 0-1 0h1Zm-1 1.002a.5.5 0 0 0 1 0h-1Zm1 5.009a.5.5 0 0 0-1 0h1Zm-1 1.002a.5.5 0 1 0 1 0h-1Zm1 5.01a.5.5 0 0 0-1 0h1Zm-1 1.002a.5.5 0 0 0 1 0h-1Zm1 5.01a.5.5 0 0 0-1 0h1Zm-1 1.002a.5.5 0 0 0 1 0h-1Zm1 5.009a.5.5 0 0 0-1 0h1Zm-1 1.002a.5.5 0 1 0 1 0h-1Zm1 5.01a.5.5 0 0 0-1 0h1Zm-1 1.002a.5.5 0 0 0 1 0h-1Zm1 5.01a.5.5 0 0 0-1 0h1Zm-1 1.002a.5.5 0 0 0 1 0h-1Zm1 5.009a.5.5 0 0 0-1 0h1Zm-1 1.002a.5.5 0 0 0 1 0h-1Zm1 5.01a.5.5 0 0 0-1 0h1Zm-1 1.002a.5.5 0 0 0 1 0h-1Zm1 5.01a.5.5 0 0 0-1 0h1Zm-1 1.002a.5.5 0 0 0 1 0h-1Zm1 5.009a.5.5 0 0 0-1 0h1Zm-1 1.002a.5.5 0 0 0 1 0h-1Zm1 5.01a.5.5 0 0 0-1 0h1Zm-1 1.002a.5.5 0 0 0 1 0h-1Zm1 5.01a.5.5 0 0 0-1 0h1Zm-1 1.002a.5.5 0 0 0 1 0h-1Zm1 5.009a.5.5 0 0 0-1 0h1Zm-1 1.002a.5.5 0 0 0 1 0h-1Zm1 5.01a.5.5 0 0 0-1 0h1Zm-1 1.002a.5.5 0 0 0 1 0h-1Zm1 5.01a.5.5 0 0 0-1 0h1Zm-1 1.002a.5.5 0 0 0 1 0h-1Zm1 5.009a.5.5 0 0 0-1 0h1Zm-1 1.002a.5.5 0 0 0 1 0h-1Zm1 5.01a.5.5 0 0 0-1 0h1Zm-1 1.002a.5.5 0 0 0 1 0h-1Zm1 5.01a.5.5 0 1 0-1 0h1Zm-1 1.002a.5.5 0 0 0 1 0h-1Zm1 5.009a.5.5 0 0 0-1 0h1ZM282.5 3v.501h1V3h-1Zm0 5.51v1.003h1V8.51h-1Zm0 6.012v1.002h1v-1.002h-1Zm0 6.012v1.002h1v-1.002h-1Zm0 6.012v1.002h1v-1.002h-1Zm0 6.011v1.002h1v-1.002h-1Zm0 6.012v1.002h1v-1.002h-1Zm0 6.011v1.002h1V44.58h-1Zm0 6.012v1.002h1v-1.002h-1Zm0 6.012v1.002h1v-1.002h-1Zm0 6.011v1.002h1v-1.002h-1Zm0 6.012v1.002h1v-1.002h-1Zm0 6.012v1.002h1v-1.002h-1Zm0 6.011v1.002h1V80.65h-1Zm0 6.012v1.002h1v-1.002h-1Zm0 6.011v1.002h1v-1.002h-1Zm0 6.012v1.002h1v-1.002h-1Zm0 6.012v1.002h1v-1.002h-1Zm0 6.011v1.002h1v-1.002h-1Zm0 6.012v1.002h1v-1.002h-1Zm0 6.012v1.002h1v-1.002h-1Zm0 6.011v1.002h1v-1.002h-1Zm0 6.012v1.002h1v-1.002h-1Zm0 6.011v1.002h1v-1.002h-1Zm0 6.012v1.002h1v-1.002h-1Zm0 6.012v1.002h1v-1.002h-1Zm0 6.011v1.002h1v-1.002h-1Zm0 6.012v1.002h1v-1.002h-1Zm0 6.012v1.002h1v-1.002h-1Zm0 6.011v1.002h1v-1.002h-1Zm0 6.012v1.002h1v-1.002h-1Zm0 6.011v1.002h1v-1.002h-1Zm0 6.012v1.002h1v-1.002h-1Zm0 6.012v1.002h1v-1.002h-1Zm0 6.011v1.002h1v-1.002h-1Zm0 6.012v1.002h1v-1.002h-1Zm0 6.012v1.002h1v-1.002h-1Zm0 6.011v1.002h1v-1.002h-1Zm0 6.012v1.002h1v-1.002h-1Zm0 6.011v1.002h1v-1.002h-1Zm0 6.012v1.002h1v-1.002h-1Zm0 6.012v1.002h1v-1.002h-1Zm0 6.011v1.002h1v-1.002h-1Zm0 6.012v1.002h1v-1.002h-1Zm0 6.012v1.002h1v-1.002h-1Zm0 6.011v1.002h1v-1.002h-1Zm0 6.012v1.002h1v-1.002h-1Zm0 6.012v1.002h1v-1.002h-1Zm0 6.011v1.002h1v-1.002h-1Zm0 6.012v1.002h1v-1.002h-1Zm0 6.012v1.002h1v-1.002h-1Zm0 6.011v1.002h1v-1.002h-1Zm0 6.012v1.002h1v-1.002h-1Zm0 6.012v1.002h1v-1.002h-1Zm0 6.011v1.002h1v-1.002h-1Zm0 6.012v1.002h1v-1.002h-1Zm0 6.012v1.002h1v-1.002h-1Zm0 6.011v1.002h1v-1.002h-1Zm0 6.012v1.002h1v-1.002h-1Zm0 6.012v1.001l1 .001v-1.002h-1Zm0 6.011v1.002h1v-1.002h-1Zm0 6.012v1.002h1v-1.002h-1Zm0 6.012v1.001h1v-1.001h-1Zm0 6.011v1.002h1v-1.002h-1Zm0 6.012v1.002h1v-1.002h-1Zm0 6.011v1.002h1v-1.002h-1Zm0 6.012v1.002h1v-1.002h-1Zm0 6.012v1.002h1v-1.002h-1Zm0 6.011v1.002h1v-1.002h-1Zm0 6.012v1.002h1v-1.002h-1Zm0 6.012v1.002h1v-1.002h-1Zm0 6.011v1.002h1v-1.002h-1Zm0 6.012v1.002h1v-1.002h-1Zm0 6.012v1.002h1v-1.002h-1Zm0 6.011v1.002h1v-1.002h-1Zm0 6.012v1.002h1v-1.002h-1Zm0 6.012v1.002h1v-1.002h-1Zm0 6.011v1.002h1v-1.002h-1Zm0 6.012v1.002h1v-1.002h-1Zm0 6.012v1.002h1v-1.002h-1Zm0 6.011v1.002h1v-1.002h-1Zm0 6.012v1.002h1v-1.002h-1Zm0 6.012v1.002h1v-1.002h-1Zm0 6.011v1.002h1v-1.002h-1Zm0 6.012v1.002h1v-1.002h-1Zm0 6.012v1.002h1v-1.002h-1Zm0 6.011v.5h1v-.5h-1Zm0 .5a.5.5 0 0 0 1 0h-1Zm0-516.499a.5.5 0 0 0 1 0h-1Zm1 5.01a.5.5 0 0 0-1 0h1Zm-1 1.002a.5.5 0 0 0 1 0h-1Zm1 5.01a.5.5 0 0 0-1 0h1Zm-1 1.001a.5.5 0 0 0 1 0h-1Zm1 5.01a.5.5 0 0 0-1 0h1Zm-1 1.002a.5.5 0 0 0 1 0h-1Zm1 5.01a.5.5 0 0 0-1 0h1Zm-1 1.002a.5.5 0 0 0 1 0h-1Zm1 5.01a.5.5 0 0 0-1 0h1Zm-1 1.001a.5.5 0 0 0 1 0h-1Zm1 5.01a.5.5 0 0 0-1 0h1Zm-1 1.002a.5.5 0 0 0 1 0h-1Zm1 5.01a.5.5 0 0 0-1 0h1Zm-1 1.001a.5.5 0 0 0 1 0h-1Zm1 5.01a.5.5 0 0 0-1 0h1Zm-1 1.002a.5.5 0 0 0 1 0h-1Zm1 5.01a.5.5 0 0 0-1 0h1Zm-1 1.002a.5.5 0 0 0 1 0h-1Zm1 5.01a.5.5 0 0 0-1 0h1Zm-1 1.001a.5.5 0 0 0 1 0h-1Zm1 5.01a.5.5 0 0 0-1 0h1Zm-1 1.002a.5.5 0 0 0 1 0h-1Zm1 5.01a.5.5 0 0 0-1 0h1Zm-1 1.002a.5.5 0 0 0 1 0h-1Zm1 5.01a.5.5 0 0 0-1 0h1Zm-1 1.001a.5.5 0 0 0 1 0h-1Zm1 5.01a.5.5 0 0 0-1 0h1Zm-1 1.002a.5.5 0 0 0 1 0h-1Zm1 5.01a.5.5 0 0 0-1 0h1Zm-1 1.001a.5.5 0 0 0 1 0h-1Zm1 5.01a.5.5 0 0 0-1 0h1Zm-1 1.002a.5.5 0 0 0 1 0h-1Zm1 5.01a.5.5 0 0 0-1 0h1Zm-1 1.002a.5.5 0 0 0 1 0h-1Zm1 5.009a.5.5 0 0 0-1 0h1Zm-1 1.002a.5.5 0 0 0 1 0h-1Zm1 5.01a.5.5 0 0 0-1 0h1Zm-1 1.002a.5.5 0 0 0 1 0h-1Zm1 5.01a.5.5 0 1 0-1 0h1Zm-1 1.002a.5.5 0 0 0 1 0h-1Zm1 5.009a.5.5 0 0 0-1 0h1Zm-1 1.002a.5.5 0 0 0 1 0h-1Zm1 5.01a.5.5 0 0 0-1 0h1Zm-1 1.002a.5.5 0 0 0 1 0h-1Zm1 5.009a.5.5 0 0 0-1 0h1Zm-1 1.002a.5.5 0 1 0 1 0h-1Zm1 5.01a.5.5 0 0 0-1 0h1Zm-1 1.002a.5.5 0 0 0 1 0h-1Zm1 5.01a.5.5 0 0 0-1 0h1Zm-1 1.002a.5.5 0 0 0 1 0h-1Zm1 5.009a.5.5 0 0 0-1 0h1Zm-1 1.002a.5.5 0 0 0 1 0h-1Zm1 5.01a.5.5 0 0 0-1 0h1Zm-1 1.002a.5.5 0 0 0 1 0h-1Zm1 5.01a.5.5 0 1 0-1 0h1Zm-1 1.002a.5.5 0 0 0 1 0h-1Zm1 5.009a.5.5 0 0 0-1 0h1Zm-1 1.002a.5.5 0 0 0 1 0h-1Zm1 5.01a.5.5 0 0 0-1 0h1Zm-1 1.002a.5.5 0 0 0 1 0h-1Zm1 5.009a.5.5 0 0 0-1 0h1Zm-1 1.002a.5.5 0 1 0 1 0h-1Zm1 5.01a.5.5 0 0 0-1 0h1Zm-1 1.002a.5.5 0 0 0 1 0h-1Zm1 5.01a.5.5 0 0 0-1 0h1Zm-1 1.002a.5.5 0 0 0 1 0h-1Zm1 5.009a.5.5 0 0 0-1 0h1Zm-1 1.002a.5.5 0 0 0 1 0h-1Zm1 5.01a.5.5 0 0 0-1 0h1Zm-1 1.002a.5.5 0 0 0 1 0h-1Zm1 5.01a.5.5 0 1 0-1 0h1Zm-1 1.002a.5.5 0 0 0 1 0h-1Zm1 5.009a.5.5 0 0 0-1 0h1Zm-1 1.002a.5.5 0 0 0 1 0h-1Zm1 5.01a.5.5 0 0 0-1 0h1Zm-1 1.002a.5.5 0 0 0 1 0h-1Zm1 5.009a.5.5 0 0 0-1 0h1Zm-1 1.002a.5.5 0 1 0 1 0h-1Zm1 5.01a.5.5 0 0 0-1 0h1Zm-1 1.002a.5.5 0 0 0 1 0h-1Zm1 5.01a.5.5 0 0 0-1 0h1Zm-1 1.002a.5.5 0 0 0 1 0h-1Zm1 5.009a.5.5 0 0 0-1 0h1Zm-1 1.002a.5.5 0 0 0 1 0h-1Zm1 5.01a.5.5 0 0 0-1 0h1Zm-1 1.002a.5.5 0 0 0 1 0h-1Zm1 5.01a.5.5 0 0 0-1 0h1Zm-1 1.002a.5.5 0 0 0 1 0h-1Zm1 5.009a.5.5 0 0 0-1 0h1Zm-1 1.002a.5.5 0 0 0 1 0h-1Zm1 5.01a.5.5 0 0 0-1 0h1Zm-1 1.002a.5.5 0 0 0 1 0h-1Zm1 5.01a.5.5 0 0 0-1 0h1Zm-1 1.002a.5.5 0 0 0 1 0h-1Zm1 5.009a.5.5 0 0 0-1 0h1Zm-1 1.002a.5.5 0 0 0 1 0h-1Zm1 5.01a.5.5 0 0 0-1 0h1Zm-1 1.002a.5.5 0 0 0 1 0h-1Zm1 5.01a.5.5 0 1 0-1 0h1Zm-1 1.002a.5.5 0 0 0 1 0h-1Zm1 5.009a.5.5 0 0 0-1 0h1Zm-1 1.002a.5.5 0 0 0 1 0h-1Zm1 5.01a.5.5 0 0 0-1 0h1Zm-1 1.002a.5.5 0 0 0 1 0h-1Zm1 5.01a.5.5 0 1 0-1 0h1Zm-1 1.002a.5.5 0 0 0 1 0h-1Zm1 5.009a.5.5 0 0 0-1 0h1Zm-1 1.002a.5.5 0 0 0 1 0h-1Zm1 5.01a.5.5 0 0 0-1 0h1Zm-1 1.002a.5.5 0 0 0 1 0h-1Zm1 5.01a.5.5 0 1 0-1 0h1Zm-1 1.002a.5.5 0 0 0 1 0h-1Zm1 5.009a.5.5 0 0 0-1 0h1Zm-1 1.002a.5.5 0 0 0 1 0h-1Zm1 5.01a.5.5 0 0 0-1 0h1Zm-1 1.002a.5.5 0 0 0 1 0h-1Zm1 5.01a.5.5 0 1 0-1 0h1Zm-1 1.001a.501.501 0 0 0 1 .001l-1-.001Zm1 5.01a.5.5 0 0 0-1 0h1Zm-1 1.002a.5.5 0 0 0 1 0h-1Zm1 5.01a.5.5 0 0 0-1 0h1Zm-1 1.002a.5.5 0 0 0 1 0h-1Zm1 5.01a.5.5 0 1 0-1 0h1Zm-1 1.001a.5.5 0 1 0 1 0h-1Zm1 5.01a.5.5 0 0 0-1 0h1Zm-1 1.002a.5.5 0 0 0 1 0h-1Zm1 5.01a.5.5 0 0 0-1 0h1Zm-1 1.002a.5.5 0 0 0 1 0h-1Zm1 5.009a.5.5 0 0 0-1 0h1Zm-1 1.002a.5.5 0 1 0 1 0h-1Zm1 5.01a.5.5 0 0 0-1 0h1Zm-1 1.002a.5.5 0 0 0 1 0h-1Zm1 5.01a.5.5 0 0 0-1 0h1Zm-1 1.002a.5.5 0 0 0 1 0h-1Zm1 5.009a.5.5 0 0 0-1 0h1Zm-1 1.002a.5.5 0 1 0 1 0h-1Zm1 5.01a.5.5 0 0 0-1 0h1Zm-1 1.002a.5.5 0 0 0 1 0h-1Zm1 5.01a.5.5 0 0 0-1 0h1Zm-1 1.002a.5.5 0 0 0 1 0h-1Zm1 5.009a.5.5 0 0 0-1 0h1Zm-1 1.002a.5.5 0 1 0 1 0h-1Zm1 5.01a.5.5 0 0 0-1 0h1Zm-1 1.002a.5.5 0 0 0 1 0h-1Zm1 5.01a.5.5 0 0 0-1 0h1Zm-1 1.002a.5.5 0 0 0 1 0h-1Zm1 5.009a.5.5 0 0 0-1 0h1Zm-1 1.002a.5.5 0 0 0 1 0h-1Zm1 5.01a.5.5 0 0 0-1 0h1Zm-1 1.002a.5.5 0 0 0 1 0h-1Zm1 5.01a.5.5 0 0 0-1 0h1Zm-1 1.002a.5.5 0 0 0 1 0h-1Zm1 5.009a.5.5 0 0 0-1 0h1Zm-1 1.002a.5.5 0 0 0 1 0h-1Zm1 5.01a.5.5 0 0 0-1 0h1Zm-1 1.002a.5.5 0 0 0 1 0h-1Zm1 5.01a.5.5 0 0 0-1 0h1Zm-1 1.002a.5.5 0 0 0 1 0h-1Zm1 5.009a.5.5 0 0 0-1 0h1Zm-1 1.002a.5.5 0 0 0 1 0h-1Zm1 5.01a.5.5 0 0 0-1 0h1Zm-1 1.002a.5.5 0 0 0 1 0h-1Zm1 5.01a.5.5 0 0 0-1 0h1Zm-1 1.002a.5.5 0 0 0 1 0h-1Zm1 5.009a.5.5 0 0 0-1 0h1Zm-1 1.002a.5.5 0 0 0 1 0h-1Zm1 5.01a.5.5 0 0 0-1 0h1Zm-1 1.002a.5.5 0 0 0 1 0h-1Zm1 5.01a.5.5 0 1 0-1 0h1Zm-1 1.002a.5.5 0 0 0 1 0h-1Zm1 5.009a.5.5 0 0 0-1 0h1ZM282.5 3v.501h1V3h-1Zm0 5.51v1.003h1V8.51h-1Zm0 6.012v1.002h1v-1.002h-1Zm0 6.012v1.002h1v-1.002h-1Zm0 6.012v1.002h1v-1.002h-1Zm0 6.011v1.002h1v-1.002h-1Zm0 6.012v1.002h1v-1.002h-1Zm0 6.011v1.002h1V44.58h-1Zm0 6.012v1.002h1v-1.002h-1Zm0 6.012v1.002h1v-1.002h-1Zm0 6.011v1.002h1v-1.002h-1Zm0 6.012v1.002h1v-1.002h-1Zm0 6.012v1.002h1v-1.002h-1Zm0 6.011v1.002h1V80.65h-1Zm0 6.012v1.002h1v-1.002h-1Zm0 6.011v1.002h1v-1.002h-1Zm0 6.012v1.002h1v-1.002h-1Zm0 6.012v1.002h1v-1.002h-1Zm0 6.011v1.002h1v-1.002h-1Zm0 6.012v1.002h1v-1.002h-1Zm0 6.012v1.002h1v-1.002h-1Zm0 6.011v1.002h1v-1.002h-1Zm0 6.012v1.002h1v-1.002h-1Zm0 6.011v1.002h1v-1.002h-1Zm0 6.012v1.002h1v-1.002h-1Zm0 6.012v1.002h1v-1.002h-1Zm0 6.011v1.002h1v-1.002h-1Zm0 6.012v1.002h1v-1.002h-1Zm0 6.012v1.002h1v-1.002h-1Zm0 6.011v1.002h1v-1.002h-1Zm0 6.012v1.002h1v-1.002h-1Zm0 6.011v1.002h1v-1.002h-1Zm0 6.012v1.002h1v-1.002h-1Zm0 6.012v1.002h1v-1.002h-1Zm0 6.011v1.002h1v-1.002h-1Zm0 6.012v1.002h1v-1.002h-1Zm0 6.012v1.002h1v-1.002h-1Zm0 6.011v1.002h1v-1.002h-1Zm0 6.012v1.002h1v-1.002h-1Zm0 6.011v1.002h1v-1.002h-1Zm0 6.012v1.002h1v-1.002h-1Zm0 6.012v1.002h1v-1.002h-1Zm0 6.011v1.002h1v-1.002h-1Zm0 6.012v1.002h1v-1.002h-1Zm0 6.012v1.002h1v-1.002h-1Zm0 6.011v1.002h1v-1.002h-1Zm0 6.012v1.002h1v-1.002h-1Zm0 6.012v1.002h1v-1.002h-1Zm0 6.011v1.002h1v-1.002h-1Zm0 6.012v1.002h1v-1.002h-1Zm0 6.012v1.002h1v-1.002h-1Zm0 6.011v1.002h1v-1.002h-1Zm0 6.012v1.002h1v-1.002h-1Zm0 6.012v1.002h1v-1.002h-1Zm0 6.011v1.002h1v-1.002h-1Zm0 6.012v1.002h1v-1.002h-1Zm0 6.012v1.002h1v-1.002h-1Zm0 6.011v1.002h1v-1.002h-1Zm0 6.012v1.002h1v-1.002h-1Zm0 6.012v1.001l1 .001v-1.002h-1Zm0 6.011v1.002h1v-1.002h-1Zm0 6.012v1.002h1v-1.002h-1Zm0 6.012v1.001h1v-1.001h-1Zm0 6.011v1.002h1v-1.002h-1Zm0 6.012v1.002h1v-1.002h-1Zm0 6.011v1.002h1v-1.002h-1Zm0 6.012v1.002h1v-1.002h-1Zm0 6.012v1.002h1v-1.002h-1Zm0 6.011v1.002h1v-1.002h-1Zm0 6.012v1.002h1v-1.002h-1Zm0 6.012v1.002h1v-1.002h-1Zm0 6.011v1.002h1v-1.002h-1Zm0 6.012v1.002h1v-1.002h-1Zm0 6.012v1.002h1v-1.002h-1Zm0 6.011v1.002h1v-1.002h-1Zm0 6.012v1.002h1v-1.002h-1Zm0 6.012v1.002h1v-1.002h-1Zm0 6.011v1.002h1v-1.002h-1Zm0 6.012v1.002h1v-1.002h-1Zm0 6.012v1.002h1v-1.002h-1Zm0 6.011v1.002h1v-1.002h-1Zm0 6.012v1.002h1v-1.002h-1Zm0 6.012v1.002h1v-1.002h-1Zm0 6.011v1.002h1v-1.002h-1Zm0 6.012v1.002h1v-1.002h-1Zm0 6.012v1.002h1v-1.002h-1Zm0 6.011v.5h1v-.5h-1Z" fill="#1F1F1F" style="mix-blend-mode:lighten"/>
 </g>
 <g filter="url(#h)" style="mix-blend-mode:lighten">
  <path d="M312.5 323a.5.5 0 0 0 1 0h-1Zm0-321.503a.5.5 0 0 0 1 0h-1Zm1 4.97a.5.5 0 0 0-1 0h1Zm-1 .993a.5.5 0 0 0 1 0h-1Zm1 4.969a.5.5 0 0 0-1 0h1Zm-1 .994a.5.5 0 0 0 1 0h-1Zm1 4.969a.5.5 0 0 0-1 0h1Zm-1 .994a.5.5 0 0 0 1 0h-1Zm1 4.969a.5.5 0 0 0-1 0h1Zm-1 .994a.5.5 0 0 0 1 0h-1Zm1 4.969a.5.5 0 0 0-1 0h1Zm-1 .994a.5.5 0 0 0 1 0h-1Zm1 4.969a.5.5 0 0 0-1 0h1Zm-1 .994a.5.5 0 0 0 1 0h-1Zm1 4.969a.5.5 0 0 0-1 0h1Zm-1 .994a.5.5 0 0 0 1 0h-1Zm1 4.969a.5.5 0 0 0-1 0h1Zm-1 .994a.5.5 0 0 0 1 0h-1Zm1 4.969a.5.5 0 0 0-1 0h1Zm-1 .994a.5.5 0 0 0 1 0h-1Zm1 4.969a.5.5 0 0 0-1 0h1Zm-1 .993a.5.5 0 0 0 1 0h-1Zm1 4.97a.5.5 0 0 0-1 0h1Zm-1 .993a.5.5 0 0 0 1 0h-1Zm1 4.97a.5.5 0 0 0-1 0h1Zm-1 .993a.5.5 0 0 0 1 0h-1Zm1 4.97a.5.5 0 0 0-1 0h1Zm-1 .993a.5.5 0 0 0 1 0h-1Zm1 4.97a.5.5 0 0 0-1 0h1Zm-1 .993a.5.5 0 0 0 1 0h-1Zm1 4.97a.5.5 0 0 0-1 0h1Zm-1 .993a.5.5 0 0 0 1 0h-1Zm1 4.97a.5.5 0 0 0-1 0h1Zm-1 .993a.5.5 0 0 0 1 0h-1Zm1 4.969a.5.5 0 0 0-1 0h1Zm-1 .994a.5.5 0 0 0 1 0h-1Zm1 4.969a.5.5 0 0 0-1 0h1Zm-1 .994a.5.5 0 0 0 1 0h-1Zm1 4.969a.5.5 0 0 0-1 0h1Zm-1 .994a.5.5 0 0 0 1 0h-1Zm1 4.969a.5.5 0 0 0-1 0h1Zm-1 .994a.5.5 0 0 0 1 0h-1Zm1 4.969a.5.5 0 0 0-1 0h1Zm-1 .994a.5.5 0 0 0 1 0h-1Zm1 4.969a.5.5 0 0 0-1 0h1Zm-1 .994a.5.5 0 0 0 1 0h-1Zm1 4.969a.5.5 0 0 0-1 0h1Zm-1 .994a.5.5 0 0 0 1 0h-1Zm1 4.969a.5.5 0 0 0-1 0h1Zm-1 .994a.5.5 0 0 0 1 0h-1Zm1 4.969a.5.5 0 0 0-1 0h1Zm-1 .994a.5.5 0 0 0 1 0h-1Zm1 4.969a.5.5 0 0 0-1 0h1Zm-1 .994a.5.5 0 0 0 1 0h-1Zm1 4.969a.5.5 0 0 0-1 0h1Zm-1 .994a.5.5 0 0 0 1 0h-1Zm1 4.969a.5.5 0 0 0-1 0h1Zm-1 .994a.5.5 0 0 0 1 0h-1Zm1 4.969a.5.5 0 0 0-1 0h1Zm-1 .994a.5.5 0 0 0 1 0h-1Zm1 4.969a.5.5 0 0 0-1 0h1Zm-1 .994a.5.5 0 0 0 1 0h-1Zm1 4.969a.5.5 0 0 0-1 0h1Zm-1 .994a.5.5 0 0 0 1 0h-1Zm1 4.969a.5.5 0 0 0-1 0h1Zm-1 .994a.5.5 0 0 0 1 0h-1Zm1 4.969a.5.5 0 0 0-1 0h1Zm-1 .994a.5.5 0 0 0 1 0h-1Zm1 4.969a.5.5 0 0 0-1 0h1Zm-1 .994a.5.5 0 0 0 1 0h-1Zm1 4.969a.5.5 0 0 0-1 0h1Zm-1 .994a.5.5 0 0 0 1 0h-1Zm1 4.969a.5.5 0 1 0-1 0h1Zm-1 .993a.5.5 0 1 0 1 0h-1Zm1 4.97a.5.5 0 1 0-1 0h1Zm-1 .993a.5.5 0 1 0 1 0h-1Zm1 4.97a.5.5 0 1 0-1 0h1Zm-1 .993a.5.5 0 0 0 1 0h-1Zm1 4.969a.5.5 0 0 0-1 0h1Zm-1 .994a.5.5 0 0 0 1 0h-1Zm1 4.969a.5.5 0 0 0-1 0h1Zm-1 .994a.5.5 0 0 0 1 0h-1Zm1 4.969a.5.5 0 0 0-1 0h1Zm-1 .994a.5.5 0 0 0 1 0h-1Zm1 4.969a.5.5 0 0 0-1 0h1Zm-1 .994a.5.5 0 0 0 1 0h-1Zm1 4.969a.5.5 0 0 0-1 0h1Zm-1 .994a.5.5 0 0 0 1 0h-1Zm1 4.969a.5.5 0 0 0-1 0h1Zm-1 .994a.5.5 0 0 0 1 0h-1Zm1 4.969a.5.5 0 0 0-1 0h1Zm-1 .994a.5.5 0 0 0 1 0h-1Zm1 4.969a.5.5 0 0 0-1 0h1Zm-1 .994a.5.5 0 0 0 1 0h-1Zm1 4.969a.5.5 0 0 0-1 0h1Zm-1 .994a.5.5 0 0 0 1 0h-1Zm1 4.969a.5.5 0 0 0-1 0h1Zm-1 .994a.5.5 0 0 0 1 0h-1Zm1 4.969a.5.5 0 0 0-1 0h1Zm-1 .994a.5.5 0 0 0 1 0h-1Zm1 4.969a.5.5 0 0 0-1 0h1Zm-1 .994a.5.5 0 0 0 1 0h-1Zm1 4.969a.5.5 0 0 0-1 0h1Zm-1 .994a.5.5 0 0 0 1 0h-1Zm1 4.969a.5.5 0 0 0-1 0h1Zm-1 .994a.5.5 0 0 0 1 0h-1Zm1 4.969a.5.5 0 0 0-1 0h1Zm-1 .994a.5.5 0 0 0 1 0h-1Zm1 4.969a.5.5 0 0 0-1 0h1ZM312.5 1v.497h1V1h-1Zm0 5.466v.994h1v-.994h-1Zm0 5.963v.994h1v-.994h-1Zm0 5.963v.994h1v-.994h-1Zm0 5.963v.994h1v-.994h-1Zm0 5.963v.994h1v-.994h-1Zm0 5.963v.994h1v-.994h-1Zm0 5.963v.994h1v-.994h-1Zm0 5.963v.994h1v-.994h-1Zm0 5.963v.994h1v-.994h-1Zm0 5.963v.993h1v-.993h-1Zm0 5.963v.993h1v-.993h-1Zm0 5.963v.993h1v-.993h-1Zm0 5.963v.993h1v-.993h-1Zm0 5.963v.993h1v-.993h-1Zm0 5.963v.993h1v-.993h-1Zm0 5.963v.993h1v-.993h-1Zm0 5.962v.994h1v-.994h-1Zm0 5.963v.994h1v-.994h-1Zm0 5.963v.994h1v-.994h-1Zm0 5.963v.994h1v-.994h-1Zm0 5.963v.994h1v-.994h-1Zm0 5.963v.994h1v-.994h-1Zm0 5.963v.994h1v-.994h-1Zm0 5.963v.994h1v-.994h-1Zm0 5.963v.994h1v-.994h-1Zm0 5.963v.994h1v-.994h-1Zm0 5.963v.994h1v-.994h-1Zm0 5.963v.994h1v-.994h-1Zm0 5.963v.994h1v-.994h-1Zm0 5.963v.994h1v-.994h-1Zm0 5.963v.994h1v-.994h-1Zm0 5.963v.994h1v-.994h-1Zm0 5.963v.994h1v-.994h-1Zm0 5.963v.994h1v-.994h-1Zm0 5.963v.994h1v-.994h-1Zm0 5.963v.993h1v-.993h-1Zm0 5.963v.993h1v-.993h-1Zm0 5.963v.993h1v-.993h-1Zm0 5.962v.994h1v-.994h-1Zm0 5.963v.994h1v-.994h-1Zm0 5.963v.994h1v-.994h-1Zm0 5.963v.994h1v-.994h-1Zm0 5.963v.994h1v-.994h-1Zm0 5.963v.994h1v-.994h-1Zm0 5.963v.994h1v-.994h-1Zm0 5.963v.994h1v-.994h-1Zm0 5.963v.994h1v-.994h-1Zm0 5.963v.994h1v-.994h-1Zm0 5.963v.994h1v-.994h-1Zm0 5.963v.994h1v-.994h-1Zm0 5.963v.994h1v-.994h-1Zm0 5.963v.994h1v-.994h-1Zm0 5.963v.994h1v-.994h-1Zm0 5.963V323h1v-.497h-1Zm0 .497a.5.5 0 0 0 1 0h-1Zm0-321.503a.5.5 0 0 0 1 0h-1Zm1 4.97a.5.5 0 0 0-1 0h1Zm-1 .993a.5.5 0 0 0 1 0h-1Zm1 4.969a.5.5 0 0 0-1 0h1Zm-1 .994a.5.5 0 0 0 1 0h-1Zm1 4.969a.5.5 0 0 0-1 0h1Zm-1 .994a.5.5 0 0 0 1 0h-1Zm1 4.969a.5.5 0 0 0-1 0h1Zm-1 .994a.5.5 0 0 0 1 0h-1Zm1 4.969a.5.5 0 0 0-1 0h1Zm-1 .994a.5.5 0 0 0 1 0h-1Zm1 4.969a.5.5 0 0 0-1 0h1Zm-1 .994a.5.5 0 0 0 1 0h-1Zm1 4.969a.5.5 0 0 0-1 0h1Zm-1 .994a.5.5 0 0 0 1 0h-1Zm1 4.969a.5.5 0 0 0-1 0h1Zm-1 .994a.5.5 0 0 0 1 0h-1Zm1 4.969a.5.5 0 0 0-1 0h1Zm-1 .994a.5.5 0 0 0 1 0h-1Zm1 4.969a.5.5 0 0 0-1 0h1Zm-1 .993a.5.5 0 0 0 1 0h-1Zm1 4.97a.5.5 0 0 0-1 0h1Zm-1 .993a.5.5 0 0 0 1 0h-1Zm1 4.97a.5.5 0 0 0-1 0h1Zm-1 .993a.5.5 0 0 0 1 0h-1Zm1 4.97a.5.5 0 0 0-1 0h1Zm-1 .993a.5.5 0 0 0 1 0h-1Zm1 4.97a.5.5 0 0 0-1 0h1Zm-1 .993a.5.5 0 0 0 1 0h-1Zm1 4.97a.5.5 0 0 0-1 0h1Zm-1 .993a.5.5 0 0 0 1 0h-1Zm1 4.97a.5.5 0 0 0-1 0h1Zm-1 .993a.5.5 0 0 0 1 0h-1Zm1 4.969a.5.5 0 0 0-1 0h1Zm-1 .994a.5.5 0 0 0 1 0h-1Zm1 4.969a.5.5 0 0 0-1 0h1Zm-1 .994a.5.5 0 0 0 1 0h-1Zm1 4.969a.5.5 0 0 0-1 0h1Zm-1 .994a.5.5 0 0 0 1 0h-1Zm1 4.969a.5.5 0 0 0-1 0h1Zm-1 .994a.5.5 0 0 0 1 0h-1Zm1 4.969a.5.5 0 0 0-1 0h1Zm-1 .994a.5.5 0 0 0 1 0h-1Zm1 4.969a.5.5 0 0 0-1 0h1Zm-1 .994a.5.5 0 0 0 1 0h-1Zm1 4.969a.5.5 0 0 0-1 0h1Zm-1 .994a.5.5 0 0 0 1 0h-1Zm1 4.969a.5.5 0 0 0-1 0h1Zm-1 .994a.5.5 0 0 0 1 0h-1Zm1 4.969a.5.5 0 0 0-1 0h1Zm-1 .994a.5.5 0 0 0 1 0h-1Zm1 4.969a.5.5 0 0 0-1 0h1Zm-1 .994a.5.5 0 0 0 1 0h-1Zm1 4.969a.5.5 0 0 0-1 0h1Zm-1 .994a.5.5 0 0 0 1 0h-1Zm1 4.969a.5.5 0 0 0-1 0h1Zm-1 .994a.5.5 0 0 0 1 0h-1Zm1 4.969a.5.5 0 0 0-1 0h1Zm-1 .994a.5.5 0 0 0 1 0h-1Zm1 4.969a.5.5 0 0 0-1 0h1Zm-1 .994a.5.5 0 0 0 1 0h-1Zm1 4.969a.5.5 0 0 0-1 0h1Zm-1 .994a.5.5 0 0 0 1 0h-1Zm1 4.969a.5.5 0 0 0-1 0h1Zm-1 .994a.5.5 0 0 0 1 0h-1Zm1 4.969a.5.5 0 0 0-1 0h1Zm-1 .994a.5.5 0 0 0 1 0h-1Zm1 4.969a.5.5 0 0 0-1 0h1Zm-1 .994a.5.5 0 0 0 1 0h-1Zm1 4.969a.5.5 0 0 0-1 0h1Zm-1 .994a.5.5 0 0 0 1 0h-1Zm1 4.969a.5.5 0 1 0-1 0h1Zm-1 .993a.5.5 0 1 0 1 0h-1Zm1 4.97a.5.5 0 1 0-1 0h1Zm-1 .993a.5.5 0 1 0 1 0h-1Zm1 4.97a.5.5 0 1 0-1 0h1Zm-1 .993a.5.5 0 0 0 1 0h-1Zm1 4.969a.5.5 0 0 0-1 0h1Zm-1 .994a.5.5 0 0 0 1 0h-1Zm1 4.969a.5.5 0 0 0-1 0h1Zm-1 .994a.5.5 0 0 0 1 0h-1Zm1 4.969a.5.5 0 0 0-1 0h1Zm-1 .994a.5.5 0 0 0 1 0h-1Zm1 4.969a.5.5 0 0 0-1 0h1Zm-1 .994a.5.5 0 0 0 1 0h-1Zm1 4.969a.5.5 0 0 0-1 0h1Zm-1 .994a.5.5 0 0 0 1 0h-1Zm1 4.969a.5.5 0 0 0-1 0h1Zm-1 .994a.5.5 0 0 0 1 0h-1Zm1 4.969a.5.5 0 0 0-1 0h1Zm-1 .994a.5.5 0 0 0 1 0h-1Zm1 4.969a.5.5 0 0 0-1 0h1Zm-1 .994a.5.5 0 0 0 1 0h-1Zm1 4.969a.5.5 0 0 0-1 0h1Zm-1 .994a.5.5 0 0 0 1 0h-1Zm1 4.969a.5.5 0 0 0-1 0h1Zm-1 .994a.5.5 0 0 0 1 0h-1Zm1 4.969a.5.5 0 0 0-1 0h1Zm-1 .994a.5.5 0 0 0 1 0h-1Zm1 4.969a.5.5 0 0 0-1 0h1Zm-1 .994a.5.5 0 0 0 1 0h-1Zm1 4.969a.5.5 0 0 0-1 0h1Zm-1 .994a.5.5 0 0 0 1 0h-1Zm1 4.969a.5.5 0 0 0-1 0h1Zm-1 .994a.5.5 0 0 0 1 0h-1Zm1 4.969a.5.5 0 0 0-1 0h1Zm-1 .994a.5.5 0 0 0 1 0h-1Zm1 4.969a.5.5 0 0 0-1 0h1ZM312.5 1v.497h1V1h-1Zm0 5.466v.994h1v-.994h-1Zm0 5.963v.994h1v-.994h-1Zm0 5.963v.994h1v-.994h-1Zm0 5.963v.994h1v-.994h-1Zm0 5.963v.994h1v-.994h-1Zm0 5.963v.994h1v-.994h-1Zm0 5.963v.994h1v-.994h-1Zm0 5.963v.994h1v-.994h-1Zm0 5.963v.994h1v-.994h-1Zm0 5.963v.993h1v-.993h-1Zm0 5.963v.993h1v-.993h-1Zm0 5.963v.993h1v-.993h-1Zm0 5.963v.993h1v-.993h-1Zm0 5.963v.993h1v-.993h-1Zm0 5.963v.993h1v-.993h-1Zm0 5.963v.993h1v-.993h-1Zm0 5.962v.994h1v-.994h-1Zm0 5.963v.994h1v-.994h-1Zm0 5.963v.994h1v-.994h-1Zm0 5.963v.994h1v-.994h-1Zm0 5.963v.994h1v-.994h-1Zm0 5.963v.994h1v-.994h-1Zm0 5.963v.994h1v-.994h-1Zm0 5.963v.994h1v-.994h-1Zm0 5.963v.994h1v-.994h-1Zm0 5.963v.994h1v-.994h-1Zm0 5.963v.994h1v-.994h-1Zm0 5.963v.994h1v-.994h-1Zm0 5.963v.994h1v-.994h-1Zm0 5.963v.994h1v-.994h-1Zm0 5.963v.994h1v-.994h-1Zm0 5.963v.994h1v-.994h-1Zm0 5.963v.994h1v-.994h-1Zm0 5.963v.994h1v-.994h-1Zm0 5.963v.994h1v-.994h-1Zm0 5.963v.993h1v-.993h-1Zm0 5.963v.993h1v-.993h-1Zm0 5.963v.993h1v-.993h-1Zm0 5.962v.994h1v-.994h-1Zm0 5.963v.994h1v-.994h-1Zm0 5.963v.994h1v-.994h-1Zm0 5.963v.994h1v-.994h-1Zm0 5.963v.994h1v-.994h-1Zm0 5.963v.994h1v-.994h-1Zm0 5.963v.994h1v-.994h-1Zm0 5.963v.994h1v-.994h-1Zm0 5.963v.994h1v-.994h-1Zm0 5.963v.994h1v-.994h-1Zm0 5.963v.994h1v-.994h-1Zm0 5.963v.994h1v-.994h-1Zm0 5.963v.994h1v-.994h-1Zm0 5.963v.994h1v-.994h-1Zm0 5.963v.994h1v-.994h-1Zm0 5.963V323h1v-.497h-1Z" fill="#601944" style="mix-blend-mode:lighten"/>
 </g>
 <g filter="url(#i)" style="mix-blend-mode:lighten">
  <path d="M372.5 245a.5.5 0 0 0 1 0h-1Zm0-243.504a.5.5 0 0 0 1 0h-1Zm1 4.96a.5.5 0 0 0-1 0h1Zm-1 .991a.5.5 0 0 0 1 0h-1Zm1 4.96a.5.5 0 0 0-1 0h1Zm-1 .991a.5.5 0 0 0 1 0h-1Zm1 4.96a.5.5 0 0 0-1 0h1Zm-1 .992a.5.5 0 0 0 1 0h-1Zm1 4.959a.5.5 0 0 0-1 0h1Zm-1 .992a.5.5 0 0 0 1 0h-1Zm1 4.96a.5.5 0 0 0-1 0h1Zm-1 .991a.5.5 0 0 0 1 0h-1Zm1 4.96a.5.5 0 0 0-1 0h1Zm-1 .991a.5.5 0 0 0 1 0h-1Zm1 4.96a.5.5 0 0 0-1 0h1Zm-1 .992a.5.5 0 0 0 1 0h-1Zm1 4.959a.5.5 0 0 0-1 0h1Zm-1 .992a.5.5 0 0 0 1 0h-1Zm1 4.96a.5.5 0 0 0-1 0h1Zm-1 .99a.5.5 0 0 0 1 0h-1Zm1 4.96a.5.5 0 0 0-1 0h1Zm-1 .992a.5.5 0 0 0 1 0h-1Zm1 4.96a.5.5 0 0 0-1 0h1Zm-1 .991a.5.5 0 0 0 1 0h-1Zm1 4.96a.5.5 0 0 0-1 0h1Zm-1 .992a.5.5 0 0 0 1 0h-1Zm1 4.959a.5.5 0 0 0-1 0h1Zm-1 .992a.5.5 0 0 0 1 0h-1Zm1 4.96a.5.5 0 0 0-1 0h1Zm-1 .991a.5.5 0 0 0 1 0h-1Zm1 4.96a.5.5 0 0 0-1 0h1Zm-1 .991a.5.5 0 0 0 1 0h-1Zm1 4.96a.5.5 0 0 0-1 0h1Zm-1 .991a.5.5 0 0 0 1 0h-1Zm1 4.96a.5.5 0 0 0-1 0h1Zm-1 .992a.5.5 0 0 0 1 0h-1Zm1 4.959a.5.5 0 0 0-1 0h1Zm-1 .992a.5.5 0 0 0 1 0h-1Zm1 4.959a.5.5 0 0 0-1 0h1Zm-1 .992a.5.5 0 0 0 1 0h-1Zm1 4.959a.5.5 0 0 0-1 0h1Zm-1 .992a.5.5 0 0 0 1 0h-1Zm1 4.96a.5.5 0 0 0-1 0h1Zm-1 .992a.5.5 0 0 0 1 0h-1Zm1 4.959a.5.5 0 0 0-1 0h1Zm-1 .992a.5.5 0 0 0 1 0h-1Zm1 4.959a.5.5 0 0 0-1 0h1Zm-1 .992a.5.5 0 0 0 1 0h-1Zm1 4.959a.5.5 0 0 0-1 0h1Zm-1 .992a.5.5 0 0 0 1 0h-1Zm1 4.96a.5.5 0 1 0-1 0h1Zm-1 .991a.5.5 0 1 0 1 0h-1Zm1 4.96a.5.5 0 0 0-1 0h1Zm-1 .992a.5.5 0 0 0 1 0h-1Zm1 4.959a.5.5 0 0 0-1 0h1Zm-1 .992a.5.5 0 0 0 1 0h-1Zm1 4.959a.5.5 0 0 0-1 0h1Zm-1 .992a.5.5 0 0 0 1 0h-1Zm1 4.959a.5.5 0 0 0-1 0h1Zm-1 .992a.5.5 0 0 0 1 0h-1Zm1 4.96a.5.5 0 1 0-1 0h1Zm-1 .991a.5.5 0 1 0 1 0h-1Zm1 4.96a.5.5 0 0 0-1 0h1Zm-1 .992a.5.5 0 0 0 1 0h-1Zm1 4.959a.5.5 0 0 0-1 0h1Zm-1 .992a.5.5 0 0 0 1 0h-1Zm1 4.959a.5.5 0 0 0-1 0h1Zm-1 .992a.5.5 0 0 0 1 0h-1Zm1 4.959a.5.5 0 0 0-1 0h1Zm-1 .992a.5.5 0 0 0 1 0h-1Zm1 4.96a.5.5 0 0 0-1 0h1Zm-1 .992a.5.5 0 0 0 1 0h-1Zm1 4.959a.5.5 0 0 0-1 0h1Zm-1 .992a.5.5 0 0 0 1 0h-1Zm1 4.959a.5.5 0 0 0-1 0h1Zm-1 .992a.5.5 0 0 0 1 0h-1Zm1 4.959a.5.5 0 0 0-1 0h1Zm-1 .992a.5.5 0 0 0 1 0h-1Zm1 4.96a.5.5 0 1 0-1 0h1Zm-1 .991a.5.5 0 1 0 1 0h-1Zm1 4.96a.5.5 0 0 0-1 0h1Zm-1 .992a.5.5 0 0 0 1 0h-1Zm1 4.959a.5.5 0 0 0-1 0h1ZM372.5 1v.496h1V1h-1Zm0 5.455v.992h1v-.992h-1Zm0 5.951v.992h1v-.992h-1Zm0 5.952v.992h1v-.992h-1Zm0 5.95v.993h1v-.992h-1Zm0 5.952v.992h1v-.992h-1Zm0 5.951v.992h1v-.992h-1Zm0 5.952v.992h1v-.992h-1Zm0 5.95v.993h1v-.992h-1Zm0 5.952v.992h1v-.992h-1Zm0 5.951v.992h1v-.992h-1Zm0 5.952v.991h1v-.992h-1Zm0 5.95v.993h1v-.992h-1Zm0 5.952v.992h1v-.992h-1Zm0 5.951v.992h1v-.992h-1Zm0 5.951v.992h1v-.992h-1Zm0 5.952v.991h1v-.991h-1Zm0 5.951v.992h1v-.992h-1Zm0 5.951v.992h1v-.992h-1Zm0 5.951v.992h1v-.992h-1Zm0 5.951v.992h1v-.992h-1Zm0 5.952v.992h1v-.992h-1Zm0 5.951v.992h1v-.992h-1Zm0 5.951v.992h1v-.992h-1Zm0 5.951v.992h1v-.992h-1Zm0 5.952v.991h1v-.991h-1Zm0 5.951v.992h1v-.992h-1Zm0 5.951v.992h1v-.992h-1Zm0 5.951v.992h1v-.992h-1Zm0 5.951v.992h1v-.992h-1Zm0 5.952v.991h1v-.991h-1Zm0 5.951v.992h1v-.992h-1Zm0 5.951v.992h1v-.992h-1Zm0 5.951v.992h1v-.992h-1Zm0 5.951v.992h1v-.992h-1Zm0 5.952v.992h1v-.992h-1Zm0 5.951v.992h1v-.992h-1Zm0 5.951v.992h1v-.992h-1Zm0 5.951v.992h1v-.992h-1Zm0 5.952v.991h1v-.991h-1Zm0 5.951v.992h1v-.992h-1Zm0 5.951V245h1v-.496h-1Zm0 .496a.5.5 0 0 0 1 0h-1Zm0-243.504a.5.5 0 0 0 1 0h-1Zm1 4.96a.5.5 0 0 0-1 0h1Zm-1 .991a.5.5 0 0 0 1 0h-1Zm1 4.96a.5.5 0 0 0-1 0h1Zm-1 .991a.5.5 0 0 0 1 0h-1Zm1 4.96a.5.5 0 0 0-1 0h1Zm-1 .992a.5.5 0 0 0 1 0h-1Zm1 4.959a.5.5 0 0 0-1 0h1Zm-1 .992a.5.5 0 0 0 1 0h-1Zm1 4.96a.5.5 0 0 0-1 0h1Zm-1 .991a.5.5 0 0 0 1 0h-1Zm1 4.96a.5.5 0 0 0-1 0h1Zm-1 .991a.5.5 0 0 0 1 0h-1Zm1 4.96a.5.5 0 0 0-1 0h1Zm-1 .992a.5.5 0 0 0 1 0h-1Zm1 4.959a.5.5 0 0 0-1 0h1Zm-1 .992a.5.5 0 0 0 1 0h-1Zm1 4.96a.5.5 0 0 0-1 0h1Zm-1 .99a.5.5 0 0 0 1 0h-1Zm1 4.96a.5.5 0 0 0-1 0h1Zm-1 .992a.5.5 0 0 0 1 0h-1Zm1 4.96a.5.5 0 0 0-1 0h1Zm-1 .991a.5.5 0 0 0 1 0h-1Zm1 4.96a.5.5 0 0 0-1 0h1Zm-1 .992a.5.5 0 0 0 1 0h-1Zm1 4.959a.5.5 0 0 0-1 0h1Zm-1 .992a.5.5 0 0 0 1 0h-1Zm1 4.96a.5.5 0 0 0-1 0h1Zm-1 .991a.5.5 0 0 0 1 0h-1Zm1 4.96a.5.5 0 0 0-1 0h1Zm-1 .991a.5.5 0 0 0 1 0h-1Zm1 4.96a.5.5 0 0 0-1 0h1Zm-1 .991a.5.5 0 0 0 1 0h-1Zm1 4.96a.5.5 0 0 0-1 0h1Zm-1 .992a.5.5 0 0 0 1 0h-1Zm1 4.959a.5.5 0 0 0-1 0h1Zm-1 .992a.5.5 0 0 0 1 0h-1Zm1 4.959a.5.5 0 0 0-1 0h1Zm-1 .992a.5.5 0 0 0 1 0h-1Zm1 4.959a.5.5 0 0 0-1 0h1Zm-1 .992a.5.5 0 0 0 1 0h-1Zm1 4.96a.5.5 0 0 0-1 0h1Zm-1 .992a.5.5 0 0 0 1 0h-1Zm1 4.959a.5.5 0 0 0-1 0h1Zm-1 .992a.5.5 0 0 0 1 0h-1Zm1 4.959a.5.5 0 0 0-1 0h1Zm-1 .992a.5.5 0 0 0 1 0h-1Zm1 4.959a.5.5 0 0 0-1 0h1Zm-1 .992a.5.5 0 0 0 1 0h-1Zm1 4.96a.5.5 0 1 0-1 0h1Zm-1 .991a.5.5 0 1 0 1 0h-1Zm1 4.96a.5.5 0 0 0-1 0h1Zm-1 .992a.5.5 0 0 0 1 0h-1Zm1 4.959a.5.5 0 0 0-1 0h1Zm-1 .992a.5.5 0 0 0 1 0h-1Zm1 4.959a.5.5 0 0 0-1 0h1Zm-1 .992a.5.5 0 0 0 1 0h-1Zm1 4.959a.5.5 0 0 0-1 0h1Zm-1 .992a.5.5 0 0 0 1 0h-1Zm1 4.96a.5.5 0 1 0-1 0h1Zm-1 .991a.5.5 0 1 0 1 0h-1Zm1 4.96a.5.5 0 0 0-1 0h1Zm-1 .992a.5.5 0 0 0 1 0h-1Zm1 4.959a.5.5 0 0 0-1 0h1Zm-1 .992a.5.5 0 0 0 1 0h-1Zm1 4.959a.5.5 0 0 0-1 0h1Zm-1 .992a.5.5 0 0 0 1 0h-1Zm1 4.959a.5.5 0 0 0-1 0h1Zm-1 .992a.5.5 0 0 0 1 0h-1Zm1 4.96a.5.5 0 0 0-1 0h1Zm-1 .992a.5.5 0 0 0 1 0h-1Zm1 4.959a.5.5 0 0 0-1 0h1Zm-1 .992a.5.5 0 0 0 1 0h-1Zm1 4.959a.5.5 0 0 0-1 0h1Zm-1 .992a.5.5 0 0 0 1 0h-1Zm1 4.959a.5.5 0 0 0-1 0h1Zm-1 .992a.5.5 0 0 0 1 0h-1Zm1 4.96a.5.5 0 1 0-1 0h1Zm-1 .991a.5.5 0 1 0 1 0h-1Zm1 4.96a.5.5 0 0 0-1 0h1Zm-1 .992a.5.5 0 0 0 1 0h-1Zm1 4.959a.5.5 0 0 0-1 0h1ZM372.5 1v.496h1V1h-1Zm0 5.455v.992h1v-.992h-1Zm0 5.951v.992h1v-.992h-1Zm0 5.952v.992h1v-.992h-1Zm0 5.95v.993h1v-.992h-1Zm0 5.952v.992h1v-.992h-1Zm0 5.951v.992h1v-.992h-1Zm0 5.952v.992h1v-.992h-1Zm0 5.95v.993h1v-.992h-1Zm0 5.952v.992h1v-.992h-1Zm0 5.951v.992h1v-.992h-1Zm0 5.952v.991h1v-.992h-1Zm0 5.95v.993h1v-.992h-1Zm0 5.952v.992h1v-.992h-1Zm0 5.951v.992h1v-.992h-1Zm0 5.951v.992h1v-.992h-1Zm0 5.952v.991h1v-.991h-1Zm0 5.951v.992h1v-.992h-1Zm0 5.951v.992h1v-.992h-1Zm0 5.951v.992h1v-.992h-1Zm0 5.951v.992h1v-.992h-1Zm0 5.952v.992h1v-.992h-1Zm0 5.951v.992h1v-.992h-1Zm0 5.951v.992h1v-.992h-1Zm0 5.951v.992h1v-.992h-1Zm0 5.952v.991h1v-.991h-1Zm0 5.951v.992h1v-.992h-1Zm0 5.951v.992h1v-.992h-1Zm0 5.951v.992h1v-.992h-1Zm0 5.951v.992h1v-.992h-1Zm0 5.952v.991h1v-.991h-1Zm0 5.951v.992h1v-.992h-1Zm0 5.951v.992h1v-.992h-1Zm0 5.951v.992h1v-.992h-1Zm0 5.951v.992h1v-.992h-1Zm0 5.952v.992h1v-.992h-1Zm0 5.951v.992h1v-.992h-1Zm0 5.951v.992h1v-.992h-1Zm0 5.951v.992h1v-.992h-1Zm0 5.952v.991h1v-.991h-1Zm0 5.951v.992h1v-.992h-1Zm0 5.951V245h1v-.496h-1Z" fill="url(#j)"/>
  <circle transform="rotate(-18.697)" cx="272.24" cy="359.23" r="5.5" stroke="#4b4b4b" stroke-dasharray="0.5,4.4999999" stroke-linecap="round" stroke-linejoin="round" stroke-width=".5"/>
 </g>
 <g filter="url(#k)" style="mix-blend-mode:lighten">
  <path d="M580.5 245a.5.5 0 0 0 1 0h-1Zm0-243.504a.5.5 0 0 0 1 0h-1Zm1 4.96a.5.5 0 0 0-1 0h1Zm-1 .991a.5.5 0 0 0 1 0h-1Zm1 4.96a.5.5 0 0 0-1 0h1Zm-1 .991a.5.5 0 0 0 1 0h-1Zm1 4.96a.5.5 0 0 0-1 0h1Zm-1 .992a.5.5 0 0 0 1 0h-1Zm1 4.959a.5.5 0 0 0-1 0h1Zm-1 .992a.5.5 0 0 0 1 0h-1Zm1 4.96a.5.5 0 0 0-1 0h1Zm-1 .991a.5.5 0 0 0 1 0h-1Zm1 4.96a.5.5 0 0 0-1 0h1Zm-1 .991a.5.5 0 0 0 1 0h-1Zm1 4.96a.5.5 0 0 0-1 0h1Zm-1 .992a.5.5 0 0 0 1 0h-1Zm1 4.959a.5.5 0 0 0-1 0h1Zm-1 .992a.5.5 0 0 0 1 0h-1Zm1 4.96a.5.5 0 0 0-1 0h1Zm-1 .99a.5.5 0 0 0 1 0h-1Zm1 4.96a.5.5 0 0 0-1 0h1Zm-1 .992a.5.5 0 0 0 1 0h-1Zm1 4.96a.5.5 0 0 0-1 0h1Zm-1 .991a.5.5 0 0 0 1 0h-1Zm1 4.96a.5.5 0 0 0-1 0h1Zm-1 .992a.5.5 0 0 0 1 0h-1Zm1 4.959a.5.5 0 0 0-1 0h1Zm-1 .992a.5.5 0 0 0 1 0h-1Zm1 4.96a.5.5 0 0 0-1 0h1Zm-1 .991a.5.5 0 0 0 1 0h-1Zm1 4.96a.5.5 0 0 0-1 0h1Zm-1 .991a.5.5 0 0 0 1 0h-1Zm1 4.96a.5.5 0 0 0-1 0h1Zm-1 .991a.5.5 0 0 0 1 0h-1Zm1 4.96a.5.5 0 0 0-1 0h1Zm-1 .992a.5.5 0 0 0 1 0h-1Zm1 4.959a.5.5 0 0 0-1 0h1Zm-1 .992a.5.5 0 0 0 1 0h-1Zm1 4.959a.5.5 0 0 0-1 0h1Zm-1 .992a.5.5 0 0 0 1 0h-1Zm1 4.959a.5.5 0 0 0-1 0h1Zm-1 .992a.5.5 0 0 0 1 0h-1Zm1 4.96a.5.5 0 0 0-1 0h1Zm-1 .992a.5.5 0 0 0 1 0h-1Zm1 4.959a.5.5 0 0 0-1 0h1Zm-1 .992a.5.5 0 0 0 1 0h-1Zm1 4.959a.5.5 0 0 0-1 0h1Zm-1 .992a.5.5 0 0 0 1 0h-1Zm1 4.959a.5.5 0 0 0-1 0h1Zm-1 .992a.5.5 0 0 0 1 0h-1Zm1 4.96a.5.5 0 1 0-1 0h1Zm-1 .991a.5.5 0 1 0 1 0h-1Zm1 4.96a.5.5 0 0 0-1 0h1Zm-1 .992a.5.5 0 0 0 1 0h-1Zm1 4.959a.5.5 0 0 0-1 0h1Zm-1 .992a.5.5 0 0 0 1 0h-1Zm1 4.959a.5.5 0 0 0-1 0h1Zm-1 .992a.5.5 0 0 0 1 0h-1Zm1 4.959a.5.5 0 0 0-1 0h1Zm-1 .992a.5.5 0 0 0 1 0h-1Zm1 4.96a.5.5 0 1 0-1 0h1Zm-1 .991a.5.5 0 1 0 1 0h-1Zm1 4.96a.5.5 0 0 0-1 0h1Zm-1 .992a.5.5 0 0 0 1 0h-1Zm1 4.959a.5.5 0 0 0-1 0h1Zm-1 .992a.5.5 0 0 0 1 0h-1Zm1 4.959a.5.5 0 0 0-1 0h1Zm-1 .992a.5.5 0 0 0 1 0h-1Zm1 4.959a.5.5 0 0 0-1 0h1Zm-1 .992a.5.5 0 0 0 1 0h-1Zm1 4.96a.5.5 0 0 0-1 0h1Zm-1 .992a.5.5 0 0 0 1 0h-1Zm1 4.959a.5.5 0 0 0-1 0h1Zm-1 .992a.5.5 0 0 0 1 0h-1Zm1 4.959a.5.5 0 0 0-1 0h1Zm-1 .992a.5.5 0 0 0 1 0h-1Zm1 4.959a.5.5 0 0 0-1 0h1Zm-1 .992a.5.5 0 0 0 1 0h-1Zm1 4.96a.5.5 0 1 0-1 0h1Zm-1 .991a.5.5 0 1 0 1 0h-1Zm1 4.96a.5.5 0 0 0-1 0h1Zm-1 .992a.5.5 0 0 0 1 0h-1Zm1 4.959a.5.5 0 0 0-1 0h1ZM580.5 1v.496h1V1h-1Zm0 5.455v.992h1v-.992h-1Zm0 5.951v.992h1v-.992h-1Zm0 5.952v.992h1v-.992h-1Zm0 5.95v.993h1v-.992h-1Zm0 5.952v.992h1v-.992h-1Zm0 5.951v.992h1v-.992h-1Zm0 5.952v.992h1v-.992h-1Zm0 5.95v.993h1v-.992h-1Zm0 5.952v.992h1v-.992h-1Zm0 5.951v.992h1v-.992h-1Zm0 5.952v.991h1v-.992h-1Zm0 5.95v.993h1v-.992h-1Zm0 5.952v.992h1v-.992h-1Zm0 5.951v.992h1v-.992h-1Zm0 5.951v.992h1v-.992h-1Zm0 5.952v.991h1v-.991h-1Zm0 5.951v.992h1v-.992h-1Zm0 5.951v.992h1v-.992h-1Zm0 5.951v.992h1v-.992h-1Zm0 5.951v.992h1v-.992h-1Zm0 5.952v.992h1v-.992h-1Zm0 5.951v.992h1v-.992h-1Zm0 5.951v.992h1v-.992h-1Zm0 5.951v.992h1v-.992h-1Zm0 5.952v.991h1v-.991h-1Zm0 5.951v.992h1v-.992h-1Zm0 5.951v.992h1v-.992h-1Zm0 5.951v.992h1v-.992h-1Zm0 5.951v.992h1v-.992h-1Zm0 5.952v.991h1v-.991h-1Zm0 5.951v.992h1v-.992h-1Zm0 5.951v.992h1v-.992h-1Zm0 5.951v.992h1v-.992h-1Zm0 5.951v.992h1v-.992h-1Zm0 5.952v.992h1v-.992h-1Zm0 5.951v.992h1v-.992h-1Zm0 5.951v.992h1v-.992h-1Zm0 5.951v.992h1v-.992h-1Zm0 5.952v.991h1v-.991h-1Zm0 5.951v.992h1v-.992h-1Zm0 5.951V245h1v-.496h-1Zm0 .496a.5.5 0 0 0 1 0h-1Zm0-243.504a.5.5 0 0 0 1 0h-1Zm1 4.96a.5.5 0 0 0-1 0h1Zm-1 .991a.5.5 0 0 0 1 0h-1Zm1 4.96a.5.5 0 0 0-1 0h1Zm-1 .991a.5.5 0 0 0 1 0h-1Zm1 4.96a.5.5 0 0 0-1 0h1Zm-1 .992a.5.5 0 0 0 1 0h-1Zm1 4.959a.5.5 0 0 0-1 0h1Zm-1 .992a.5.5 0 0 0 1 0h-1Zm1 4.96a.5.5 0 0 0-1 0h1Zm-1 .991a.5.5 0 0 0 1 0h-1Zm1 4.96a.5.5 0 0 0-1 0h1Zm-1 .991a.5.5 0 0 0 1 0h-1Zm1 4.96a.5.5 0 0 0-1 0h1Zm-1 .992a.5.5 0 0 0 1 0h-1Zm1 4.959a.5.5 0 0 0-1 0h1Zm-1 .992a.5.5 0 0 0 1 0h-1Zm1 4.96a.5.5 0 0 0-1 0h1Zm-1 .99a.5.5 0 0 0 1 0h-1Zm1 4.96a.5.5 0 0 0-1 0h1Zm-1 .992a.5.5 0 0 0 1 0h-1Zm1 4.96a.5.5 0 0 0-1 0h1Zm-1 .991a.5.5 0 0 0 1 0h-1Zm1 4.96a.5.5 0 0 0-1 0h1Zm-1 .992a.5.5 0 0 0 1 0h-1Zm1 4.959a.5.5 0 0 0-1 0h1Zm-1 .992a.5.5 0 0 0 1 0h-1Zm1 4.96a.5.5 0 0 0-1 0h1Zm-1 .991a.5.5 0 0 0 1 0h-1Zm1 4.96a.5.5 0 0 0-1 0h1Zm-1 .991a.5.5 0 0 0 1 0h-1Zm1 4.96a.5.5 0 0 0-1 0h1Zm-1 .991a.5.5 0 0 0 1 0h-1Zm1 4.96a.5.5 0 0 0-1 0h1Zm-1 .992a.5.5 0 0 0 1 0h-1Zm1 4.959a.5.5 0 0 0-1 0h1Zm-1 .992a.5.5 0 0 0 1 0h-1Zm1 4.959a.5.5 0 0 0-1 0h1Zm-1 .992a.5.5 0 0 0 1 0h-1Zm1 4.959a.5.5 0 0 0-1 0h1Zm-1 .992a.5.5 0 0 0 1 0h-1Zm1 4.96a.5.5 0 0 0-1 0h1Zm-1 .992a.5.5 0 0 0 1 0h-1Zm1 4.959a.5.5 0 0 0-1 0h1Zm-1 .992a.5.5 0 0 0 1 0h-1Zm1 4.959a.5.5 0 0 0-1 0h1Zm-1 .992a.5.5 0 0 0 1 0h-1Zm1 4.959a.5.5 0 0 0-1 0h1Zm-1 .992a.5.5 0 0 0 1 0h-1Zm1 4.96a.5.5 0 1 0-1 0h1Zm-1 .991a.5.5 0 1 0 1 0h-1Zm1 4.96a.5.5 0 0 0-1 0h1Zm-1 .992a.5.5 0 0 0 1 0h-1Zm1 4.959a.5.5 0 0 0-1 0h1Zm-1 .992a.5.5 0 0 0 1 0h-1Zm1 4.959a.5.5 0 0 0-1 0h1Zm-1 .992a.5.5 0 0 0 1 0h-1Zm1 4.959a.5.5 0 0 0-1 0h1Zm-1 .992a.5.5 0 0 0 1 0h-1Zm1 4.96a.5.5 0 1 0-1 0h1Zm-1 .991a.5.5 0 1 0 1 0h-1Zm1 4.96a.5.5 0 0 0-1 0h1Zm-1 .992a.5.5 0 0 0 1 0h-1Zm1 4.959a.5.5 0 0 0-1 0h1Zm-1 .992a.5.5 0 0 0 1 0h-1Zm1 4.959a.5.5 0 0 0-1 0h1Zm-1 .992a.5.5 0 0 0 1 0h-1Zm1 4.959a.5.5 0 0 0-1 0h1Zm-1 .992a.5.5 0 0 0 1 0h-1Zm1 4.96a.5.5 0 0 0-1 0h1Zm-1 .992a.5.5 0 0 0 1 0h-1Zm1 4.959a.5.5 0 0 0-1 0h1Zm-1 .992a.5.5 0 0 0 1 0h-1Zm1 4.959a.5.5 0 0 0-1 0h1Zm-1 .992a.5.5 0 0 0 1 0h-1Zm1 4.959a.5.5 0 0 0-1 0h1Zm-1 .992a.5.5 0 0 0 1 0h-1Zm1 4.96a.5.5 0 1 0-1 0h1Zm-1 .991a.5.5 0 1 0 1 0h-1Zm1 4.96a.5.5 0 0 0-1 0h1Zm-1 .992a.5.5 0 0 0 1 0h-1Zm1 4.959a.5.5 0 0 0-1 0h1ZM580.5 1v.496h1V1h-1Zm0 5.455v.992h1v-.992h-1Zm0 5.951v.992h1v-.992h-1Zm0 5.952v.992h1v-.992h-1Zm0 5.95v.993h1v-.992h-1Zm0 5.952v.992h1v-.992h-1Zm0 5.951v.992h1v-.992h-1Zm0 5.952v.992h1v-.992h-1Zm0 5.95v.993h1v-.992h-1Zm0 5.952v.992h1v-.992h-1Zm0 5.951v.992h1v-.992h-1Zm0 5.952v.991h1v-.992h-1Zm0 5.95v.993h1v-.992h-1Zm0 5.952v.992h1v-.992h-1Zm0 5.951v.992h1v-.992h-1Zm0 5.951v.992h1v-.992h-1Zm0 5.952v.991h1v-.991h-1Zm0 5.951v.992h1v-.992h-1Zm0 5.951v.992h1v-.992h-1Zm0 5.951v.992h1v-.992h-1Zm0 5.951v.992h1v-.992h-1Zm0 5.952v.992h1v-.992h-1Zm0 5.951v.992h1v-.992h-1Zm0 5.951v.992h1v-.992h-1Zm0 5.951v.992h1v-.992h-1Zm0 5.952v.991h1v-.991h-1Zm0 5.951v.992h1v-.992h-1Zm0 5.951v.992h1v-.992h-1Zm0 5.951v.992h1v-.992h-1Zm0 5.951v.992h1v-.992h-1Zm0 5.952v.991h1v-.991h-1Zm0 5.951v.992h1v-.992h-1Zm0 5.951v.992h1v-.992h-1Zm0 5.951v.992h1v-.992h-1Zm0 5.951v.992h1v-.992h-1Zm0 5.952v.992h1v-.992h-1Zm0 5.951v.992h1v-.992h-1Zm0 5.951v.992h1v-.992h-1Zm0 5.951v.992h1v-.992h-1Zm0 5.952v.991h1v-.991h-1Zm0 5.951v.992h1v-.992h-1Zm0 5.951V245h1v-.496h-1Z" fill="#8A375B"/>
 </g>
 <g filter="url(#l)" style="mix-blend-mode:lighten">
  <path d="M719.5 154a.5.5 0 0 0 1 0h-1Zm0-152.51a.5.5 0 0 0 1 0h-1Zm1 4.904a.5.5 0 0 0-1 0h1Zm-1 .981a.5.5 0 0 0 1 0h-1Zm1 4.904a.5.5 0 0 0-1 0h1Zm-1 .98a.5.5 0 0 0 1 0h-1Zm1 4.904a.5.5 0 0 0-1 0h1Zm-1 .981a.5.5 0 0 0 1 0h-1Zm1 4.904a.5.5 0 0 0-1 0h1Zm-1 .98a.5.5 0 0 0 1 0h-1Zm1 4.905a.5.5 0 0 0-1 0h1Zm-1 .98a.5.5 0 0 0 1 0h-1Zm1 4.904a.5.5 0 0 0-1 0h1Zm-1 .981a.5.5 0 0 0 1 0h-1Zm1 4.904a.5.5 0 0 0-1 0h1Zm-1 .98a.5.5 0 0 0 1 0h-1Zm1 4.904a.5.5 0 0 0-1 0h1Zm-1 .981a.5.5 0 0 0 1 0h-1Zm1 4.904a.5.5 0 0 0-1 0h1Zm-1 .98a.5.5 0 0 0 1 0h-1Zm1 4.905a.5.5 0 0 0-1 0h1Zm-1 .98a.5.5 0 0 0 1 0h-1Zm1 4.904a.5.5 0 0 0-1 0h1Zm-1 .981a.5.5 0 0 0 1 0h-1Zm1 4.904a.5.5 0 0 0-1 0h1Zm-1 .98a.5.5 0 0 0 1 0h-1Zm1 4.905a.5.5 0 0 0-1 0h1Zm-1 .98a.5.5 0 0 0 1 0h-1Zm1 4.904a.5.5 0 0 0-1 0h1Zm-1 .981a.5.5 0 0 0 1 0h-1Zm1 4.904a.5.5 0 0 0-1 0h1Zm-1 .98a.5.5 0 0 0 1 0h-1Zm1 4.904a.5.5 0 0 0-1 0h1Zm-1 .981a.5.5 0 0 0 1 0h-1Zm1 4.904a.5.5 0 0 0-1 0h1Zm-1 .981a.5.5 0 0 0 1 0h-1Zm1 4.904a.5.5 0 0 0-1 0h1Zm-1 .98a.5.5 0 1 0 1 0h-1Zm1 4.904a.5.5 0 0 0-1 0h1Zm-1 .981a.5.5 0 0 0 1 0h-1Zm1 4.904a.5.5 0 0 0-1 0h1Zm-1 .981a.5.5 0 0 0 1 0h-1Zm1 4.904a.5.5 0 1 0-1 0h1Zm-1 .98a.5.5 0 0 0 1 0h-1Zm1 4.904a.5.5 0 0 0-1 0h1Zm-1 .981a.5.5 0 0 0 1 0h-1Zm1 4.904a.5.5 0 0 0-1 0h1Zm-1 .981a.5.5 0 0 0 1 0h-1Zm1 4.903a.5.5 0 0 0-1 0h1Zm-1 .981a.5.5 0 0 0 1 0h-1Zm1 4.904a.5.5 0 0 0-1 0h1Zm-1 .981a.5.5 0 0 0 1 0h-1Zm1 4.904a.5.5 0 1 0-1 0h1ZM719.5 1v.49h1V1h-1Zm0 5.394v.981h1v-.98h-1Zm0 5.885v.98h1v-.98h-1Zm0 5.884v.981h1v-.98h-1Zm0 5.885v.98h1v-.98h-1Zm0 5.885v.98h1v-.98h-1Zm0 5.884v.981h1v-.98h-1Zm0 5.885v.98h1v-.98h-1Zm0 5.885v.98h1v-.98h-1Zm0 5.884v.98h1v-.98h-1Zm0 5.885v.98h1v-.98h-1Zm0 5.884v.981h1v-.98h-1Zm0 5.885v.98h1v-.98h-1Zm0 5.885v.98h1v-.98h-1Zm0 5.884v.981h1v-.98h-1Zm0 5.885v.98h1v-.98h-1Zm0 5.885v.98h1v-.98h-1Zm0 5.884v.981h1v-.981h-1Zm0 5.885v.98h1v-.98h-1Zm0 5.884v.981h1v-.981h-1Zm0 5.885v.981h1v-.981h-1Zm0 5.885v.98h1v-.98h-1Zm0 5.884v.981h1v-.981h-1Zm0 5.885v.981h1v-.981h-1Zm0 5.884v.981h1v-.981h-1Zm0 5.885v.981h1v-.981h-1Zm0 5.885v.49h1v-.49h-1Zm0 .49a.5.5 0 0 0 1 0h-1Zm0-152.51a.5.5 0 0 0 1 0h-1Zm1 4.904a.5.5 0 0 0-1 0h1Zm-1 .981a.5.5 0 0 0 1 0h-1Zm1 4.904a.5.5 0 0 0-1 0h1Zm-1 .98a.5.5 0 0 0 1 0h-1Zm1 4.904a.5.5 0 0 0-1 0h1Zm-1 .981a.5.5 0 0 0 1 0h-1Zm1 4.904a.5.5 0 0 0-1 0h1Zm-1 .98a.5.5 0 0 0 1 0h-1Zm1 4.905a.5.5 0 0 0-1 0h1Zm-1 .98a.5.5 0 0 0 1 0h-1Zm1 4.904a.5.5 0 0 0-1 0h1Zm-1 .981a.5.5 0 0 0 1 0h-1Zm1 4.904a.5.5 0 0 0-1 0h1Zm-1 .98a.5.5 0 0 0 1 0h-1Zm1 4.904a.5.5 0 0 0-1 0h1Zm-1 .981a.5.5 0 0 0 1 0h-1Zm1 4.904a.5.5 0 0 0-1 0h1Zm-1 .98a.5.5 0 0 0 1 0h-1Zm1 4.905a.5.5 0 0 0-1 0h1Zm-1 .98a.5.5 0 0 0 1 0h-1Zm1 4.904a.5.5 0 0 0-1 0h1Zm-1 .981a.5.5 0 0 0 1 0h-1Zm1 4.904a.5.5 0 0 0-1 0h1Zm-1 .98a.5.5 0 0 0 1 0h-1Zm1 4.905a.5.5 0 0 0-1 0h1Zm-1 .98a.5.5 0 0 0 1 0h-1Zm1 4.904a.5.5 0 0 0-1 0h1Zm-1 .981a.5.5 0 0 0 1 0h-1Zm1 4.904a.5.5 0 0 0-1 0h1Zm-1 .98a.5.5 0 0 0 1 0h-1Zm1 4.904a.5.5 0 0 0-1 0h1Zm-1 .981a.5.5 0 0 0 1 0h-1Zm1 4.904a.5.5 0 0 0-1 0h1Zm-1 .981a.5.5 0 0 0 1 0h-1Zm1 4.904a.5.5 0 0 0-1 0h1Zm-1 .98a.5.5 0 1 0 1 0h-1Zm1 4.904a.5.5 0 0 0-1 0h1Zm-1 .981a.5.5 0 0 0 1 0h-1Zm1 4.904a.5.5 0 0 0-1 0h1Zm-1 .981a.5.5 0 0 0 1 0h-1Zm1 4.904a.5.5 0 1 0-1 0h1Zm-1 .98a.5.5 0 0 0 1 0h-1Zm1 4.904a.5.5 0 0 0-1 0h1Zm-1 .981a.5.5 0 0 0 1 0h-1Zm1 4.904a.5.5 0 0 0-1 0h1Zm-1 .981a.5.5 0 0 0 1 0h-1Zm1 4.903a.5.5 0 0 0-1 0h1Zm-1 .981a.5.5 0 0 0 1 0h-1Zm1 4.904a.5.5 0 0 0-1 0h1Zm-1 .981a.5.5 0 0 0 1 0h-1Zm1 4.904a.5.5 0 1 0-1 0h1ZM719.5 1v.49h1V1h-1Zm0 5.394v.981h1v-.98h-1Zm0 5.885v.98h1v-.98h-1Zm0 5.884v.981h1v-.98h-1Zm0 5.885v.98h1v-.98h-1Zm0 5.885v.98h1v-.98h-1Zm0 5.884v.981h1v-.98h-1Zm0 5.885v.98h1v-.98h-1Zm0 5.885v.98h1v-.98h-1Zm0 5.884v.98h1v-.98h-1Zm0 5.885v.98h1v-.98h-1Zm0 5.884v.981h1v-.98h-1Zm0 5.885v.98h1v-.98h-1Zm0 5.885v.98h1v-.98h-1Zm0 5.884v.981h1v-.98h-1Zm0 5.885v.98h1v-.98h-1Zm0 5.885v.98h1v-.98h-1Zm0 5.884v.981h1v-.981h-1Zm0 5.885v.98h1v-.98h-1Zm0 5.884v.981h1v-.981h-1Zm0 5.885v.981h1v-.981h-1Zm0 5.885v.98h1v-.98h-1Zm0 5.884v.981h1v-.981h-1Zm0 5.885v.981h1v-.981h-1Zm0 5.884v.981h1v-.981h-1Zm0 5.885v.981h1v-.981h-1Zm0 5.885v.49h1v-.49h-1Z" fill="#4B4B4B"/>
 </g>
 <g filter="url(#m)" opacity=".5" style="mix-blend-mode:lighten">
  <path d="M785.5 520a.5.5 0 0 0 1 0h-1Zm0-516.499a.5.5 0 0 0 1 0h-1Zm1 5.01a.5.5 0 0 0-1 0h1Zm-1 1.002a.5.5 0 0 0 1 0h-1Zm1 5.01a.5.5 0 0 0-1 0h1Zm-1 1.001a.5.5 0 0 0 1 0h-1Zm1 5.01a.5.5 0 0 0-1 0h1Zm-1 1.002a.5.5 0 0 0 1 0h-1Zm1 5.01a.5.5 0 0 0-1 0h1Zm-1 1.002a.5.5 0 0 0 1 0h-1Zm1 5.01a.5.5 0 0 0-1 0h1Zm-1 1.001a.5.5 0 0 0 1 0h-1Zm1 5.01a.5.5 0 0 0-1 0h1Zm-1 1.002a.5.5 0 0 0 1 0h-1Zm1 5.01a.5.5 0 0 0-1 0h1Zm-1 1.001a.5.5 0 0 0 1 0h-1Zm1 5.01a.5.5 0 0 0-1 0h1Zm-1 1.002a.5.5 0 0 0 1 0h-1Zm1 5.01a.5.5 0 0 0-1 0h1Zm-1 1.002a.5.5 0 0 0 1 0h-1Zm1 5.01a.5.5 0 0 0-1 0h1Zm-1 1.001a.5.5 0 0 0 1 0h-1Zm1 5.01a.5.5 0 0 0-1 0h1Zm-1 1.002a.5.5 0 0 0 1 0h-1Zm1 5.01a.5.5 0 0 0-1 0h1Zm-1 1.002a.5.5 0 0 0 1 0h-1Zm1 5.01a.5.5 0 0 0-1 0h1Zm-1 1.001a.5.5 0 0 0 1 0h-1Zm1 5.01a.5.5 0 0 0-1 0h1Zm-1 1.002a.5.5 0 0 0 1 0h-1Zm1 5.01a.5.5 0 0 0-1 0h1Zm-1 1.001a.5.5 0 0 0 1 0h-1Zm1 5.01a.5.5 0 0 0-1 0h1Zm-1 1.002a.5.5 0 0 0 1 0h-1Zm1 5.01a.5.5 0 0 0-1 0h1Zm-1 1.002a.5.5 0 0 0 1 0h-1Zm1 5.009a.5.5 0 0 0-1 0h1Zm-1 1.002a.5.5 0 0 0 1 0h-1Zm1 5.01a.5.5 0 0 0-1 0h1Zm-1 1.002a.5.5 0 0 0 1 0h-1Zm1 5.01a.5.5 0 1 0-1 0h1Zm-1 1.002a.5.5 0 0 0 1 0h-1Zm1 5.009a.5.5 0 0 0-1 0h1Zm-1 1.002a.5.5 0 0 0 1 0h-1Zm1 5.01a.5.5 0 0 0-1 0h1Zm-1 1.002a.5.5 0 0 0 1 0h-1Zm1 5.009a.5.5 0 0 0-1 0h1Zm-1 1.002a.5.5 0 1 0 1 0h-1Zm1 5.01a.5.5 0 0 0-1 0h1Zm-1 1.002a.5.5 0 0 0 1 0h-1Zm1 5.01a.5.5 0 0 0-1 0h1Zm-1 1.002a.5.5 0 0 0 1 0h-1Zm1 5.009a.5.5 0 0 0-1 0h1Zm-1 1.002a.5.5 0 0 0 1 0h-1Zm1 5.01a.5.5 0 0 0-1 0h1Zm-1 1.002a.5.5 0 0 0 1 0h-1Zm1 5.01a.5.5 0 1 0-1 0h1Zm-1 1.002a.5.5 0 0 0 1 0h-1Zm1 5.009a.5.5 0 0 0-1 0h1Zm-1 1.002a.5.5 0 0 0 1 0h-1Zm1 5.01a.5.5 0 0 0-1 0h1Zm-1 1.002a.5.5 0 0 0 1 0h-1Zm1 5.009a.5.5 0 0 0-1 0h1Zm-1 1.002a.5.5 0 1 0 1 0h-1Zm1 5.01a.5.5 0 0 0-1 0h1Zm-1 1.002a.5.5 0 0 0 1 0h-1Zm1 5.01a.5.5 0 0 0-1 0h1Zm-1 1.002a.5.5 0 0 0 1 0h-1Zm1 5.009a.5.5 0 0 0-1 0h1Zm-1 1.002a.5.5 0 0 0 1 0h-1Zm1 5.01a.5.5 0 0 0-1 0h1Zm-1 1.002a.5.5 0 0 0 1 0h-1Zm1 5.01a.5.5 0 1 0-1 0h1Zm-1 1.002a.5.5 0 0 0 1 0h-1Zm1 5.009a.5.5 0 0 0-1 0h1Zm-1 1.002a.5.5 0 0 0 1 0h-1Zm1 5.01a.5.5 0 0 0-1 0h1Zm-1 1.002a.5.5 0 0 0 1 0h-1Zm1 5.009a.5.5 0 0 0-1 0h1Zm-1 1.002a.5.5 0 1 0 1 0h-1Zm1 5.01a.5.5 0 0 0-1 0h1Zm-1 1.002a.5.5 0 0 0 1 0h-1Zm1 5.01a.5.5 0 0 0-1 0h1Zm-1 1.002a.5.5 0 0 0 1 0h-1Zm1 5.009a.5.5 0 0 0-1 0h1Zm-1 1.002a.5.5 0 0 0 1 0h-1Zm1 5.01a.5.5 0 0 0-1 0h1Zm-1 1.002a.5.5 0 0 0 1 0h-1Zm1 5.01a.5.5 0 0 0-1 0h1Zm-1 1.002a.5.5 0 0 0 1 0h-1Zm1 5.009a.5.5 0 0 0-1 0h1Zm-1 1.002a.5.5 0 0 0 1 0h-1Zm1 5.01a.5.5 0 0 0-1 0h1Zm-1 1.002a.5.5 0 0 0 1 0h-1Zm1 5.01a.5.5 0 0 0-1 0h1Zm-1 1.002a.5.5 0 0 0 1 0h-1Zm1 5.009a.5.5 0 0 0-1 0h1Zm-1 1.002a.5.5 0 0 0 1 0h-1Zm1 5.01a.5.5 0 0 0-1 0h1Zm-1 1.002a.5.5 0 0 0 1 0h-1Zm1 5.01a.5.5 0 1 0-1 0h1Zm-1 1.002a.5.5 0 0 0 1 0h-1Zm1 5.009a.5.5 0 0 0-1 0h1Zm-1 1.002a.5.5 0 0 0 1 0h-1Zm1 5.01a.5.5 0 0 0-1 0h1Zm-1 1.002a.5.5 0 0 0 1 0h-1Zm1 5.01a.5.5 0 1 0-1 0h1Zm-1 1.002a.5.5 0 0 0 1 0h-1Zm1 5.009a.5.5 0 0 0-1 0h1Zm-1 1.002a.5.5 0 0 0 1 0h-1Zm1 5.01a.5.5 0 0 0-1 0h1Zm-1 1.002a.5.5 0 0 0 1 0h-1Zm1 5.01a.5.5 0 1 0-1 0h1Zm-1 1.002a.5.5 0 0 0 1 0h-1Zm1 5.009a.5.5 0 0 0-1 0h1Zm-1 1.002a.5.5 0 0 0 1 0h-1Zm1 5.01a.5.5 0 0 0-1 0h1Zm-1 1.002a.5.5 0 0 0 1 0h-1Zm1 5.01a.5.5 0 1 0-1 0h1Zm-1 1.001a.501.501 0 0 0 1 .001l-1-.001Zm1 5.01a.5.5 0 0 0-1 0h1Zm-1 1.002a.5.5 0 0 0 1 0h-1Zm1 5.01a.5.5 0 0 0-1 0h1Zm-1 1.002a.5.5 0 0 0 1 0h-1Zm1 5.01a.5.5 0 1 0-1 0h1Zm-1 1.001a.5.5 0 1 0 1 0h-1Zm1 5.01a.5.5 0 0 0-1 0h1Zm-1 1.002a.5.5 0 0 0 1 0h-1Zm1 5.01a.5.5 0 0 0-1 0h1Zm-1 1.002a.5.5 0 0 0 1 0h-1Zm1 5.009a.5.5 0 0 0-1 0h1Zm-1 1.002a.5.5 0 1 0 1 0h-1Zm1 5.01a.5.5 0 0 0-1 0h1Zm-1 1.002a.5.5 0 0 0 1 0h-1Zm1 5.01a.5.5 0 0 0-1 0h1Zm-1 1.002a.5.5 0 0 0 1 0h-1Zm1 5.009a.5.5 0 0 0-1 0h1Zm-1 1.002a.5.5 0 1 0 1 0h-1Zm1 5.01a.5.5 0 0 0-1 0h1Zm-1 1.002a.5.5 0 0 0 1 0h-1Zm1 5.01a.5.5 0 0 0-1 0h1Zm-1 1.002a.5.5 0 0 0 1 0h-1Zm1 5.009a.5.5 0 0 0-1 0h1Zm-1 1.002a.5.5 0 1 0 1 0h-1Zm1 5.01a.5.5 0 0 0-1 0h1Zm-1 1.002a.5.5 0 0 0 1 0h-1Zm1 5.01a.5.5 0 0 0-1 0h1Zm-1 1.002a.5.5 0 0 0 1 0h-1Zm1 5.009a.5.5 0 0 0-1 0h1Zm-1 1.002a.5.5 0 0 0 1 0h-1Zm1 5.01a.5.5 0 0 0-1 0h1Zm-1 1.002a.5.5 0 0 0 1 0h-1Zm1 5.01a.5.5 0 0 0-1 0h1Zm-1 1.002a.5.5 0 0 0 1 0h-1Zm1 5.009a.5.5 0 0 0-1 0h1Zm-1 1.002a.5.5 0 0 0 1 0h-1Zm1 5.01a.5.5 0 0 0-1 0h1Zm-1 1.002a.5.5 0 0 0 1 0h-1Zm1 5.01a.5.5 0 0 0-1 0h1Zm-1 1.002a.5.5 0 0 0 1 0h-1Zm1 5.009a.5.5 0 0 0-1 0h1Zm-1 1.002a.5.5 0 0 0 1 0h-1Zm1 5.01a.5.5 0 0 0-1 0h1Zm-1 1.002a.5.5 0 0 0 1 0h-1Zm1 5.01a.5.5 0 0 0-1 0h1Zm-1 1.002a.5.5 0 0 0 1 0h-1Zm1 5.009a.5.5 0 0 0-1 0h1Zm-1 1.002a.5.5 0 0 0 1 0h-1Zm1 5.01a.5.5 0 0 0-1 0h1Zm-1 1.002a.5.5 0 0 0 1 0h-1Zm1 5.01a.5.5 0 1 0-1 0h1Zm-1 1.002a.5.5 0 0 0 1 0h-1Zm1 5.009a.5.5 0 0 0-1 0h1ZM785.5 3v.501h1V3h-1Zm0 5.51v1.003h1V8.51h-1Zm0 6.012v1.002h1v-1.002h-1Zm0 6.012v1.002h1v-1.002h-1Zm0 6.012v1.002h1v-1.002h-1Zm0 6.011v1.002h1v-1.002h-1Zm0 6.012v1.002h1v-1.002h-1Zm0 6.011v1.002h1V44.58h-1Zm0 6.012v1.002h1v-1.002h-1Zm0 6.012v1.002h1v-1.002h-1Zm0 6.011v1.002h1v-1.002h-1Zm0 6.012v1.002h1v-1.002h-1Zm0 6.012v1.002h1v-1.002h-1Zm0 6.011v1.002h1V80.65h-1Zm0 6.012v1.002h1v-1.002h-1Zm0 6.011v1.002h1v-1.002h-1Zm0 6.012v1.002h1v-1.002h-1Zm0 6.012v1.002h1v-1.002h-1Zm0 6.011v1.002h1v-1.002h-1Zm0 6.012v1.002h1v-1.002h-1Zm0 6.012v1.002h1v-1.002h-1Zm0 6.011v1.002h1v-1.002h-1Zm0 6.012v1.002h1v-1.002h-1Zm0 6.011v1.002h1v-1.002h-1Zm0 6.012v1.002h1v-1.002h-1Zm0 6.012v1.002h1v-1.002h-1Zm0 6.011v1.002h1v-1.002h-1Zm0 6.012v1.002h1v-1.002h-1Zm0 6.012v1.002h1v-1.002h-1Zm0 6.011v1.002h1v-1.002h-1Zm0 6.012v1.002h1v-1.002h-1Zm0 6.011v1.002h1v-1.002h-1Zm0 6.012v1.002h1v-1.002h-1Zm0 6.012v1.002h1v-1.002h-1Zm0 6.011v1.002h1v-1.002h-1Zm0 6.012v1.002h1v-1.002h-1Zm0 6.012v1.002h1v-1.002h-1Zm0 6.011v1.002h1v-1.002h-1Zm0 6.012v1.002h1v-1.002h-1Zm0 6.011v1.002h1v-1.002h-1Zm0 6.012v1.002h1v-1.002h-1Zm0 6.012v1.002h1v-1.002h-1Zm0 6.011v1.002h1v-1.002h-1Zm0 6.012v1.002h1v-1.002h-1Zm0 6.012v1.002h1v-1.002h-1Zm0 6.011v1.002h1v-1.002h-1Zm0 6.012v1.002h1v-1.002h-1Zm0 6.012v1.002h1v-1.002h-1Zm0 6.011v1.002h1v-1.002h-1Zm0 6.012v1.002h1v-1.002h-1Zm0 6.012v1.002h1v-1.002h-1Zm0 6.011v1.002h1v-1.002h-1Zm0 6.012v1.002h1v-1.002h-1Zm0 6.012v1.002h1v-1.002h-1Zm0 6.011v1.002h1v-1.002h-1Zm0 6.012v1.002h1v-1.002h-1Zm0 6.012v1.002h1v-1.002h-1Zm0 6.011v1.002h1v-1.002h-1Zm0 6.012v1.002h1v-1.002h-1Zm0 6.012v1.001l1 .001v-1.002h-1Zm0 6.011v1.002h1v-1.002h-1Zm0 6.012v1.002h1v-1.002h-1Zm0 6.012v1.001h1v-1.001h-1Zm0 6.011v1.002h1v-1.002h-1Zm0 6.012v1.002h1v-1.002h-1Zm0 6.011v1.002h1v-1.002h-1Zm0 6.012v1.002h1v-1.002h-1Zm0 6.012v1.002h1v-1.002h-1Zm0 6.011v1.002h1v-1.002h-1Zm0 6.012v1.002h1v-1.002h-1Zm0 6.012v1.002h1v-1.002h-1Zm0 6.011v1.002h1v-1.002h-1Zm0 6.012v1.002h1v-1.002h-1Zm0 6.012v1.002h1v-1.002h-1Zm0 6.011v1.002h1v-1.002h-1Zm0 6.012v1.002h1v-1.002h-1Zm0 6.012v1.002h1v-1.002h-1Zm0 6.011v1.002h1v-1.002h-1Zm0 6.012v1.002h1v-1.002h-1Zm0 6.012v1.002h1v-1.002h-1Zm0 6.011v1.002h1v-1.002h-1Zm0 6.012v1.002h1v-1.002h-1Zm0 6.012v1.002h1v-1.002h-1Zm0 6.011v1.002h1v-1.002h-1Zm0 6.012v1.002h1v-1.002h-1Zm0 6.012v1.002h1v-1.002h-1Zm0 6.011v.5h1v-.5h-1Zm0 .5a.5.5 0 0 0 1 0h-1Zm0-516.499a.5.5 0 0 0 1 0h-1Zm1 5.01a.5.5 0 0 0-1 0h1Zm-1 1.002a.5.5 0 0 0 1 0h-1Zm1 5.01a.5.5 0 0 0-1 0h1Zm-1 1.001a.5.5 0 0 0 1 0h-1Zm1 5.01a.5.5 0 0 0-1 0h1Zm-1 1.002a.5.5 0 0 0 1 0h-1Zm1 5.01a.5.5 0 0 0-1 0h1Zm-1 1.002a.5.5 0 0 0 1 0h-1Zm1 5.01a.5.5 0 0 0-1 0h1Zm-1 1.001a.5.5 0 0 0 1 0h-1Zm1 5.01a.5.5 0 0 0-1 0h1Zm-1 1.002a.5.5 0 0 0 1 0h-1Zm1 5.01a.5.5 0 0 0-1 0h1Zm-1 1.001a.5.5 0 0 0 1 0h-1Zm1 5.01a.5.5 0 0 0-1 0h1Zm-1 1.002a.5.5 0 0 0 1 0h-1Zm1 5.01a.5.5 0 0 0-1 0h1Zm-1 1.002a.5.5 0 0 0 1 0h-1Zm1 5.01a.5.5 0 0 0-1 0h1Zm-1 1.001a.5.5 0 0 0 1 0h-1Zm1 5.01a.5.5 0 0 0-1 0h1Zm-1 1.002a.5.5 0 0 0 1 0h-1Zm1 5.01a.5.5 0 0 0-1 0h1Zm-1 1.002a.5.5 0 0 0 1 0h-1Zm1 5.01a.5.5 0 0 0-1 0h1Zm-1 1.001a.5.5 0 0 0 1 0h-1Zm1 5.01a.5.5 0 0 0-1 0h1Zm-1 1.002a.5.5 0 0 0 1 0h-1Zm1 5.01a.5.5 0 0 0-1 0h1Zm-1 1.001a.5.5 0 0 0 1 0h-1Zm1 5.01a.5.5 0 0 0-1 0h1Zm-1 1.002a.5.5 0 0 0 1 0h-1Zm1 5.01a.5.5 0 0 0-1 0h1Zm-1 1.002a.5.5 0 0 0 1 0h-1Zm1 5.009a.5.5 0 0 0-1 0h1Zm-1 1.002a.5.5 0 0 0 1 0h-1Zm1 5.01a.5.5 0 0 0-1 0h1Zm-1 1.002a.5.5 0 0 0 1 0h-1Zm1 5.01a.5.5 0 1 0-1 0h1Zm-1 1.002a.5.5 0 0 0 1 0h-1Zm1 5.009a.5.5 0 0 0-1 0h1Zm-1 1.002a.5.5 0 0 0 1 0h-1Zm1 5.01a.5.5 0 0 0-1 0h1Zm-1 1.002a.5.5 0 0 0 1 0h-1Zm1 5.009a.5.5 0 0 0-1 0h1Zm-1 1.002a.5.5 0 1 0 1 0h-1Zm1 5.01a.5.5 0 0 0-1 0h1Zm-1 1.002a.5.5 0 0 0 1 0h-1Zm1 5.01a.5.5 0 0 0-1 0h1Zm-1 1.002a.5.5 0 0 0 1 0h-1Zm1 5.009a.5.5 0 0 0-1 0h1Zm-1 1.002a.5.5 0 0 0 1 0h-1Zm1 5.01a.5.5 0 0 0-1 0h1Zm-1 1.002a.5.5 0 0 0 1 0h-1Zm1 5.01a.5.5 0 1 0-1 0h1Zm-1 1.002a.5.5 0 0 0 1 0h-1Zm1 5.009a.5.5 0 0 0-1 0h1Zm-1 1.002a.5.5 0 0 0 1 0h-1Zm1 5.01a.5.5 0 0 0-1 0h1Zm-1 1.002a.5.5 0 0 0 1 0h-1Zm1 5.009a.5.5 0 0 0-1 0h1Zm-1 1.002a.5.5 0 1 0 1 0h-1Zm1 5.01a.5.5 0 0 0-1 0h1Zm-1 1.002a.5.5 0 0 0 1 0h-1Zm1 5.01a.5.5 0 0 0-1 0h1Zm-1 1.002a.5.5 0 0 0 1 0h-1Zm1 5.009a.5.5 0 0 0-1 0h1Zm-1 1.002a.5.5 0 0 0 1 0h-1Zm1 5.01a.5.5 0 0 0-1 0h1Zm-1 1.002a.5.5 0 0 0 1 0h-1Zm1 5.01a.5.5 0 1 0-1 0h1Zm-1 1.002a.5.5 0 0 0 1 0h-1Zm1 5.009a.5.5 0 0 0-1 0h1Zm-1 1.002a.5.5 0 0 0 1 0h-1Zm1 5.01a.5.5 0 0 0-1 0h1Zm-1 1.002a.5.5 0 0 0 1 0h-1Zm1 5.009a.5.5 0 0 0-1 0h1Zm-1 1.002a.5.5 0 1 0 1 0h-1Zm1 5.01a.5.5 0 0 0-1 0h1Zm-1 1.002a.5.5 0 0 0 1 0h-1Zm1 5.01a.5.5 0 0 0-1 0h1Zm-1 1.002a.5.5 0 0 0 1 0h-1Zm1 5.009a.5.5 0 0 0-1 0h1Zm-1 1.002a.5.5 0 0 0 1 0h-1Zm1 5.01a.5.5 0 0 0-1 0h1Zm-1 1.002a.5.5 0 0 0 1 0h-1Zm1 5.01a.5.5 0 0 0-1 0h1Zm-1 1.002a.5.5 0 0 0 1 0h-1Zm1 5.009a.5.5 0 0 0-1 0h1Zm-1 1.002a.5.5 0 0 0 1 0h-1Zm1 5.01a.5.5 0 0 0-1 0h1Zm-1 1.002a.5.5 0 0 0 1 0h-1Zm1 5.01a.5.5 0 0 0-1 0h1Zm-1 1.002a.5.5 0 0 0 1 0h-1Zm1 5.009a.5.5 0 0 0-1 0h1Zm-1 1.002a.5.5 0 0 0 1 0h-1Zm1 5.01a.5.5 0 0 0-1 0h1Zm-1 1.002a.5.5 0 0 0 1 0h-1Zm1 5.01a.5.5 0 1 0-1 0h1Zm-1 1.002a.5.5 0 0 0 1 0h-1Zm1 5.009a.5.5 0 0 0-1 0h1Zm-1 1.002a.5.5 0 0 0 1 0h-1Zm1 5.01a.5.5 0 0 0-1 0h1Zm-1 1.002a.5.5 0 0 0 1 0h-1Zm1 5.01a.5.5 0 1 0-1 0h1Zm-1 1.002a.5.5 0 0 0 1 0h-1Zm1 5.009a.5.5 0 0 0-1 0h1Zm-1 1.002a.5.5 0 0 0 1 0h-1Zm1 5.01a.5.5 0 0 0-1 0h1Zm-1 1.002a.5.5 0 0 0 1 0h-1Zm1 5.01a.5.5 0 1 0-1 0h1Zm-1 1.002a.5.5 0 0 0 1 0h-1Zm1 5.009a.5.5 0 0 0-1 0h1Zm-1 1.002a.5.5 0 0 0 1 0h-1Zm1 5.01a.5.5 0 0 0-1 0h1Zm-1 1.002a.5.5 0 0 0 1 0h-1Zm1 5.01a.5.5 0 1 0-1 0h1Zm-1 1.001a.501.501 0 0 0 1 .001l-1-.001Zm1 5.01a.5.5 0 0 0-1 0h1Zm-1 1.002a.5.5 0 0 0 1 0h-1Zm1 5.01a.5.5 0 0 0-1 0h1Zm-1 1.002a.5.5 0 0 0 1 0h-1Zm1 5.01a.5.5 0 1 0-1 0h1Zm-1 1.001a.5.5 0 1 0 1 0h-1Zm1 5.01a.5.5 0 0 0-1 0h1Zm-1 1.002a.5.5 0 0 0 1 0h-1Zm1 5.01a.5.5 0 0 0-1 0h1Zm-1 1.002a.5.5 0 0 0 1 0h-1Zm1 5.009a.5.5 0 0 0-1 0h1Zm-1 1.002a.5.5 0 1 0 1 0h-1Zm1 5.01a.5.5 0 0 0-1 0h1Zm-1 1.002a.5.5 0 0 0 1 0h-1Zm1 5.01a.5.5 0 0 0-1 0h1Zm-1 1.002a.5.5 0 0 0 1 0h-1Zm1 5.009a.5.5 0 0 0-1 0h1Zm-1 1.002a.5.5 0 1 0 1 0h-1Zm1 5.01a.5.5 0 0 0-1 0h1Zm-1 1.002a.5.5 0 0 0 1 0h-1Zm1 5.01a.5.5 0 0 0-1 0h1Zm-1 1.002a.5.5 0 0 0 1 0h-1Zm1 5.009a.5.5 0 0 0-1 0h1Zm-1 1.002a.5.5 0 1 0 1 0h-1Zm1 5.01a.5.5 0 0 0-1 0h1Zm-1 1.002a.5.5 0 0 0 1 0h-1Zm1 5.01a.5.5 0 0 0-1 0h1Zm-1 1.002a.5.5 0 0 0 1 0h-1Zm1 5.009a.5.5 0 0 0-1 0h1Zm-1 1.002a.5.5 0 0 0 1 0h-1Zm1 5.01a.5.5 0 0 0-1 0h1Zm-1 1.002a.5.5 0 0 0 1 0h-1Zm1 5.01a.5.5 0 0 0-1 0h1Zm-1 1.002a.5.5 0 0 0 1 0h-1Zm1 5.009a.5.5 0 0 0-1 0h1Zm-1 1.002a.5.5 0 0 0 1 0h-1Zm1 5.01a.5.5 0 0 0-1 0h1Zm-1 1.002a.5.5 0 0 0 1 0h-1Zm1 5.01a.5.5 0 0 0-1 0h1Zm-1 1.002a.5.5 0 0 0 1 0h-1Zm1 5.009a.5.5 0 0 0-1 0h1Zm-1 1.002a.5.5 0 0 0 1 0h-1Zm1 5.01a.5.5 0 0 0-1 0h1Zm-1 1.002a.5.5 0 0 0 1 0h-1Zm1 5.01a.5.5 0 0 0-1 0h1Zm-1 1.002a.5.5 0 0 0 1 0h-1Zm1 5.009a.5.5 0 0 0-1 0h1Zm-1 1.002a.5.5 0 0 0 1 0h-1Zm1 5.01a.5.5 0 0 0-1 0h1Zm-1 1.002a.5.5 0 0 0 1 0h-1Zm1 5.01a.5.5 0 1 0-1 0h1Zm-1 1.002a.5.5 0 0 0 1 0h-1Zm1 5.009a.5.5 0 0 0-1 0h1ZM785.5 3v.501h1V3h-1Zm0 5.51v1.003h1V8.51h-1Zm0 6.012v1.002h1v-1.002h-1Zm0 6.012v1.002h1v-1.002h-1Zm0 6.012v1.002h1v-1.002h-1Zm0 6.011v1.002h1v-1.002h-1Zm0 6.012v1.002h1v-1.002h-1Zm0 6.011v1.002h1V44.58h-1Zm0 6.012v1.002h1v-1.002h-1Zm0 6.012v1.002h1v-1.002h-1Zm0 6.011v1.002h1v-1.002h-1Zm0 6.012v1.002h1v-1.002h-1Zm0 6.012v1.002h1v-1.002h-1Zm0 6.011v1.002h1V80.65h-1Zm0 6.012v1.002h1v-1.002h-1Zm0 6.011v1.002h1v-1.002h-1Zm0 6.012v1.002h1v-1.002h-1Zm0 6.012v1.002h1v-1.002h-1Zm0 6.011v1.002h1v-1.002h-1Zm0 6.012v1.002h1v-1.002h-1Zm0 6.012v1.002h1v-1.002h-1Zm0 6.011v1.002h1v-1.002h-1Zm0 6.012v1.002h1v-1.002h-1Zm0 6.011v1.002h1v-1.002h-1Zm0 6.012v1.002h1v-1.002h-1Zm0 6.012v1.002h1v-1.002h-1Zm0 6.011v1.002h1v-1.002h-1Zm0 6.012v1.002h1v-1.002h-1Zm0 6.012v1.002h1v-1.002h-1Zm0 6.011v1.002h1v-1.002h-1Zm0 6.012v1.002h1v-1.002h-1Zm0 6.011v1.002h1v-1.002h-1Zm0 6.012v1.002h1v-1.002h-1Zm0 6.012v1.002h1v-1.002h-1Zm0 6.011v1.002h1v-1.002h-1Zm0 6.012v1.002h1v-1.002h-1Zm0 6.012v1.002h1v-1.002h-1Zm0 6.011v1.002h1v-1.002h-1Zm0 6.012v1.002h1v-1.002h-1Zm0 6.011v1.002h1v-1.002h-1Zm0 6.012v1.002h1v-1.002h-1Zm0 6.012v1.002h1v-1.002h-1Zm0 6.011v1.002h1v-1.002h-1Zm0 6.012v1.002h1v-1.002h-1Zm0 6.012v1.002h1v-1.002h-1Zm0 6.011v1.002h1v-1.002h-1Zm0 6.012v1.002h1v-1.002h-1Zm0 6.012v1.002h1v-1.002h-1Zm0 6.011v1.002h1v-1.002h-1Zm0 6.012v1.002h1v-1.002h-1Zm0 6.012v1.002h1v-1.002h-1Zm0 6.011v1.002h1v-1.002h-1Zm0 6.012v1.002h1v-1.002h-1Zm0 6.012v1.002h1v-1.002h-1Zm0 6.011v1.002h1v-1.002h-1Zm0 6.012v1.002h1v-1.002h-1Zm0 6.012v1.002h1v-1.002h-1Zm0 6.011v1.002h1v-1.002h-1Zm0 6.012v1.002h1v-1.002h-1Zm0 6.012v1.001l1 .001v-1.002h-1Zm0 6.011v1.002h1v-1.002h-1Zm0 6.012v1.002h1v-1.002h-1Zm0 6.012v1.001h1v-1.001h-1Zm0 6.011v1.002h1v-1.002h-1Zm0 6.012v1.002h1v-1.002h-1Zm0 6.011v1.002h1v-1.002h-1Zm0 6.012v1.002h1v-1.002h-1Zm0 6.012v1.002h1v-1.002h-1Zm0 6.011v1.002h1v-1.002h-1Zm0 6.012v1.002h1v-1.002h-1Zm0 6.012v1.002h1v-1.002h-1Zm0 6.011v1.002h1v-1.002h-1Zm0 6.012v1.002h1v-1.002h-1Zm0 6.012v1.002h1v-1.002h-1Zm0 6.011v1.002h1v-1.002h-1Zm0 6.012v1.002h1v-1.002h-1Zm0 6.012v1.002h1v-1.002h-1Zm0 6.011v1.002h1v-1.002h-1Zm0 6.012v1.002h1v-1.002h-1Zm0 6.012v1.002h1v-1.002h-1Zm0 6.011v1.002h1v-1.002h-1Zm0 6.012v1.002h1v-1.002h-1Zm0 6.012v1.002h1v-1.002h-1Zm0 6.011v1.002h1v-1.002h-1Zm0 6.012v1.002h1v-1.002h-1Zm0 6.012v1.002h1v-1.002h-1Zm0 6.011v.5h1v-.5h-1Z" fill="#1F1F1F" style="mix-blend-mode:lighten"/>
 </g>
 <defs>
  <filter id="a" x="31.869" y="3" width="15.261" height="85.75" color-interpolation-filters="sRGB" filterUnits="userSpaceOnUse">
   <feFlood flood-opacity="0" result="BackgroundImageFix"/>
   <feColorMatrix in="SourceAlpha" result="hardAlpha" values="0 0 0 0 0 0 0 0 0 0 0 0 0 0 0 0 0 0 127 0"/>
   <feOffset/>
   <feGaussianBlur stdDeviation=".5"/>
   <feColorMatrix values="0 0 0 0 0.375 0 0 0 0 0.096875 0 0 0 0 0.266168 0 0 0 1 0"/>
   <feBlend in2="BackgroundImageFix" result="effect1_dropShadow_49_9322"/>
   <feBlend in="SourceGraphic" in2="effect1_dropShadow_49_9322" result="shape"/>
  </filter>
  <filter id="b" x="880.87" y="0" width="15.261" height="149.75" color-interpolation-filters="sRGB" filterUnits="userSpaceOnUse">
   <feFlood flood-opacity="0" result="BackgroundImageFix"/>
   <feColorMatrix in="SourceAlpha" result="hardAlpha" values="0 0 0 0 0 0 0 0 0 0 0 0 0 0 0 0 0 0 127 0"/>
   <feOffset/>
   <feGaussianBlur stdDeviation=".5"/>
   <feColorMatrix values="0 0 0 0 0.375 0 0 0 0 0.096875 0 0 0 0 0.266168 0 0 0 1 0"/>
   <feBlend in2="BackgroundImageFix" result="effect1_dropShadow_49_9322"/>
   <feBlend in="SourceGraphic" in2="effect1_dropShadow_49_9322" result="shape"/>
  </filter>
  <filter id="c" x="931.87" y="0" width="15.261" height="149.75" color-interpolation-filters="sRGB" filterUnits="userSpaceOnUse">
   <feFlood flood-opacity="0" result="BackgroundImageFix"/>
   <feColorMatrix in="SourceAlpha" result="hardAlpha" values="0 0 0 0 0 0 0 0 0 0 0 0 0 0 0 0 0 0 127 0"/>
   <feOffset/>
   <feGaussianBlur stdDeviation=".5"/>
   <feColorMatrix values="0 0 0 0 0.375 0 0 0 0 0.096875 0 0 0 0 0.266168 0 0 0 1 0"/>
   <feBlend in2="BackgroundImageFix" result="effect1_dropShadow_49_9322"/>
   <feBlend in="SourceGraphic" in2="effect1_dropShadow_49_9322" result="shape"/>
  </filter>
  <filter id="d" x="1140.5" y="0" width="3" height="260.5" color-interpolation-filters="sRGB" filterUnits="userSpaceOnUse">
   <feFlood flood-opacity="0" result="BackgroundImageFix"/>
   <feColorMatrix in="SourceAlpha" result="hardAlpha" values="0 0 0 0 0 0 0 0 0 0 0 0 0 0 0 0 0 0 127 0"/>
   <feOffset/>
   <feGaussianBlur stdDeviation=".5"/>
   <feColorMatrix values="0 0 0 0 0.375 0 0 0 0 0.096875 0 0 0 0 0.266168 0 0 0 1 0"/>
   <feBlend in2="BackgroundImageFix" result="effect1_dropShadow_49_9322"/>
   <feBlend in="SourceGraphic" in2="effect1_dropShadow_49_9322" result="shape"/>
  </filter>
  <filter id="e" x=".5" y="0" width="3" height="246.5" color-interpolation-filters="sRGB" filterUnits="userSpaceOnUse">
   <feFlood flood-opacity="0" result="BackgroundImageFix"/>
   <feColorMatrix in="SourceAlpha" result="hardAlpha" values="0 0 0 0 0 0 0 0 0 0 0 0 0 0 0 0 0 0 127 0"/>
   <feOffset/>
   <feGaussianBlur stdDeviation=".5"/>
   <feColorMatrix values="0 0 0 0 0.375 0 0 0 0 0.096875 0 0 0 0 0.266168 0 0 0 1 0"/>
   <feBlend in2="BackgroundImageFix" result="effect1_dropShadow_49_9322"/>
   <feBlend in="SourceGraphic" in2="effect1_dropShadow_49_9322" result="shape"/>
  </filter>
  <filter id="g" x="281.5" y="2" width="3" height="519.5" color-interpolation-filters="sRGB" filterUnits="userSpaceOnUse">
   <feFlood flood-opacity="0" result="BackgroundImageFix"/>
   <feColorMatrix in="SourceAlpha" result="hardAlpha" values="0 0 0 0 0 0 0 0 0 0 0 0 0 0 0 0 0 0 127 0"/>
   <feOffset/>
   <feGaussianBlur stdDeviation=".5"/>
   <feColorMatrix values="0 0 0 0 0.375 0 0 0 0 0.096875 0 0 0 0 0.266168 0 0 0 1 0"/>
   <feBlend in2="BackgroundImageFix" result="effect1_dropShadow_49_9322"/>
   <feBlend in="SourceGraphic" in2="effect1_dropShadow_49_9322" result="shape"/>
  </filter>
  <filter id="h" x="311.5" y="0" width="3" height="324.5" color-interpolation-filters="sRGB" filterUnits="userSpaceOnUse">
   <feFlood flood-opacity="0" result="BackgroundImageFix"/>
   <feColorMatrix in="SourceAlpha" result="hardAlpha" values="0 0 0 0 0 0 0 0 0 0 0 0 0 0 0 0 0 0 127 0"/>
   <feOffset/>
   <feGaussianBlur stdDeviation=".5"/>
   <feColorMatrix values="0 0 0 0 0.375 0 0 0 0 0.096875 0 0 0 0 0.266168 0 0 0 1 0"/>
   <feBlend in2="BackgroundImageFix" result="effect1_dropShadow_49_9322"/>
   <feBlend in="SourceGraphic" in2="effect1_dropShadow_49_9322" result="shape"/>
  </filter>
  <filter id="i" x="366" y="0" width="14" height="260" color-interpolation-filters="sRGB" filterUnits="userSpaceOnUse">
   <feFlood flood-opacity="0" result="BackgroundImageFix"/>
   <feColorMatrix in="SourceAlpha" result="hardAlpha" values="0 0 0 0 0 0 0 0 0 0 0 0 0 0 0 0 0 0 127 0"/>
   <feOffset/>
   <feGaussianBlur stdDeviation=".5"/>
   <feColorMatrix values="0 0 0 0 0.375 0 0 0 0 0.096875 0 0 0 0 0.266168 0 0 0 1 0"/>
   <feBlend in2="BackgroundImageFix" result="effect1_dropShadow_49_9322"/>
   <feBlend in="SourceGraphic" in2="effect1_dropShadow_49_9322" result="shape"/>
  </filter>
  <filter id="k" x="579.5" y="0" width="3" height="246.5" color-interpolation-filters="sRGB" filterUnits="userSpaceOnUse">
   <feFlood flood-opacity="0" result="BackgroundImageFix"/>
   <feColorMatrix in="SourceAlpha" result="hardAlpha" values="0 0 0 0 0 0 0 0 0 0 0 0 0 0 0 0 0 0 127 0"/>
   <feOffset/>
   <feGaussianBlur stdDeviation=".5"/>
   <feColorMatrix values="0 0 0 0 0.375 0 0 0 0 0.096875 0 0 0 0 0.266168 0 0 0 1 0"/>
   <feBlend in2="BackgroundImageFix" result="effect1_dropShadow_49_9322"/>
   <feBlend in="SourceGraphic" in2="effect1_dropShadow_49_9322" result="shape"/>
  </filter>
  <filter id="l" x="718.5" y="0" width="3" height="155.5" color-interpolation-filters="sRGB" filterUnits="userSpaceOnUse">
   <feFlood flood-opacity="0" result="BackgroundImageFix"/>
   <feColorMatrix in="SourceAlpha" result="hardAlpha" values="0 0 0 0 0 0 0 0 0 0 0 0 0 0 0 0 0 0 127 0"/>
   <feOffset/>
   <feGaussianBlur stdDeviation=".5"/>
   <feColorMatrix values="0 0 0 0 0.375 0 0 0 0 0.096875 0 0 0 0 0.266168 0 0 0 1 0"/>
   <feBlend in2="BackgroundImageFix" result="effect1_dropShadow_49_9322"/>
   <feBlend in="SourceGraphic" in2="effect1_dropShadow_49_9322" result="shape"/>
  </filter>
  <filter id="m" x="784.5" y="2" width="3" height="519.5" color-interpolation-filters="sRGB" filterUnits="userSpaceOnUse">
   <feFlood flood-opacity="0" result="BackgroundImageFix"/>
   <feColorMatrix in="SourceAlpha" result="hardAlpha" values="0 0 0 0 0 0 0 0 0 0 0 0 0 0 0 0 0 0 127 0"/>
   <feOffset dx="-63.327800428206999"/>
   <feGaussianBlur stdDeviation="0.5"/>
   <feColorMatrix values="0 0 0 0 0.375 0 0 0 0 0.096875000000000003 0 0 0 0 0.26616800000000002 0 0 0 1 0"/>
   <feBlend in2="BackgroundImageFix" result="effect1_dropShadow_49_9322"/>
   <feBlend in="SourceGraphic" in2="effect1_dropShadow_49_9322" result="shape"/>
  </filter>
  <linearGradient id="f" x1="2.5" x2="2.5" y1="1" y2="245" gradientUnits="userSpaceOnUse">
   <stop stop-color="#BD94A6" offset=".5"/>
   <stop stop-color="#390C20" offset=".5"/>
  </linearGradient>
  <linearGradient id="j" x1="373.5" x2="373.5" y1="1" y2="245" gradientUnits="userSpaceOnUse">
   <stop stop-color="#8A375B" offset=".42"/>
   <stop stop-color="#4B4B4B" offset="1"/>
  </linearGradient>
 </defs>
</svg>
