<svg xmlns="http://www.w3.org/2000/svg" width="1920" height="1412" fill="none" viewBox="0 0 1920 1412">
  <g clip-path="url(#a)">
    <g filter="url(#b)" opacity=".5" style="mix-blend-mode:lighten">
      <path fill="#152032" d="m-49 807-101 167.5V-98h1171c-37 10.167-128.9 72.9-152.5 78.5C839-12.5 730 39 715.5 44s-116 84.5-127 91-70.5 78.5-88.5 94.5-81.5 129-91 140.5-129 97.5-142 102.5c-10.4 4-103 70.333-148 103L-49 807Z"/>
    </g>
    <g filter="url(#c)" opacity=".5" style="mix-blend-mode:lighten">
      <path fill="#152032" d="M536.5 688.844 836 493l10 55.864L721 660 594 766 464.5 893 314 989l-127 96.5L67 1196l-110.953 126.52L-154 580 97.5 787l439-98.156Z"/>
    </g>
    <g filter="url(#d)" opacity=".5" style="mix-blend-mode:lighten">
      <path fill="#4F0562" d="M789.446-26.256 856.727-38h40.369c26.699 3.915 82.019 11.744 89.708 11.744 9.612 0 22.426 56.05 19.866 62.99-2.57 6.939-30.759 54.981-37.808 54.981-7.048 0-121.106 20.285-131.999 20.285s-116.62-16.548-128.795-20.285c-9.74-2.989-19.437-28.292-23.068-40.57l23.068-53.914 81.378-23.487Z"/>
    </g>
    <g filter="url(#e)" opacity=".75" style="mix-blend-mode:lighten">
      <path fill="#4F0562" d="M1142.71 22.078 1219.28 0 1289 51.96l-49 58.933c-10.25 0-85.84 3.513-97.29 0-9.17-2.81-18.29-26.594-21.71-38.135l21.71-50.68Z"/>
    </g>
    <g filter="url(#f)" opacity=".75" style="mix-blend-mode:lighten">
      <path fill="#4F0562" d="M1524.73 126.921 1576.69 112l47.31 35.117-33.25 39.828c-6.96 0-58.25 2.374-66.02 0-6.22-1.899-12.41-17.973-14.73-25.773l14.73-34.251Z"/>
    </g>
    <g filter="url(#g)" opacity=".75" style="mix-blend-mode:lighten">
      <path fill="#4F0562" d="M1856.75 304.591 1965.23 272l98.77 76.702-69.42 86.994c-14.52 0-121.6 5.185-137.83 0-12.98-4.148-25.91-39.258-30.75-56.294l30.75-74.811Z"/>
    </g>
  </g>
  <defs>
    <filter id="b" width="1771" height="1672.5" x="-450" y="-398" color-interpolation-filters="sRGB" filterUnits="userSpaceOnUse">
      <feFlood flood-opacity="0" result="BackgroundImageFix"/>
      <feBlend in="SourceGraphic" in2="BackgroundImageFix" result="shape"/>
      <feGaussianBlur result="effect1_foregroundBlur_49_11925" stdDeviation="150"/>
    </filter>
    <filter id="c" width="1421.2" height="1250.72" x="-364.6" y="282.4" color-interpolation-filters="sRGB" filterUnits="userSpaceOnUse">
      <feFlood flood-opacity="0" result="BackgroundImageFix"/>
      <feBlend in="SourceGraphic" in2="BackgroundImageFix" result="shape"/>
      <feGaussianBlur result="effect1_foregroundBlur_49_11925" stdDeviation="105.3"/>
    </filter>
    <filter id="d" width="922" height="750" x="385" y="-338" color-interpolation-filters="sRGB" filterUnits="userSpaceOnUse">
      <feFlood flood-opacity="0" result="BackgroundImageFix"/>
      <feBlend in="SourceGraphic" in2="BackgroundImageFix" result="shape"/>
      <feGaussianBlur result="effect1_foregroundBlur_49_11925" stdDeviation="150"/>
    </filter>
    <filter id="e" width="768" height="712.454" x="821" y="-300" color-interpolation-filters="sRGB" filterUnits="userSpaceOnUse">
      <feFlood flood-opacity="0" result="BackgroundImageFix"/>
      <feBlend in="SourceGraphic" in2="BackgroundImageFix" result="shape"/>
      <feGaussianBlur result="effect1_foregroundBlur_49_11925" stdDeviation="150"/>
    </filter>
    <filter id="f" width="714" height="676" x="1210" y="-188" color-interpolation-filters="sRGB" filterUnits="userSpaceOnUse">
      <feFlood flood-opacity="0" result="BackgroundImageFix"/>
      <feBlend in="SourceGraphic" in2="BackgroundImageFix" result="shape"/>
      <feGaussianBlur result="effect1_foregroundBlur_49_11925" stdDeviation="150"/>
    </filter>
    <filter id="g" width="838" height="766" x="1526" y="-28" color-interpolation-filters="sRGB" filterUnits="userSpaceOnUse">
      <feFlood flood-opacity="0" result="BackgroundImageFix"/>
      <feBlend in="SourceGraphic" in2="BackgroundImageFix" result="shape"/>
      <feGaussianBlur result="effect1_foregroundBlur_49_11925" stdDeviation="150"/>
    </filter>
    <clipPath id="a">
      <path fill="#fff" d="M0 0h1920v1412H0z"/>
    </clipPath>
  </defs>
</svg>
