<svg id="svg3" width="101.96" height="75.134" version="1.1" xmlns="http://www.w3.org/2000/svg">
 <path id="path1" d="m57.643 0h24.137l20.185 37.119-20.185 38.016h-24.137l20.185-38.027z" fill="#d95584" stroke-width="1.9198"/>
 <g id="g12" transform="translate(-38.01 104.43)" fill="#4b559c">
  <path id="path12" d="m97.025-52.146h-6.075l-9.84-16.313h-0.127q0.063 1.027 0.095 2.054 0.063 1.027 0.095 2.054 0.063 1.028 0.095 2.055v10.15h-4.272v-21.569h6.044l9.81 16.164h0.094l-0.063-1.994q-0.032-0.997-0.095-1.964l-0.063-1.994v-10.213h4.303z"/>
  <path id="path11" d="m68.99-52.146-1.646-5.135h-8.227l-1.645 5.136h-5.158l7.975-21.661h5.854l8.006 21.66zm-4.43-13.988q-0.159-0.513-0.412-1.299-0.253-0.785-0.506-1.601t-0.411-1.42q-0.159 0.604-0.443 1.51-0.253 0.877-0.507 1.693-0.221 0.785-0.348 1.117l-1.613 5.015h5.885z"/>
  <path id="path10" d="m43.138-52.146h-4.714v-21.57h12.942v3.745h-8.227v5.56h7.657v3.746h-7.657z"/>
 </g>
 <g id="g13" transform="translate(9.9731 60.414)" fill="#4b559c">
  <path id="path9" d="m39.059-43.991q0 2.054-0.601 3.655-0.57 1.601-1.677 2.719-1.076 1.088-2.627 1.662-1.55 0.543-3.512 0.543-1.803 0-3.354-0.543-1.519-0.574-2.626-1.662-1.108-1.118-1.74-2.719-0.602-1.601-0.602-3.656 0-2.749 1.013-4.622 1.012-1.903 2.91-2.9 1.9-0.997 4.494-0.997 2.437 0 4.304 0.997 1.866 0.997 2.942 2.9 1.076 1.873 1.076 4.622zm-11.93 0q0 1.63 0.348 2.749 0.38 1.087 1.171 1.661 0.791 0.544 2.057 0.544t2.025-0.544q0.791-0.574 1.14-1.661 0.379-1.118 0.379-2.75t-0.38-2.719q-0.348-1.087-1.139-1.631t-2.057-0.544q-1.867 0-2.721 1.239-0.823 1.208-0.823 3.655z"/>
  <path id="path8" d="m19.282-52.511q0.348 0 0.823 0.03t0.759 0.09l-0.348 4.23q-0.222-0.06-0.665-0.09-0.41-0.06-0.727-0.06-0.918 0-1.772 0.24-0.855 0.212-1.55 0.696-0.665 0.483-1.077 1.299-0.38 0.785-0.38 1.964v8.398h-4.713v-16.495h3.575l0.696 2.78h0.222q0.506-0.846 1.266-1.541t1.74-1.118q1.013-0.423 2.152-0.423z"/>
  <path id="path2" d="m-2.6463-57.285q4.367 0 6.36 1.813 2.025 1.783 2.025 4.925 0 1.42-0.443 2.719-0.443 1.268-1.487 2.296-1.013 0.997-2.69 1.57-1.677 0.573-4.145 0.575h-2.057v7.673h-4.778v-21.57zm-0.253 3.747h-2.184v6.404h1.583q1.36 0 2.341-0.332 0.981-0.332 1.519-1.057t0.538-1.873q0-1.602-0.918-2.357-0.917-0.785-2.88-0.785z"/>
 </g>
 <path id="path3" d="m4.0925 67.071h-1.7912v-6.9751h-2.3013v-1.4947h6.3938v1.4947h-2.3013zm7.1412-6.5955q0.13049 0 0.30842 0.01186t0.2847 0.03559l-0.13049 1.6607q-0.08303-0.02373-0.24911-0.03559-0.15421-0.02373-0.27284-0.02373-0.34401 0-0.66429 0.0949-0.32028 0.08304-0.58126 0.27284-0.24911 0.1898-0.40332 0.51008-0.14235 0.30842-0.14235 0.77105v3.2977h-1.7675v-6.4769h1.3404l0.26097 1.0913h0.08304q0.1898-0.33215 0.4745-0.60498 0.2847-0.27284 0.65243-0.43891 0.3796-0.16607 0.80664-0.16607zm4.8399-0.01186q1.3049 0 1.9929 0.56939 0.69988 0.55753 0.69988 1.72v4.3179h-1.2337l-0.34401-0.87782h-0.04745q-0.27283 0.34401-0.56939 0.56939-0.2847 0.22539-0.66429 0.32029-0.36774 0.10676-0.9134 0.10676-0.5694 0-1.032-0.21352-0.45077-0.22538-0.71174-0.67616-0.26097-0.46263-0.26097-1.1625 0-1.032 0.72361-1.5184 0.72361-0.49822 2.1708-0.54567l1.1269-0.03559v-0.2847q0-0.51008-0.27284-0.74733-0.26097-0.23725-0.73547-0.23725-0.47449 0-0.92527 0.14235-0.45077 0.13049-0.90154 0.33215l-0.58126-1.1981q0.52195-0.27284 1.1507-0.42705 0.64057-0.15421 1.3286-0.15421zm0.24911 3.6299q-0.85409 0.02372-1.1862 0.30842-0.33215 0.2847-0.33215 0.74733 0 0.40332 0.23725 0.58126 0.23725 0.16607 0.61684 0.16607 0.5694 0 0.96085-0.33215 0.39146-0.34401 0.39146-0.96085v-0.53381zm8.5884-3.618q1.0439 0 1.6726 0.5694 0.62871 0.55753 0.62871 1.8031v4.223h-1.7675v-3.7841q0-0.69988-0.24911-1.0439-0.24911-0.35587-0.79478-0.35587-0.80664 0-1.1032 0.55753-0.29656 0.54567-0.29656 1.5777v3.0486h-1.7675v-6.4769h1.3523l0.23725 0.83037h0.09489q0.21352-0.33215 0.52194-0.53381 0.30842-0.21352 0.68802-0.30842 0.3796-0.10676 0.78292-0.10676zm9.2882 4.6738q0 0.65243-0.30842 1.1151-0.30842 0.45077-0.92527 0.68802-0.61684 0.23725-1.5302 0.23725-0.67616 0-1.1625-0.0949-0.48636-0.08303-0.97272-0.2847v-1.4591q0.52195 0.23725 1.1269 0.39146 0.60498 0.15421 1.0676 0.15421 0.52194 0 0.73547-0.15421 0.22538-0.15421 0.22538-0.40332 0-0.16607-0.0949-0.29656-0.08304-0.13049-0.3796-0.29656-0.29656-0.16607-0.92527-0.42704-0.60498-0.26097-0.99644-0.51008-0.39146-0.26097-0.58126-0.61684-0.1898-0.36773-0.1898-0.9134 0-0.90154 0.69988-1.3523 0.69988-0.45077 1.8624-0.45077 0.60498 0 1.1507 0.11862t1.1269 0.39146l-0.53381 1.2693q-0.4745-0.20166-0.90154-0.33215-0.42705-0.14235-0.86595-0.14235-0.39146 0-0.59312 0.10676-0.1898 0.10676-0.1898 0.32028 0 0.15421 0.0949 0.2847 0.10676 0.11862 0.39146 0.26097 0.29656 0.14235 0.86595 0.3796 0.55753 0.22538 0.96085 0.47449 0.40332 0.23725 0.61684 0.60498 0.22538 0.35587 0.22538 0.93713zm5.6109-3.2266h-1.5302v5.1483h-1.7675v-5.1483h-0.97272v-0.85409l0.97272-0.4745v-0.4745q0-0.83037 0.27283-1.2811 0.2847-0.46263 0.79478-0.65243 0.52195-0.1898 1.2218-0.1898 0.52195 0 0.93713 0.08304 0.42705 0.08304 0.68802 0.1898l-0.45077 1.293q-0.20166-0.05931-0.43891-0.10676-0.23725-0.0593-0.54567-0.0593-0.36773 0-0.54567 0.22538-0.16607 0.22539-0.16607 0.5694v0.40332h1.5302zm4.3298-1.4472q0.90154 0 1.5421 0.34401 0.65242 0.34401 1.0083 0.99644 0.35587 0.65243 0.35587 1.6014v0.85409h-4.1756q0.02373 0.74733 0.43891 1.1744 0.42705 0.42705 1.1744 0.42705 0.62871 0 1.1388-0.11862 0.51008-0.13049 1.0558-0.39146v1.3642q-0.4745 0.23725-1.0083 0.34401-0.52195 0.11862-1.2693 0.11862-0.97272 0-1.7201-0.35587-0.74733-0.36773-1.1744-1.1032-0.42705-0.73547-0.42705-1.8505 0-1.1388 0.3796-1.8861 0.39146-0.75919 1.0795-1.1388 0.68802-0.3796 1.6014-0.3796zm0.01186 1.2574q-0.51008 0-0.85409 0.33215-0.33215 0.33215-0.39146 1.032h2.4792q0-0.39146-0.14234-0.69988-0.13048-0.30842-0.40332-0.48636-0.27283-0.17794-0.68802-0.17794zm8.6002-1.2574q0.1305 0 0.30842 0.01186 0.17794 0.01186 0.2847 0.03559l-0.13048 1.6607q-0.08307-0.02373-0.24911-0.03559-0.15421-0.02373-0.27284-0.02373-0.34401 0-0.66429 0.09489-0.32029 0.08304-0.58126 0.27284-0.24912 0.1898-0.40332 0.51008-0.14235 0.30842-0.14235 0.77105v3.2977h-1.7675v-6.4769h1.3404l0.26097 1.0913h0.08307q0.18979-0.33215 0.4745-0.60498 0.28469-0.27284 0.65242-0.43891 0.3796-0.16607 0.80664-0.16607zm5.1483 5.3025q0.29656 0 0.56939-0.05931 0.27284-0.0593 0.54567-0.14235v1.3167q-0.2847 0.11862-0.71174 0.20166-0.41519 0.0949-0.9134 0.0949-0.58126 0-1.0439-0.1898-0.45078-0.1898-0.72361-0.65243-0.26097-0.47449-0.26097-1.3049v-3.1198h-0.84223v-0.74733l0.97271-0.59312 0.51008-1.3642h1.1269v1.376h1.8149v1.3286h-1.8149v3.1198q0 0.36773 0.21353 0.55753 0.21352 0.17794 0.55753 0.17794z" fill="#29a8e0" stroke-width=".7414" style="white-space:pre" aria-label="Transfert"/>
</svg>
